<svg width="404" height="241" viewBox="0 0 404 241" fill="none" xmlns="http://www.w3.org/2000/svg">
<g clip-path="url(#clip0_53_1542)">
<path d="M166.344 56.6967C165.222 56.6967 164.004 55.4381 163.661 54.3002C163.255 52.8 163.522 51.2108 164.391 49.8441C163.116 49.1448 161.556 48.9795 160.414 49.914C159.583 50.6005 159.367 51.5477 159.729 52.9907C159.773 53.1623 159.665 53.334 159.501 53.3785C159.329 53.4229 159.158 53.3149 159.114 53.1496C158.847 52.088 158.651 50.5433 160.008 49.4245C161.391 48.2866 163.262 48.49 164.752 49.3292C164.765 49.3164 164.778 49.2974 164.79 49.2847C166.053 47.7082 167.93 46.8182 169.82 46.9008C169.991 46.9136 170.169 46.939 170.34 46.9708C170.588 46.2969 170.943 45.6867 171.349 45.2226C172.554 43.6652 174.273 43.4936 175.935 43.3283C176.112 43.3156 176.264 43.4364 176.283 43.6144C176.302 43.786 176.176 43.9449 175.998 43.964C174.4 44.1229 172.89 44.2755 171.837 45.6295C171.495 46.0236 171.19 46.5385 170.968 47.1106C172.516 47.5365 173.867 48.5345 174.013 50.1174C174.114 51.5032 173.347 52.1961 172.662 52.3677C171.736 52.6029 170.772 52.0753 170.328 51.09C169.839 50.0093 169.839 48.738 170.15 47.581C170.023 47.562 169.903 47.5492 169.776 47.5365C168.108 47.4602 166.427 48.2612 165.291 49.6724C165.469 49.7996 165.634 49.933 165.793 50.0729C167.074 51.357 168.184 53.5437 167.841 55.2537C167.511 56.506 166.769 56.6967 166.363 56.7031C166.357 56.6967 166.351 56.6967 166.344 56.6967ZM164.93 50.181C164.156 51.3951 163.915 52.8063 164.277 54.1222C164.568 55.0884 165.609 56.0928 166.363 56.061C166.776 56.0547 167.067 55.7305 167.232 55.1012C167.524 53.6454 166.49 51.6557 165.368 50.5306C165.228 50.4098 165.082 50.2954 164.93 50.181ZM170.772 47.7145C170.493 48.7443 170.48 49.8886 170.905 50.8294C171.279 51.6494 171.996 51.8846 172.51 51.7575C172.979 51.6367 173.455 51.1599 173.385 50.1746C173.271 48.8905 172.078 48.0705 170.772 47.7145Z" fill="#99D5CB"/>
<path d="M380.817 133.322C380.481 133.322 380.164 133.22 379.904 133.023C379.397 132.565 379.162 132.057 379.168 131.491C379.187 130.099 380.716 128.77 381.667 127.957C381.388 127.194 380.9 126.571 379.986 126.24C378.597 125.617 376.84 125.744 375.255 126.545C375.337 126.666 375.42 126.787 375.496 126.914C376.555 128.821 376.542 130.614 375.464 131.847C374.811 132.692 373.694 133.067 372.775 132.756C371.976 132.483 371.5 131.758 371.5 130.83C371.576 129.075 372.604 127.454 374.316 126.355C373.599 125.458 372.737 124.734 371.836 124.282C370.948 123.837 370.701 123.825 369.591 123.99C369.419 124.015 369.255 123.895 369.229 123.723C369.204 123.551 369.324 123.386 369.496 123.361C370.701 123.189 371.088 123.202 372.115 123.717C373.124 124.219 374.075 125.026 374.868 126.037C376.644 125.109 378.648 124.956 380.215 125.662C381.274 126.05 381.858 126.749 382.194 127.594C382.257 127.556 382.314 127.518 382.378 127.48C382.993 127.092 383.57 126.73 384.369 126.463C384.642 126.374 384.94 126.329 385.238 126.285C385.517 126.247 385.777 126.208 385.993 126.132C386.158 126.075 386.336 126.164 386.393 126.336C386.45 126.501 386.361 126.679 386.19 126.736C385.917 126.825 385.619 126.87 385.321 126.914C385.042 126.952 384.782 126.99 384.566 127.067C383.843 127.308 383.291 127.651 382.714 128.02C382.612 128.084 382.505 128.154 382.397 128.217C382.543 128.783 382.619 129.387 382.669 129.991C382.669 130.137 382.676 130.27 382.682 130.404C382.708 131.059 382.746 131.866 382.283 132.483C382.105 132.851 381.686 133.169 381.198 133.284C381.077 133.303 380.951 133.322 380.817 133.322ZM381.858 128.63C381.027 129.355 379.815 130.493 379.803 131.504C379.796 131.885 379.961 132.222 380.31 132.54C380.576 132.737 380.9 132.699 381.065 132.661C381.369 132.591 381.636 132.387 381.762 132.146C382.118 131.663 382.092 131.001 382.067 130.423C382.061 130.277 382.054 130.137 382.054 130.01C382.003 129.527 381.953 129.063 381.858 128.63ZM374.703 126.857C373.136 127.842 372.204 129.285 372.14 130.83C372.14 131.478 372.445 131.961 372.984 132.146C373.656 132.375 374.475 132.089 374.982 131.434C376.257 129.978 375.388 128.007 374.957 127.232C374.868 127.098 374.785 126.978 374.703 126.857Z" fill="#DCD8F0"/>
<path d="M96.6632 62.5576C92.7116 60.1229 92.9844 56.6648 97.2657 54.8785L140.961 36.6599C145.242 34.8736 146.974 36.7743 144.798 40.8808L128.263 72.1246C126.087 76.2311 121.076 77.6042 117.118 75.1632L96.6632 62.5576Z" fill="#DCD8F0"/>
<path d="M324.297 84.2216C321.951 84.2216 319.756 83.3126 318.107 81.6598L309.233 72.7666C307.584 71.1138 306.677 68.9144 306.677 66.5623C306.677 64.2103 307.584 62.0108 309.233 60.3581L318.107 51.4649C319.756 49.8121 321.951 48.9031 324.297 48.9031C326.644 48.9031 328.839 49.8121 330.488 51.4649L339.361 60.3581C341.01 62.0108 341.917 64.2103 341.917 66.5623C341.917 68.9144 341.01 71.1138 339.361 72.7666L330.488 81.6598C328.839 83.3126 326.644 84.2216 324.297 84.2216ZM324.297 49.5451C322.122 49.5451 320.086 50.3906 318.557 51.9162L309.684 60.8094C308.155 62.3414 307.318 64.3819 307.318 66.5623C307.318 68.7427 308.161 70.7896 309.684 72.3153L318.557 81.2085C320.086 82.7405 322.122 83.5796 324.297 83.5796C326.473 83.5796 328.509 82.7341 330.038 81.2085L338.911 72.3153C340.44 70.7833 341.277 68.7427 341.277 66.5623C341.277 64.3819 340.433 62.3414 338.911 60.8094L330.038 51.9162C328.509 50.3842 326.473 49.5451 324.297 49.5451Z" fill="#F1E0D9"/>
<path d="M62.1652 69.0416C63.5162 70.3893 63.5162 72.6015 62.1652 73.9555L58.5181 77.6106C57.1734 78.9646 54.9662 78.9646 53.6152 77.6106L49.9681 73.9555C48.6171 72.6078 48.6171 70.3956 49.9681 69.0416L53.6152 65.3865C54.9598 64.0388 57.1671 64.0388 58.5181 65.3865L62.1652 69.0416Z" fill="#AAD5CE"/>
<path d="M400.213 192.218C400.213 193.655 399.053 194.818 397.619 194.818C396.186 194.818 395.025 193.655 395.025 192.218C395.025 190.781 396.186 189.618 397.619 189.618C399.046 189.618 400.213 190.781 400.213 192.218Z" fill="#DCD8F0"/>
<path d="M396.338 198.517C396.338 199.954 395.177 201.117 393.744 201.117C392.31 201.117 391.15 199.954 391.15 198.517C391.15 197.081 392.31 195.918 393.744 195.918C395.171 195.911 396.338 197.081 396.338 198.517Z" fill="#DCD8F0"/>
<path d="M398.805 198.517C398.805 199.954 399.966 201.117 401.4 201.117C402.833 201.117 403.994 199.954 403.994 198.517C403.994 197.081 402.833 195.918 401.4 195.918C399.972 195.911 398.805 197.081 398.805 198.517Z" fill="#DCD8F0"/>
<path d="M284.148 20.2911C284.148 21.7277 282.987 22.891 281.554 22.891C280.12 22.891 278.959 21.7277 278.959 20.2911C278.959 18.8545 280.12 17.6912 281.554 17.6912C282.987 17.6912 284.148 18.8545 284.148 20.2911Z" fill="#AAD5CE"/>
<path d="M280.279 26.5907C280.279 28.0273 279.118 29.1906 277.685 29.1906C276.251 29.1906 275.09 28.0273 275.09 26.5907C275.09 25.154 276.251 23.9907 277.685 23.9907C279.112 23.9844 280.279 25.154 280.279 26.5907Z" fill="#AAD5CE"/>
<path d="M282.746 26.5907C282.746 28.0273 283.907 29.1906 285.34 29.1906C286.774 29.1906 287.934 28.0273 287.934 26.5907C287.934 25.154 286.774 23.9907 285.34 23.9907C283.907 23.9844 282.746 25.154 282.746 26.5907Z" fill="#AAD5CE"/>
<path d="M108.949 55.19C103.405 55.19 98.8958 50.6703 98.8958 45.1144C98.8958 39.5585 103.405 35.0388 108.949 35.0388C114.493 35.0388 119.002 39.5585 119.002 45.1144C119.002 50.6703 114.493 55.19 108.949 55.19ZM108.949 35.6809C103.754 35.6809 99.53 39.9145 99.53 45.1207C99.53 50.327 103.754 54.5606 108.949 54.5606C114.144 54.5606 118.368 50.327 118.368 45.1207C118.368 39.9145 114.144 35.6809 108.949 35.6809Z" fill="#F1E0D9"/>
<path d="M12.0956 215.84C5.42303 215.84 0 210.398 0 203.717C0 197.036 5.42303 191.595 12.0956 191.595C18.7618 191.595 24.1912 197.03 24.1912 203.717C24.1848 210.398 18.7618 215.84 12.0956 215.84ZM12.0956 192.231C5.77188 192.231 0.634273 197.386 0.634273 203.717C0.634273 210.049 5.77188 215.204 12.0956 215.204C18.4129 215.204 23.5569 210.049 23.5569 203.717C23.5505 197.386 18.4129 192.231 12.0956 192.231Z" fill="#F1E0D9"/>
<path d="M166.516 104.093C170.734 110.762 178.687 127.836 188.747 130.271C198.806 132.712 205.137 130.271 209.678 120.354C214.219 110.437 216.978 105.555 217.467 106.045C217.955 106.534 223.467 123.933 224.609 126.857C225.744 129.781 269.877 139.863 276.854 136.125C283.831 132.387 287.402 129.622 290.973 109.617C294.544 89.6188 296.814 81.6473 294.055 74.6548C291.296 67.6623 289.672 65.2213 282.213 60.6698C274.748 56.1183 262.748 49.1893 253.075 48.8715C246.903 48.6681 224.127 55.3046 214.72 66.3591C205.308 77.42 191.842 107.335 190.872 107.99C184.383 100.997 183.248 99.3701 183.248 99.3701C183.248 99.3701 165.222 101.818 166.516 104.093Z" fill="#AAD5CE"/>
<path d="M236.558 57.4785C238.29 60.8413 241.208 63.9815 247.049 63.0089C252.891 62.03 258.232 54.637 255.916 50.1491C253.633 45.712 248.451 36.7743 248.451 36.7743C252.992 35.4712 253.1 26.9085 245.419 25.8279C242.064 15.854 234.059 1.76091 216.649 10.1074C199.231 18.4539 200.329 21.1492 201.407 27.1119C202.492 33.0746 206.158 35.9098 210.16 43.1756C214.162 50.4415 221.089 63.7654 236.558 57.4785Z" fill="#FF7E7D"/>
<path d="M186.628 103.362C183.838 100.241 182.017 97.6665 182.017 97.6665C182.017 97.6665 163.522 97.7491 164.816 100.025C165.691 101.411 168.438 107.316 169.624 109.376C172.44 110.787 181.497 111.785 186.628 103.362Z" fill="#FF7E7D"/>
<path d="M252.999 96.1218C252.999 97.5584 251.838 98.7217 250.405 98.7217H145.914C144.481 98.7217 143.32 97.5584 143.32 96.1218V80.8336C143.32 79.3969 144.481 78.2336 145.914 78.2336H250.405C251.838 78.2336 252.999 79.3969 252.999 80.8336V96.1218Z" fill="#F1E0D9"/>
<path d="M232.822 82.1367V94.8186C232.822 94.8186 244.024 94.8186 245.977 94.8186C247.931 94.8186 249.098 94.2655 249.098 92.0979C249.098 89.5996 249.098 86.1669 249.098 84.7875C249.098 82.6198 247.772 82.1367 246.554 82.1367C245.349 82.1367 232.822 82.1367 232.822 82.1367Z" fill="#AAD5CE"/>
<path d="M197.83 82.1367V94.8186C197.83 94.8186 152.486 94.8186 150.532 94.8186C148.578 94.8186 147.411 94.2655 147.411 92.0979C147.411 89.5996 147.411 86.1669 147.411 84.7875C147.411 82.6198 148.737 82.1367 149.955 82.1367C151.166 82.1367 197.83 82.1367 197.83 82.1367Z" fill="#D4336E"/>
<path d="M232.93 82.1367H197.398V94.8186H232.93V82.1367Z" fill="#F2AC30"/>
<path d="M233.038 110.921C232.061 108.804 231.82 106.286 230.603 105.314C229.385 104.335 228.655 103.445 227.114 104.259C225.573 105.072 223.626 104.093 222.649 102.472C220.867 103.286 220.055 102.555 220.055 102.555C218.272 103.534 216.16 103.934 214.295 100.686C212.431 97.4313 214.942 91.2525 217.619 96.9482C217.784 93.5854 219.731 91.5258 221.025 92.1806C222.325 92.829 222.243 94.2656 222.243 94.2656C222.7 91.7483 225.782 90.7694 226.22 94.6724C227.52 92.8862 228.167 93.3693 229.708 95.7277C231.25 98.0861 230.653 98.3848 233.577 98.1369C234.928 97.2724 240.688 96.1027 242.394 97.4885C244.1 98.868 246.098 101.989 248.128 104.023C245.451 109.903 237.041 113.196 233.038 110.921Z" fill="#FF7E7D"/>
<path d="M160.173 95.5179C158.993 93.0578 155.955 91.9772 155.467 95.1238C154.978 98.2704 158.308 105.149 163.021 103.381C167.765 104.398 169.161 105.435 170.632 105.136C172.104 104.843 179.69 106.229 180.964 100.826C177.533 100.921 176.455 100.432 176.455 100.432C174.59 97.9717 172.237 95.3209 171.254 95.5179C170.271 95.715 170.467 97.0881 170.467 97.0881C169.389 93.649 168.311 92.4667 167.131 92.4667C165.958 92.4667 165.171 94.4309 165.171 94.4309C164.194 91.2906 161.156 89.1293 160.173 95.5179Z" fill="#FF7E7D"/>
<path d="M170.74 105.32C169.998 105.32 169.364 105.168 168.729 105.015C168.558 104.977 168.387 104.932 168.209 104.894C167.74 104.793 167.232 104.735 166.693 104.678C165.349 104.532 163.826 104.367 162.596 103.369C160.224 101.442 159.957 97.1516 159.856 95.537C159.843 95.359 159.976 95.2128 160.154 95.2001C160.332 95.1873 160.477 95.3208 160.49 95.4988C160.585 97.0372 160.839 101.125 162.995 102.879C164.08 103.756 165.444 103.909 166.763 104.049C167.321 104.112 167.841 104.17 168.349 104.278C168.526 104.316 168.704 104.36 168.882 104.398C170.34 104.748 171.717 105.079 174.406 103.432C174.558 103.343 174.749 103.388 174.844 103.54C174.932 103.693 174.888 103.883 174.736 103.979C173.03 105.015 171.78 105.32 170.74 105.32Z" fill="black"/>
<path d="M169.687 103.699C169.649 103.699 169.617 103.693 169.579 103.68C164.143 101.697 164.632 96.7446 164.841 94.6341L164.86 94.4117C164.879 94.24 165.025 94.1065 165.203 94.1256C165.374 94.1447 165.507 94.2972 165.488 94.4689L165.469 94.6977C165.26 96.8336 164.822 101.277 169.795 103.089C169.96 103.146 170.042 103.33 169.985 103.496C169.941 103.616 169.814 103.699 169.687 103.699Z" fill="black"/>
<path d="M177.235 100.673C176.943 100.673 176.626 100.622 176.233 100.406C175.554 100.038 174.951 99.4083 174.577 98.6836C174.495 98.5247 174.558 98.334 174.717 98.2577C174.875 98.1751 175.066 98.2386 175.142 98.3976C175.453 99.0078 175.973 99.5481 176.537 99.8533C176.949 100.076 177.209 100.057 177.596 100.019C177.761 100.006 177.939 99.9868 178.142 99.9868C178.319 99.9868 178.459 100.127 178.459 100.305C178.459 100.483 178.319 100.622 178.142 100.622C177.958 100.622 177.799 100.635 177.653 100.648C177.514 100.661 177.374 100.673 177.235 100.673Z" fill="black"/>
<path d="M176.404 104.303C176.03 104.303 175.675 104.258 175.345 104.169C173.378 103.724 172.027 102.084 171.241 100.788C170.797 100.069 170.651 99.3001 170.505 98.5499C170.429 98.1431 170.353 97.7617 170.239 97.3803C170.188 97.215 170.277 97.037 170.448 96.9798C170.613 96.929 170.791 97.018 170.848 97.1896C170.975 97.6028 171.057 98.0223 171.133 98.4292C171.273 99.1475 171.4 99.8277 171.786 100.451C172.51 101.646 173.74 103.146 175.503 103.546C176.233 103.743 177.089 103.686 178.066 103.381C178.237 103.33 178.408 103.419 178.465 103.591C178.516 103.756 178.427 103.934 178.256 103.991C177.59 104.201 176.975 104.303 176.404 104.303Z" fill="black"/>
<path d="M235.512 102.803C234.681 102.803 234.091 102.593 233.672 102.32C232.816 101.754 232.404 100.699 232.569 99.4973C232.911 97.0245 236.051 96.8719 239.089 96.732L239.685 96.7066C239.876 96.6939 240.009 96.8338 240.015 97.0054C240.021 97.1834 239.888 97.3296 239.717 97.3359L239.121 97.3614C236.216 97.5012 233.469 97.6283 233.203 99.5799C233.14 100.038 233.095 101.169 234.028 101.786C234.82 102.307 236.863 102.746 241.645 99.8342C241.797 99.7452 241.988 99.7897 242.083 99.9422C242.172 100.095 242.127 100.286 241.975 100.381C238.943 102.218 236.894 102.803 235.512 102.803Z" fill="black"/>
<path d="M229.924 104.062C229.689 104.062 229.467 104.036 229.251 103.979C228.015 103.655 227.063 102.46 226.251 100.216C225.693 98.6646 225.344 95.1874 226.645 93.7953C226.765 93.6681 226.968 93.6618 227.095 93.7825C227.222 93.9033 227.228 94.1004 227.108 94.2339C226.093 95.3209 226.283 98.4294 226.848 100.006C227.564 102.008 228.408 103.108 229.41 103.369C230.444 103.636 231.731 103.076 233.355 101.659C233.488 101.544 233.685 101.557 233.806 101.69C233.92 101.824 233.907 102.021 233.774 102.142C232.29 103.426 231.021 104.062 229.924 104.062Z" fill="black"/>
<path d="M225.383 104.64C224.799 104.64 224.273 104.462 223.797 104.112C221.317 102.275 221.285 95.8864 222.04 93.7442C222.097 93.5789 222.281 93.4963 222.446 93.5471C222.611 93.6043 222.7 93.7887 222.642 93.954C221.97 95.8547 222.002 101.989 224.177 103.604C225.141 104.316 226.454 104.068 228.072 102.866C228.211 102.765 228.414 102.79 228.516 102.93C228.624 103.07 228.592 103.267 228.452 103.375C227.304 104.214 226.283 104.64 225.383 104.64Z" fill="black"/>
<path d="M220.936 102.987C220.48 102.987 220.048 102.873 219.642 102.638C217.759 101.538 217.143 98.1052 217.143 96.6113C217.143 96.4333 217.283 96.2935 217.46 96.2935C217.638 96.2935 217.778 96.4333 217.778 96.6113C217.778 97.9272 218.329 101.137 219.959 102.091C220.67 102.504 221.52 102.428 222.497 101.868C222.649 101.779 222.839 101.83 222.928 101.989C223.017 102.142 222.96 102.339 222.807 102.421C222.148 102.796 221.52 102.987 220.936 102.987Z" fill="black"/>
<path d="M265.545 115.516C265.481 115.516 265.418 115.497 265.361 115.459C265.12 115.294 264.454 114.938 263.617 114.493C261.46 113.349 257.851 111.442 254.845 109.236C253.157 108.003 251.927 106.967 250.937 106.134C249.548 104.964 248.705 104.259 248.045 104.246C247.868 104.246 247.728 104.1 247.734 103.922C247.734 103.744 247.88 103.629 248.058 103.61C248.946 103.623 249.802 104.341 251.35 105.644C252.333 106.471 253.557 107.5 255.225 108.721C258.194 110.895 261.777 112.796 263.921 113.927C264.847 114.417 265.462 114.741 265.735 114.932C265.881 115.033 265.913 115.23 265.817 115.377C265.748 115.466 265.646 115.516 265.545 115.516Z" fill="black"/>
<path d="M263.788 114.41C263.769 114.41 263.743 114.41 263.724 114.404C263.553 114.372 263.439 114.2 263.477 114.029C264.46 109.02 269.23 93.8523 271.266 87.381C271.767 85.7918 272.122 84.6667 272.242 84.2471C272.293 84.0818 272.471 83.9801 272.636 84.031C272.807 84.0818 272.902 84.2598 272.851 84.4251C272.725 84.8447 272.369 85.9762 271.868 87.5717C269.839 94.0366 265.075 109.179 264.098 114.156C264.067 114.302 263.934 114.41 263.788 114.41Z" fill="black"/>
<path d="M201.204 16.5088C199.46 20.7616 199.752 27.0739 200.678 27.6333C203.76 29.5022 207.572 28.7457 214.6 26.2539C221.628 23.762 228.877 15.9558 228.877 15.9558C229.309 22.0266 231.586 24.0862 232.88 26.1458C234.18 28.2054 236.127 26.3619 237.859 27.7731C239.59 29.1844 241.69 33.2082 242.559 33.5324C243.428 33.8566 244.677 31.244 244.024 27.6651C246.079 26.2539 248.667 27.112 249.536 27.6587C250.62 20.7234 247.81 10.9721 242.4 6.52863C236.99 2.08521 226.607 -2.03402 217.632 1.10626C208.65 4.24653 203.69 10.4381 201.204 16.5088Z" fill="#151748"/>
<path d="M221.704 48.0323C220.771 48.0323 220.137 47.8479 219.699 47.4729C218.881 46.7736 218.9 45.5595 218.926 43.8876C218.932 43.5889 218.932 43.2774 218.932 42.9468C218.932 39.8955 217.987 38.1856 216.04 37.7279C215.868 37.6897 215.761 37.5181 215.805 37.3465C215.843 37.1748 216.014 37.0731 216.185 37.1113C218.431 37.6389 219.566 39.6031 219.566 42.9468C219.566 43.2774 219.56 43.5952 219.56 43.894C219.541 45.3942 219.522 46.4812 220.112 46.9834C220.651 47.4475 221.805 47.511 223.74 47.1805C223.911 47.155 224.076 47.2695 224.108 47.4411C224.139 47.6127 224.019 47.778 223.848 47.8098C222.998 47.9624 222.294 48.0323 221.704 48.0323Z" fill="black"/>
<path d="M225.389 51.0582C224.501 51.0582 223.765 50.8611 223.372 50.7276C223.207 50.6704 223.118 50.4924 223.169 50.3271C223.226 50.1618 223.403 50.0728 223.568 50.1237C224.209 50.3398 225.877 50.753 227.469 49.9394C228.687 49.3164 229.588 48.1086 230.146 46.3414C230.197 46.1761 230.374 46.0808 230.545 46.1316C230.71 46.1825 230.805 46.3605 230.755 46.5321C230.146 48.4646 229.137 49.7995 227.767 50.5051C226.943 50.9247 226.118 51.0582 225.389 51.0582Z" fill="black"/>
<path d="M236.558 57.7965C236.457 57.7965 236.356 57.7457 236.298 57.6567C236.197 57.5105 236.235 57.3134 236.381 57.218L236.812 56.9256C240.231 54.6181 245.958 50.7531 244.734 39.5715C244.715 39.3999 244.842 39.2409 245.013 39.2219C245.185 39.2028 245.343 39.3299 245.362 39.5016C246.624 51.0646 240.472 55.222 237.161 57.4532L236.73 57.7457C236.679 57.7774 236.616 57.7965 236.558 57.7965Z" fill="black"/>
<path d="M227.216 36.6982C226.328 37.531 228.11 40.3598 229.651 39.5461C231.192 38.7324 228.433 35.5604 227.216 36.6982Z" fill="black"/>
<path d="M213.889 39.9402C213.001 40.7729 214.784 43.6017 216.325 42.788C217.86 41.9743 215.107 38.8023 213.889 39.9402Z" fill="black"/>
<path d="M220.867 34.0981C217.188 31.7016 221.907 29.5021 226.207 30.2332C230.508 30.9642 230.945 33.2717 229.163 33.1128C227.381 32.9475 224.539 32.7886 223.404 33.437C222.262 34.0854 221.685 34.6321 220.867 34.0981Z" fill="#151748"/>
<path d="M208.498 39.7111C209.259 38.8911 211.08 36.1895 213.414 36.7997C215.279 37.2892 212.767 33.8311 210.103 34.1553C208.847 34.3078 207.559 35.611 207.122 37.5943C206.881 38.6877 208.282 39.94 208.498 39.7111Z" fill="#151748"/>
<path d="M245.901 67.5286C241.74 67.5286 237.599 65.9585 235.36 61.9664C235.277 61.8138 235.328 61.6168 235.48 61.5341C235.632 61.4515 235.823 61.5024 235.911 61.6549C239.026 67.2171 246.123 67.7893 251.407 65.9648C256.354 64.2549 261.739 59.7288 260.635 52.5901C260.61 52.4185 260.724 52.2532 260.902 52.2277C261.073 52.2023 261.238 52.3231 261.263 52.4947C262.424 60.0149 256.792 64.7761 251.616 66.5624C249.84 67.179 247.867 67.5286 245.901 67.5286Z" fill="black"/>
<path d="M195.775 112.974C195.698 112.974 195.622 112.948 195.565 112.897C195.381 112.732 190.986 108.848 190.111 107.64C190.009 107.5 190.041 107.297 190.18 107.195C190.32 107.094 190.523 107.125 190.624 107.265C191.462 108.416 195.939 112.376 195.984 112.414C196.117 112.529 196.13 112.732 196.009 112.866C195.952 112.936 195.863 112.974 195.775 112.974Z" fill="black"/>
<path d="M242.292 125.471C242.222 125.471 242.146 125.446 242.089 125.401C240.224 123.857 233.749 114.143 232.74 111.029C232.689 110.863 232.778 110.685 232.943 110.628C233.108 110.577 233.286 110.666 233.343 110.831C234.3 113.794 240.719 123.443 242.489 124.912C242.622 125.026 242.641 125.223 242.533 125.357C242.47 125.427 242.381 125.471 242.292 125.471Z" fill="black"/>
<path d="M282.835 240.587V132.235C282.835 124.333 276.441 117.926 268.557 117.926H129.017C121.133 117.926 114.74 124.333 114.74 132.235V240.593H282.835V240.587Z" fill="#F1E0D9"/>
<path d="M248.654 208.173C248.654 216.99 241.525 224.135 232.727 224.135C223.93 224.135 216.801 216.99 216.801 208.173C216.801 199.357 223.93 192.211 232.727 192.211C241.525 192.211 248.654 199.357 248.654 208.173Z" fill="#54478D"/>
<path d="M241.95 208.173C241.95 213.278 237.821 217.41 232.734 217.41C227.641 217.41 223.511 213.272 223.511 208.173C223.511 203.069 227.641 198.937 232.734 198.937C237.821 198.937 241.95 203.069 241.95 208.173Z" fill="#7967CC"/>
<path d="M204.242 219.317C204.242 222.552 201.629 225.172 198.401 225.172H144.487C141.259 225.172 138.646 222.552 138.646 219.317V197.602C138.646 194.366 141.259 191.747 144.487 191.747H198.401C201.629 191.747 204.242 194.366 204.242 197.602V219.317Z" fill="#AAD5CE"/>
<path d="M150.475 198.791C150.475 200.392 149.181 201.696 147.576 201.696C145.978 201.696 144.678 200.399 144.678 198.791C144.678 197.189 145.972 195.885 147.576 195.885C149.181 195.885 150.475 197.182 150.475 198.791Z" fill="#F1EFEF"/>
<path d="M181.243 199.738C181.243 200.818 180.374 201.689 179.296 201.689H156.779C155.701 201.689 154.832 200.818 154.832 199.738V197.831C154.832 196.75 155.701 195.879 156.779 195.879H179.296C180.374 195.879 181.243 196.75 181.243 197.831V199.738Z" fill="#F1EFEF"/>
<path d="M150.475 208.745C150.475 210.347 149.181 211.65 147.576 211.65C145.978 211.65 144.678 210.354 144.678 208.745C144.678 207.143 145.972 205.84 147.576 205.84C149.181 205.84 150.475 207.143 150.475 208.745Z" fill="#54478D"/>
<path d="M186.755 209.699C186.755 210.78 185.886 211.65 184.808 211.65H156.779C155.701 211.65 154.832 210.78 154.832 209.699V207.792C154.832 206.711 155.701 205.84 156.779 205.84H184.808C185.886 205.84 186.755 206.711 186.755 207.792V209.699Z" fill="#54478D"/>
<path d="M150.475 218.707C150.475 220.308 149.181 221.612 147.576 221.612C145.978 221.612 144.678 220.315 144.678 218.707C144.678 217.105 145.972 215.802 147.576 215.802C149.181 215.802 150.475 217.098 150.475 218.707Z" fill="#151748"/>
<path d="M196.282 219.654C196.282 220.734 195.413 221.605 194.335 221.605H156.779C155.701 221.605 154.832 220.728 154.832 219.654V217.753C154.832 216.672 155.701 215.802 156.779 215.802H194.335C195.413 215.802 196.282 216.672 196.282 217.753V219.654Z" fill="#151748"/>
<path d="M213.224 165.665H176.277L172.7 171.87C170.042 176.478 172.218 180.254 177.533 180.254H211.961C217.277 180.254 219.452 176.478 216.795 171.87L213.224 165.665Z" fill="#151748"/>
<path d="M175.821 166.46H213.68L208.441 157.357H181.06L175.821 166.46Z" fill="#54478D"/>
<path d="M180.4 158.508H209.101L202.492 147.04H187.009L180.4 158.508Z" fill="#AAD5CE"/>
<path d="M203.633 149.023L199.58 141.986C196.923 137.371 192.578 137.371 189.92 141.986L185.867 149.023H203.633Z" fill="#F1EFEF"/>
<path d="M297.943 120.03C296.484 114.499 297.239 107.996 309.569 102.25C321.9 96.503 345.698 98.9949 350.239 117.97C354.78 136.939 349.808 146.588 358.998 158.514C368.195 170.439 385.175 184.316 370.466 200.685C345.152 218.573 304.159 197.977 300.48 188.003C296.802 178.029 302.643 162.093 311.079 148.762C319.521 135.42 299.51 128.592 297.943 120.03Z" fill="#151748"/>
<path d="M319.521 162.468C319.356 160.351 318.874 154.827 318.874 154.827C306.867 157.751 298.92 148.159 299.243 138.242C299.567 128.325 299.567 127.671 297.949 120.03C296.326 112.389 310.768 103.12 324.881 104.417C339 105.72 337.103 112.929 334.997 126.749C334.674 130.487 336.78 136.233 336.78 136.233C337.268 144.421 337.052 162.303 337.052 162.303C337.052 162.303 327.469 167.833 319.521 162.468Z" fill="#FF7E7D"/>
<path d="M312.76 167.89C315.95 167.509 319.737 166.911 319.737 166.911C319.737 166.911 319.248 162.303 319.141 161.546C319.033 160.79 319.521 160.682 320.599 161.006C321.684 161.33 328.927 162.792 335.797 159.919C337.579 159.321 337.585 159.429 337.852 161.597C338.118 163.765 338.556 165.716 338.556 165.716C338.556 165.716 340.611 166.803 346.18 167.286C339.367 175.423 319.141 181.551 312.76 167.89Z" fill="#DCD8F0"/>
<path d="M337.046 132.82C339.317 130.436 344.619 128.917 346.459 133.9C348.298 138.884 340.725 145.826 335.537 140.511C336.729 136.92 337.046 132.82 337.046 132.82Z" fill="#FF7E7D"/>
<path d="M298.216 121.11C300.271 116.775 311.954 110.38 317.796 109.617C320.282 124.467 324.018 133.252 332.131 131.408C333.97 139.322 334.566 139.214 335.752 138.782C336.945 138.35 337.592 134.065 337.915 131.898C341.594 129.19 343.541 125.013 343.11 118.834C342.679 112.656 337.484 99.4271 320.289 102.574C303.081 105.72 295.723 111.899 298.216 121.11Z" fill="#151748"/>
<path d="M310.597 140.778C310.591 140.778 310.584 140.778 310.578 140.778C308.434 140.664 307.229 140.232 306.677 139.393C306.239 138.725 306.239 137.835 306.671 136.666C306.855 136.176 307.032 135.75 307.203 135.35C307.977 133.519 308.44 132.413 307.324 129.355C305.865 125.357 302.294 125.096 300.823 125.172C300.62 125.185 300.499 125.045 300.493 124.874C300.487 124.696 300.62 124.549 300.791 124.543C302.402 124.46 306.309 124.746 307.92 129.139C309.125 132.432 308.593 133.697 307.793 135.604C307.628 135.998 307.451 136.418 307.273 136.894C306.912 137.861 306.893 138.566 307.216 139.049C307.641 139.698 308.719 140.047 310.622 140.149C310.8 140.155 310.933 140.308 310.92 140.486C310.908 140.651 310.762 140.778 310.597 140.778Z" fill="black"/>
<path d="M320.739 128.154C320.676 128.154 320.612 128.135 320.561 128.096C315.995 124.931 314.403 125.751 313.521 126.819C313.407 126.952 313.21 126.971 313.077 126.863C312.944 126.755 312.925 126.552 313.033 126.418C314.593 124.518 317.022 124.88 320.923 127.582C321.069 127.683 321.101 127.88 321.005 128.027C320.936 128.103 320.841 128.154 320.739 128.154Z" fill="black"/>
<path d="M311.288 144.332C310.426 144.332 309.563 144.039 308.593 143.569C308.434 143.493 308.371 143.302 308.447 143.143C308.523 142.984 308.713 142.921 308.872 142.997C310.939 144.001 312.538 144.389 315.722 140.874C315.842 140.747 316.039 140.734 316.172 140.855C316.299 140.975 316.312 141.172 316.191 141.306C314.193 143.505 312.741 144.332 311.288 144.332Z" fill="black"/>
<path d="M318.874 155.145C318.741 155.145 318.62 155.062 318.576 154.929C318.519 154.763 318.608 154.585 318.779 154.528C320.01 154.115 330.919 150.275 334.078 142.272C334.141 142.107 334.331 142.031 334.49 142.094C334.655 142.158 334.731 142.342 334.668 142.507C331.401 150.778 320.238 154.712 318.976 155.132C318.938 155.138 318.906 155.145 318.874 155.145Z" fill="black"/>
<path d="M318.303 132.832C317.257 132.959 317.98 136.004 319.477 135.718C320.98 135.439 319.642 132.673 318.303 132.832Z" fill="black"/>
<path d="M318.018 133.443C318.018 133.443 317.2 132.464 316.794 131.93C316.686 131.79 316.711 131.593 316.851 131.485C316.99 131.377 317.187 131.402 317.295 131.542C317.695 132.069 318.506 133.036 318.506 133.036L318.018 133.443Z" fill="black"/>
<path d="M303.658 130.76C302.611 130.887 303.334 133.932 304.838 133.646C306.341 133.36 304.996 130.595 303.658 130.76Z" fill="black"/>
<path d="M303.379 131.37C303.379 131.37 302.561 130.391 302.155 129.857C302.047 129.718 302.072 129.52 302.212 129.412C302.351 129.304 302.548 129.33 302.656 129.47C303.062 129.997 303.867 130.963 303.867 130.963L303.379 131.37Z" fill="black"/>
<path d="M251.159 190.114C250.779 188.702 250.132 186.484 250.132 186.484C248.673 187.297 247.265 186.973 246.561 186.376C243.909 187.132 241.962 186.757 240.123 184.259C237.307 185.937 232.873 183.661 232.442 181.659C232.011 179.65 236.121 180.953 238.55 181.983C237.738 177.864 238.658 176.891 239.362 177.05C240.066 177.216 241.417 177.266 243.199 181.278C242.711 176.618 244.55 177.05 245.685 178.296C246.821 179.542 248.172 182.74 248.172 182.74L249.58 182.358C248.819 180.025 248.552 177.807 249.58 177.374C250.607 176.942 252.015 177.101 253.849 181.767C257.255 181.061 260.883 179.434 262.234 181.17C263.585 182.905 264.993 187.132 264.993 187.132C264.993 187.132 262.95 195.32 251.159 190.114Z" fill="#FF7E7D"/>
<path d="M313.572 167.725C309.785 168.481 304.159 167.184 299.725 168.92C295.292 170.655 291.613 175.747 286.418 188.213C281.224 200.679 276.467 209.464 276.467 209.464C273.549 202.853 266.407 188.543 265.652 187.024C264.898 185.505 264.352 188.219 260.35 189.516C256.348 190.819 251.591 190.272 250.722 189.624C249.859 188.976 250.722 192.44 253.1 198.733C255.479 205.02 260.997 222.26 264.783 228.655C268.57 235.05 279.93 241.337 288.15 230.066C296.37 218.789 301.235 205.135 301.235 205.135L308.155 240.148H357.045L357.476 211.206C357.476 211.206 369.375 234.51 366.343 240.148C373.593 240.148 386.247 240.364 386.247 240.364C386.247 240.364 387.782 234.694 385.289 227.829C382.371 219.787 378.68 209.813 376.403 204.372C372.185 194.29 366.882 180.629 363.749 176.726C360.609 172.823 358.649 169.746 346.008 167.076C344.981 166.86 344.765 167.725 341.029 169.626C337.3 171.526 323.771 174.914 316.204 169.95C314.929 169.098 314.219 167.674 313.572 167.725Z" fill="#5FB0A2"/>
<path d="M326.986 169.327C326.986 170.058 326.523 170.655 325.959 170.655C325.394 170.655 324.931 170.058 324.931 169.327C324.931 168.596 325.388 167.998 325.959 167.998C326.523 167.998 326.986 168.596 326.986 169.327Z" fill="#151748"/>
<path d="M321.836 169.34C321.056 169.34 320.282 168.596 319.458 167.064C319.375 166.911 319.432 166.714 319.585 166.632C319.737 166.549 319.933 166.606 320.016 166.759C320.936 168.475 321.576 168.697 321.862 168.697C322.363 168.672 322.762 167.966 323.016 167.382C323.815 165.506 325.046 162.506 325.058 162.481C325.128 162.315 325.312 162.239 325.471 162.309C325.636 162.372 325.712 162.563 325.642 162.722C325.629 162.754 324.399 165.761 323.6 167.636C323.13 168.736 322.553 169.308 321.887 169.34C321.868 169.34 321.855 169.34 321.836 169.34Z" fill="black"/>
<path d="M331.135 169.956C331.008 169.956 330.875 169.95 330.748 169.943C328.217 169.746 327.405 166.898 326.695 164.381C326.549 163.86 326.403 163.358 326.251 162.9C326.194 162.735 326.282 162.557 326.454 162.499C326.619 162.442 326.796 162.531 326.853 162.703C327.012 163.173 327.151 163.682 327.304 164.209C327.957 166.53 328.705 169.155 330.798 169.314C333.621 169.53 336.659 166.994 337.997 165.462C338.112 165.328 338.315 165.316 338.448 165.43C338.581 165.544 338.594 165.748 338.479 165.881C337.109 167.432 334.09 169.956 331.135 169.956Z" fill="black"/>
<path d="M301.59 206.857C301.444 206.857 301.311 206.756 301.28 206.609C300.867 204.721 300.449 202.91 300.068 201.244C299.294 197.882 298.679 195.231 298.514 193.648C298.495 193.47 298.622 193.317 298.8 193.298C298.971 193.279 299.129 193.406 299.148 193.584C299.307 195.129 299.948 197.901 300.69 201.104C301.077 202.77 301.495 204.588 301.907 206.476C301.945 206.648 301.838 206.819 301.666 206.851C301.635 206.851 301.616 206.857 301.59 206.857Z" fill="black"/>
<path d="M358.377 213.685C358.25 213.685 358.129 213.609 358.078 213.475C356.683 209.674 353.677 204.08 351.691 200.374C351.279 199.604 350.917 198.931 350.632 198.39C350.55 198.231 350.607 198.041 350.765 197.958C350.924 197.875 351.114 197.933 351.197 198.092C351.482 198.632 351.844 199.306 352.256 200.075C354.254 203.794 357.267 209.413 358.681 213.253C358.744 213.418 358.656 213.602 358.491 213.659C358.453 213.679 358.415 213.685 358.377 213.685Z" fill="black"/>
<path d="M241.531 186.255C241.455 186.255 241.379 186.23 241.315 186.172C239.939 184.907 238.461 182.155 238.144 180.922C238.1 180.75 238.201 180.578 238.372 180.534C238.544 180.483 238.715 180.591 238.759 180.763C239.057 181.894 240.472 184.526 241.747 185.702C241.874 185.823 241.886 186.02 241.766 186.153C241.702 186.223 241.62 186.255 241.531 186.255Z" fill="black"/>
<path d="M246.941 186.91C246.89 186.91 246.84 186.897 246.795 186.872C244.106 185.467 243.161 182.339 242.704 180.833L242.635 180.61C242.584 180.445 242.679 180.267 242.844 180.216C243.009 180.165 243.186 180.261 243.237 180.426L243.307 180.648C243.738 182.072 244.632 185.028 247.081 186.306C247.239 186.389 247.296 186.579 247.214 186.732C247.163 186.846 247.055 186.91 246.941 186.91Z" fill="black"/>
<path d="M253.893 186.395C253.259 186.395 252.669 186.268 252.13 186.007C250.842 185.391 249.916 184.1 249.288 182.079C249.237 181.913 249.332 181.735 249.497 181.678C249.669 181.627 249.84 181.723 249.897 181.888C250.468 183.738 251.292 184.895 252.409 185.435C253.385 185.906 254.578 185.867 255.967 185.321C256.126 185.257 256.316 185.34 256.379 185.499C256.443 185.664 256.36 185.848 256.202 185.912C255.377 186.236 254.603 186.395 253.893 186.395Z" fill="black"/>
<path d="M254.565 183.604C254.451 183.604 254.337 183.541 254.28 183.426C254.255 183.375 253.671 182.206 253.24 181.011C253.183 180.845 253.265 180.661 253.43 180.604C253.595 180.547 253.779 180.629 253.836 180.794C254.261 181.958 254.844 183.134 254.851 183.146C254.927 183.305 254.863 183.496 254.711 183.572C254.66 183.591 254.616 183.604 254.565 183.604Z" fill="black"/>
<path d="M249.478 187.018C249.333 187.018 249.199 186.916 249.168 186.763C249.136 186.592 249.244 186.427 249.415 186.388C250.018 186.268 251.077 185.46 251.438 185.155C251.572 185.041 251.774 185.06 251.882 185.193C251.996 185.327 251.977 185.53 251.844 185.638C251.698 185.759 250.404 186.833 249.536 187.005C249.523 187.018 249.504 187.018 249.478 187.018Z" fill="black"/>
<path d="M147.646 155.805C159.595 155.805 169.281 146.097 169.281 134.122C169.281 122.147 159.595 112.439 147.646 112.439C135.697 112.439 126.011 122.147 126.011 134.122C126.011 146.097 135.697 155.805 147.646 155.805Z" fill="#AAD5CE"/>
<path d="M166.034 122.7C162.215 116.54 155.409 112.433 147.646 112.433V134.116C147.646 134.123 159.913 127.474 166.034 122.7Z" fill="#5FB0A2"/>
<path d="M147.646 134.123L169.021 137.492C169.192 136.392 169.281 135.267 169.281 134.123C169.281 129.59 167.892 125.389 165.52 121.905C159.304 126.19 147.646 134.123 147.646 134.123Z" fill="#151748"/>
<path d="M66.6367 104.9C64.772 100.304 57.3129 91.6591 45.915 96.6238C34.5172 101.588 34.0034 111.06 30.0646 123.195C26.1257 135.331 19.7005 148.019 17.7343 154.267C15.7681 160.516 16.8019 170.63 26.6458 168.793C26.2336 176.885 38.3735 178.309 43.5873 175.226C52.4417 169.988 50.5643 160.51 50.5643 160.51C54.8139 162.258 66.8016 158.101 62.7423 145.737C56.8753 127.868 54.9154 108.479 64.0933 108.479C70.1569 103.928 66.6367 104.9 66.6367 104.9Z" fill="#151748"/>
<path d="M69.6304 105.479C68.0448 103.75 65.6662 102.421 63.6873 105.384C61.9621 107.964 61.2136 111.13 64.5816 111.81C66.7889 112.262 70.4233 108.568 69.6304 105.479Z" fill="#5FB0A2"/>
<path d="M72.1296 158.851C72.5609 156.899 73.9817 146.805 73.9817 146.805L79.3921 138.782C73.468 132.553 82.3097 122.63 87.0731 130.76C89.236 130.22 88.8047 113.304 92.1536 110.812C95.5089 108.32 105.569 109.077 105.569 109.077C108.271 112.332 109.139 116.991 108.486 122.191C107.839 127.397 106.862 128.91 109.349 131.408C111.835 133.9 113.998 135.744 110.104 138.566C107.725 140.194 107.617 140.842 107.186 143.881C106.755 146.919 106.431 150.384 101.344 151.687C96.2637 152.99 92.1473 152.659 90.9612 152.443C90.2064 152.335 89.014 158.082 88.4748 161.114C87.9357 164.152 72.1296 158.851 72.1296 158.851Z" fill="#FF7E7D"/>
<path d="M132.068 171.412C135.208 167.941 137.263 164.038 141.697 163.39C146.13 162.741 149.162 162.525 151.433 161.87C153.703 161.222 154.135 160.351 155.435 161.87C156.082 157.427 158.245 155.583 159.006 158.616C160.63 155.469 162.9 155.799 162.361 158.507C164.848 156.124 166.795 156.664 166.04 159.156C165.285 161.648 163.446 166.307 160.091 167.719C156.735 169.13 149.276 167.394 146.137 170.865C142.997 174.336 139.648 179.104 139.648 179.104L132.068 171.412Z" fill="#FF7E7D"/>
<path d="M148.344 167.096C148.185 167.096 148.046 166.975 148.027 166.81C148.008 166.632 148.134 166.479 148.306 166.46C150.741 166.199 154.363 165.03 154.965 164.083C155.625 163.053 155.6 162.271 154.883 161.75C154.743 161.648 154.712 161.451 154.813 161.305C154.915 161.165 155.111 161.133 155.257 161.235C155.841 161.661 156.646 162.64 155.498 164.426C154.642 165.767 150.399 166.873 148.369 167.089C148.369 167.096 148.356 167.096 148.344 167.096Z" fill="black"/>
<path d="M155.213 164.795C155.035 164.795 154.896 164.655 154.896 164.477C154.896 164.299 155.035 164.159 155.213 164.159C156.507 164.159 157.89 163.924 159.234 162.22C159.843 161.451 160.338 160.758 160.775 160.148C161.378 159.302 161.86 158.635 162.348 158.171C162.475 158.05 162.678 158.056 162.799 158.183C162.919 158.311 162.913 158.514 162.786 158.635C162.342 159.054 161.879 159.696 161.296 160.516C160.858 161.133 160.357 161.832 159.735 162.614C158.213 164.534 156.596 164.795 155.213 164.795Z" fill="black"/>
<path d="M156.78 164.362C156.716 164.362 156.653 164.343 156.602 164.305C156.456 164.203 156.418 164.006 156.52 163.86C156.716 163.567 156.995 162.792 157.293 161.972C157.833 160.459 158.505 158.577 159.361 157.649C159.482 157.522 159.678 157.509 159.812 157.63C159.938 157.751 159.951 157.948 159.831 158.082C159.063 158.914 158.416 160.732 157.89 162.188C157.553 163.122 157.293 163.866 157.046 164.222C156.983 164.311 156.881 164.362 156.78 164.362Z" fill="black"/>
<path d="M124.007 172.391C125.713 170.439 127.495 167.515 129.683 169.384C131.872 171.253 138.202 175.48 139.661 176.618C141.119 177.756 142.908 178.404 141.119 180.928C139.337 183.445 122.542 205.402 115.159 212.636C107.776 219.87 101.287 221.256 90.9041 209.464C88.8744 213.856 82.1448 216.456 81.0094 221.09C79.8741 225.724 80.1468 240.142 80.1468 240.142L40.3398 239.926C40.3398 239.926 47.9448 209.826 51.3572 200.965C54.7632 192.103 56.2728 183.801 63.7255 171.247C66.8588 165.97 69.5544 164.171 71.1782 157.42C71.4192 155.958 71.527 154.623 73.5567 155.196C75.5864 155.768 87.5868 159.137 88.8046 159.785C90.0224 160.434 88.3987 163.364 86.6925 169.784C91.9633 174.012 98.2933 182.873 101.458 187.024C104.623 191.169 107.623 193.775 110.383 190.686C113.135 187.59 124.007 172.391 124.007 172.391Z" fill="#F2AC30"/>
<path d="M91.3164 210.106C91.2339 210.106 91.1514 210.074 91.088 210.011C87.6122 206.444 75.8338 193.502 74.1085 191.283C74.0007 191.144 74.0261 190.946 74.1656 190.838C74.3052 190.73 74.5018 190.756 74.6096 190.896C76.3285 193.108 88.0689 206.012 91.5447 209.572C91.6652 209.699 91.6652 209.896 91.5384 210.023C91.4749 210.081 91.3925 210.106 91.3164 210.106Z" fill="black"/>
<path d="M87.4218 170.757C87.3457 170.757 87.2759 170.732 87.2125 170.681C84.6881 168.481 81.1615 167.585 80.1213 167.585C79.9437 167.585 79.8042 167.445 79.8042 167.267C79.8042 167.089 79.9437 166.949 80.1213 166.949C81.4026 166.949 85.0306 167.928 87.6311 170.198C87.7643 170.312 87.777 170.516 87.6628 170.649C87.5994 170.719 87.5106 170.757 87.4218 170.757Z" fill="black"/>
<path d="M74.1147 147.021C75.6306 146.913 77.1148 145.177 79.3919 138.782C77.229 135.419 77.876 131.3 80.7999 129.024C83.7176 126.749 85.7726 129.133 87.2886 131.841C88.8045 134.549 89.7749 134.879 91.0752 134.116C92.3754 133.36 96.1176 127.855 91.7919 116.254C91.0879 114.194 92.5847 112.217 96.0479 112.541C99.511 112.865 103.298 112.865 106.215 110.049C107.078 108.746 105.188 105.205 98.4518 102.186C93.2824 99.872 76.766 97.2975 67.3851 107.119C60.9092 113.902 59.8626 120.182 60.0656 124.492C60.3764 131.338 65.6789 142.126 74.1147 147.021Z" fill="#151748"/>
<path d="M82.7917 140.594C80.8635 140.594 79.2842 139.609 78.3455 137.733C78.2694 137.574 78.3328 137.384 78.485 137.307C78.6436 137.231 78.8339 137.295 78.91 137.447C80.1024 139.837 82.5 140.569 85.3225 139.412C85.4811 139.348 85.6713 139.424 85.7348 139.583C85.7982 139.748 85.7221 139.933 85.5635 139.996C84.5867 140.397 83.6543 140.594 82.7917 140.594Z" fill="black"/>
<path d="M107.186 144.198C107.173 144.198 107.16 144.198 107.141 144.198C105.448 143.976 103.932 141.878 103.183 139.901C103.12 139.736 103.203 139.552 103.367 139.494C103.532 139.431 103.716 139.513 103.78 139.679C104.439 141.42 105.803 143.378 107.23 143.569C107.401 143.594 107.528 143.753 107.503 143.925C107.484 144.078 107.344 144.198 107.186 144.198Z" fill="black"/>
<path d="M91.6398 152.952C91.6271 152.952 91.6144 152.952 91.6017 152.952C89.3437 152.691 86.2231 150.994 85.1131 150.123C84.9736 150.015 84.9546 149.811 85.0624 149.678C85.1702 149.538 85.3668 149.519 85.5064 149.627C86.5339 150.441 89.5657 152.081 91.6715 152.329C91.8428 152.348 91.9696 152.507 91.9506 152.678C91.9379 152.831 91.7984 152.952 91.6398 152.952Z" fill="black"/>
<path d="M100.158 122.947C100.069 122.947 99.9804 122.909 99.917 122.839C99.8028 122.706 99.8155 122.502 99.9487 122.388C100.57 121.854 102.841 120.144 106.025 120.443C106.196 120.462 106.33 120.614 106.31 120.786C106.291 120.958 106.139 121.085 105.968 121.072C103.025 120.799 100.932 122.375 100.361 122.865C100.304 122.922 100.228 122.947 100.158 122.947Z" fill="black"/>
<path d="M102.835 128.967C102.746 128.967 102.651 128.929 102.594 128.853C102.479 128.719 102.498 128.516 102.632 128.408C103.006 128.096 103.78 127.105 104.04 126.755C104.147 126.615 104.344 126.583 104.484 126.692C104.623 126.8 104.655 126.997 104.547 127.137C104.509 127.194 103.545 128.471 103.038 128.897C102.98 128.942 102.904 128.967 102.835 128.967Z" fill="black"/>
<path d="M103.076 128.211C102.207 128.135 100.856 131.574 102.156 131.79C103.456 132.006 104.268 128.319 103.076 128.211Z" fill="black"/>
<path d="M268.919 166.924C268.919 171.234 265.43 174.73 261.13 174.73H229.759C225.458 174.73 221.97 171.234 221.97 166.924V135.051C221.97 130.741 225.458 127.245 229.759 127.245H261.13C265.43 127.245 268.919 130.741 268.919 135.051V166.924Z" fill="#F1EFEF"/>
<path d="M237.897 163.765C237.897 165.869 236.197 167.572 234.097 167.572C232.004 167.572 230.298 165.869 230.298 163.765V147.497C230.298 145.393 231.998 143.69 234.097 143.69C236.197 143.69 237.897 145.393 237.897 147.497V163.765Z" fill="#AAD5CE"/>
<path d="M248.514 163.765C248.514 165.869 246.815 167.572 244.715 167.572C242.622 167.572 240.916 165.869 240.916 163.765V141.401C240.916 139.297 242.616 137.594 244.715 137.594C246.815 137.594 248.514 139.297 248.514 141.401V163.765Z" fill="#54478D"/>
<path d="M259.126 163.764C259.126 165.869 257.426 167.572 255.326 167.572C253.227 167.572 251.527 165.869 251.527 163.764V135.871C251.527 133.773 253.227 132.063 255.326 132.063C257.419 132.063 259.126 133.767 259.126 135.871V163.764Z" fill="#151748"/>
<path d="M397.822 241H22.1804C21.8316 241 21.5461 240.714 21.5461 240.364C21.5461 240.015 21.8316 239.729 22.1804 239.729H397.822C398.171 239.729 398.456 240.015 398.456 240.364C398.456 240.714 398.171 241 397.822 241Z" fill="#151748"/>
</g>
<defs>
<clipPath id="clip0_53_1542">
<rect width="404" height="241" fill="white"/>
</clipPath>
</defs>
</svg>
