<svg width="213" height="365" viewBox="0 0 213 365" fill="none" xmlns="http://www.w3.org/2000/svg">
<g clip-path="url(#clip0_106_8)">
<path d="M102.973 151.879L82.4303 192.156L69.3767 189.067L71.35 175.641L67.2795 188.578L61.3018 187.162C61.3018 187.162 61.3018 187.162 63.0769 180.486C64.8603 173.81 67.9483 173.935 70.3262 169.76C72.6958 165.586 69.3767 162.132 74.0086 153.411C78.6323 144.69 82.3065 147.365 87.8879 143.903C93.4694 140.433 93.3538 134.908 93.3538 134.908L102.973 151.879Z" fill="#42353B"/>
<path d="M123.548 113.706C125.497 113.656 127.379 114.575 128.791 115.917C130.203 117.259 131.186 118.998 131.937 120.803C132.54 122.253 133.019 123.785 133.06 125.359C133.101 126.932 132.672 128.556 131.64 129.74C130.979 130.502 130.104 131.04 129.196 131.471C127.891 132.084 126.314 132.448 125.059 131.736C124.382 131.347 123.903 130.701 123.466 130.047C120.972 126.303 114.705 113.929 123.548 113.706Z" fill="#42353B"/>
<path d="M150.44 188.901C150.44 188.901 148.747 189.539 146.13 190.491C144.718 186.979 141.291 178.871 138.36 175.011L141.894 192.007C134.042 194.781 123.036 198.434 119.081 198.682C112.666 199.08 97.1436 119.271 97.1436 119.271C97.1436 119.271 101.577 113.788 110.288 115.213C118.999 116.654 122.557 120.538 123.664 125.143C124.77 129.757 123.119 135.795 124.539 138.644C125.959 141.501 131.351 140.474 133.563 147.539C135.776 154.612 132.3 159.374 136.494 162.944C140.689 166.522 146.072 166.356 148.45 176.925C150.836 187.476 150.44 188.901 150.44 188.901Z" fill="#42353B"/>
<path d="M116.439 116.936C116.439 116.936 122.095 117.184 124.629 124.655C127.164 132.117 124.027 136.151 126.149 140.176C128.271 144.193 130.409 146.073 130.409 146.073L123.424 141.418L121.624 133.89L116.439 116.936Z" fill="#42353B"/>
<path opacity="0.27" d="M122.153 192.164L112.782 215.305L108.761 215.09C109.157 213.441 109.719 211.826 110.247 210.211C111.849 205.358 113.261 200.438 114.491 195.477C114.846 194.069 115.135 189.887 116.39 189.356C117.703 188.793 120.658 190.417 122.062 191.328L122.153 192.164Z" fill="#6887FF"/>
<path opacity="0.27" d="M125.43 251.35C124.828 250.389 124.398 249.321 123.903 248.302C121.467 243.175 117.512 238.968 114.152 234.404C110.791 229.841 107.91 224.49 108.182 218.833C108.232 217.922 108.348 217.02 108.537 216.133C108.604 215.785 108.686 215.446 108.769 215.098L112.79 215.313C112.575 224.73 116.167 223.057 120.964 235.448C123.028 240.773 124.299 244.997 124.885 248.492C124.885 248.501 124.885 248.501 124.885 248.509C125.141 249.337 125.315 250.29 125.43 251.35Z" fill="#6887FF"/>
<path d="M119.742 364.975C119.742 364.975 119.428 365.05 118.999 364.95C118.892 364.926 118.776 364.884 118.66 364.834C118.074 364.578 117.397 363.932 117.05 362.391C116.728 360.958 116.117 358.209 115.383 355.384C115.366 355.301 115.341 355.227 115.325 355.161C114.92 353.637 114.491 352.113 114.053 350.763C114.029 350.68 114.004 350.605 113.979 350.531C113.64 349.529 113.302 348.634 112.98 347.93C112.955 347.856 112.914 347.781 112.881 347.715C112.807 347.566 112.732 347.442 112.666 347.326C112.361 346.787 112.072 346.241 111.799 345.702C111.758 345.636 111.725 345.553 111.692 345.487C110.511 343.16 109.686 341.13 109.686 341.13L113.162 331.978H113.17L113.211 331.862C113.211 331.862 113.244 331.829 113.318 331.788C113.962 331.299 117.835 328.69 123.028 331.142C123.119 331.183 123.21 331.225 123.301 331.283C123.664 331.465 124.044 331.68 124.424 331.912C124.812 332.152 125.059 332.575 125.092 333.039C125.274 335.631 125.868 344.402 125.538 347.856C125.142 351.931 124.192 365.141 119.742 364.975Z" fill="#A66CDE"/>
<path d="M122.516 360.155C121.988 361.695 121.171 363.592 119.544 364.627C119.395 364.727 119.206 364.834 118.999 364.942C118.892 364.917 118.776 364.876 118.661 364.826C118.875 364.743 119.14 364.611 119.412 364.437C120.972 363.443 121.765 361.588 122.294 360.08C122.715 358.863 123.053 357.62 123.317 356.353C123.342 356.287 123.35 356.212 123.367 356.138C124.399 351.235 124.415 346.125 124.316 341.246C124.292 339.987 124.259 338.745 124.16 337.519C124.06 336.252 123.887 334.985 123.639 333.726C123.631 333.643 123.615 333.577 123.59 333.502C123.441 332.707 123.243 331.929 123.02 331.15C123.111 331.192 123.202 331.233 123.293 331.291C123.499 332.045 123.689 332.807 123.838 333.585C124.11 334.885 124.292 336.194 124.391 337.519C124.49 338.745 124.523 340.004 124.539 341.271C124.638 346.191 124.614 351.351 123.565 356.295C123.565 356.295 123.565 356.295 123.565 356.304C123.557 356.328 123.565 356.353 123.549 356.37C123.293 357.629 122.946 358.904 122.516 360.155Z" fill="#F5D9D6"/>
<path d="M116.571 333.039C114.639 332.542 113.194 331.995 113.17 331.978C113.112 331.954 113.079 331.887 113.104 331.829C113.128 331.771 113.203 331.738 113.252 331.763C113.318 331.788 119.791 334.248 123.713 333.478C123.779 333.461 123.837 333.502 123.845 333.569C123.862 333.635 123.821 333.693 123.755 333.701C121.633 334.124 118.784 333.61 116.571 333.039Z" fill="#F5D9D6"/>
<path d="M115.325 355.384C115.284 355.376 115.242 355.335 115.242 355.285C115.234 355.219 115.275 355.161 115.341 355.152C115.383 355.144 119.428 354.655 123.499 356.179C123.557 356.204 123.59 356.27 123.565 356.328C123.54 356.386 123.474 356.42 123.416 356.395C119.395 354.904 115.407 355.376 115.366 355.384C115.358 355.384 115.341 355.384 115.325 355.384Z" fill="#F5D9D6"/>
<path d="M118.14 343.69C118.14 343.756 118.091 343.814 118.025 343.806C115.672 343.847 113.236 344.94 111.808 345.694C111.766 345.628 111.733 345.545 111.7 345.479C113.153 344.717 115.63 343.615 118.033 343.574C118.083 343.574 118.132 343.623 118.14 343.69Z" fill="#F5D9D6"/>
<path d="M119.412 345.86C119.412 345.926 119.362 345.984 119.296 345.984C116.894 346.025 114.4 347.168 112.988 347.922C112.963 347.847 112.922 347.773 112.889 347.707C114.334 346.936 116.861 345.793 119.305 345.752C119.362 345.744 119.412 345.802 119.412 345.86Z" fill="#F5D9D6"/>
<path d="M120.246 348.833C120.246 348.891 120.196 348.949 120.138 348.949C117.86 348.982 115.507 350.001 114.062 350.754C114.037 350.672 114.012 350.597 113.987 350.523C115.457 349.769 117.835 348.75 120.13 348.709C120.196 348.717 120.254 348.767 120.246 348.833Z" fill="#F5D9D6"/>
<path d="M103.443 338.612L109.685 341.122C109.685 341.122 111.774 338.712 112.493 335.291C113.211 331.871 113.211 331.871 113.211 331.871L107.638 328.947L103.443 338.612Z" fill="#FB9D89"/>
<path d="M173.087 351.069C173.087 351.069 172.798 351.218 172.361 351.227C172.245 351.227 172.13 351.218 172.006 351.202C171.37 351.102 170.553 350.638 169.834 349.239C169.166 347.93 167.894 345.421 166.474 342.878C166.433 342.803 166.4 342.737 166.358 342.671C165.582 341.296 164.798 339.929 164.03 338.737C163.98 338.662 163.947 338.596 163.898 338.53C163.32 337.643 162.775 336.857 162.28 336.26C162.23 336.194 162.18 336.128 162.131 336.07C162.015 335.946 161.916 335.846 161.825 335.747C161.396 335.3 160.975 334.844 160.579 334.397C160.521 334.339 160.463 334.273 160.422 334.223C158.704 332.26 157.4 330.512 157.4 330.512L158.49 320.781H158.498L158.506 320.656C158.506 320.656 158.531 320.623 158.589 320.557C159.093 319.919 162.189 316.424 167.828 317.493C167.927 317.509 168.026 317.534 168.125 317.559C168.521 317.642 168.943 317.758 169.372 317.882C169.81 318.014 170.156 318.37 170.305 318.809C171.122 321.269 173.888 329.618 174.425 333.047C175.069 337.097 177.439 350.125 173.087 351.069Z" fill="#A66CDE"/>
<path d="M174.573 345.719C174.441 347.342 174.127 349.388 172.806 350.796C172.683 350.928 172.526 351.086 172.361 351.235C172.245 351.235 172.129 351.227 172.006 351.21C172.195 351.077 172.418 350.887 172.641 350.638C173.905 349.288 174.21 347.292 174.342 345.702C174.441 344.418 174.466 343.126 174.408 341.843C174.416 341.768 174.408 341.694 174.4 341.619C174.177 336.616 172.922 331.664 171.609 326.959C171.271 325.75 170.932 324.549 170.528 323.381C170.115 322.18 169.636 320.996 169.074 319.836C169.05 319.762 169.008 319.696 168.975 319.629C168.629 318.901 168.249 318.188 167.844 317.493C167.943 317.509 168.042 317.534 168.141 317.559C168.53 318.238 168.901 318.934 169.24 319.638C169.826 320.83 170.329 322.056 170.759 323.307C171.155 324.475 171.502 325.676 171.84 326.901C173.161 331.639 174.425 336.641 174.639 341.694C174.639 341.694 174.639 341.694 174.639 341.702C174.639 341.727 174.648 341.752 174.639 341.768C174.697 343.077 174.672 344.394 174.573 345.719Z" fill="#F5D9D6"/>
<path d="M162.065 320.946C160.067 320.946 158.539 320.781 158.506 320.772C158.44 320.764 158.399 320.706 158.407 320.64C158.416 320.574 158.482 320.524 158.539 320.54C158.605 320.549 165.491 321.302 169.091 319.58C169.149 319.547 169.215 319.571 169.248 319.638C169.273 319.696 169.248 319.762 169.19 319.795C167.234 320.723 164.344 320.946 162.065 320.946Z" fill="#F5D9D6"/>
<path d="M166.416 342.894C166.366 342.894 166.325 342.87 166.309 342.82C166.284 342.762 166.317 342.696 166.375 342.671C166.416 342.654 170.214 341.163 174.532 341.619C174.598 341.627 174.64 341.685 174.64 341.743C174.631 341.809 174.573 341.859 174.516 341.851C170.255 341.42 166.507 342.878 166.465 342.886C166.449 342.894 166.432 342.894 166.416 342.894Z" fill="#F5D9D6"/>
<path d="M166.226 330.869C166.243 330.935 166.21 331.001 166.144 331.009C163.873 331.647 161.793 333.304 160.587 334.397C160.529 334.339 160.471 334.273 160.43 334.223C161.652 333.121 163.766 331.432 166.086 330.786C166.144 330.769 166.21 330.802 166.226 330.869Z" fill="#F5D9D6"/>
<path d="M168.001 332.649C168.018 332.715 167.985 332.782 167.919 332.798C165.599 333.444 163.468 335.167 162.288 336.26C162.238 336.194 162.189 336.128 162.139 336.07C163.345 334.96 165.508 333.221 167.861 332.566C167.919 332.55 167.985 332.599 168.001 332.649Z" fill="#F5D9D6"/>
<path d="M169.554 335.324C169.57 335.382 169.537 335.449 169.479 335.465C167.283 336.07 165.252 337.652 164.047 338.737C163.997 338.662 163.964 338.596 163.915 338.53C165.153 337.428 167.201 335.854 169.413 335.233C169.471 335.217 169.537 335.258 169.554 335.324Z" fill="#F5D9D6"/>
<path d="M150.737 329.643L157.408 330.504C157.408 330.504 158.837 327.647 158.671 324.152C158.515 320.656 158.515 320.656 158.515 320.656L152.388 319.224L150.737 329.643Z" fill="#FB9D89"/>
<path d="M122.153 192.164L112.781 215.305C111.328 215.645 109.908 215.91 108.529 216.125C91.9583 218.734 80.8863 213.599 80.8863 213.599C80.8863 210.427 76.791 197.846 77.9222 188.942C79.1111 179.525 90.5052 159.706 90.5052 159.706H97.16C105.392 162.116 112.79 159.035 112.79 159.035H118.982L122.07 191.319L122.153 192.164Z" fill="#6887FF"/>
<path d="M97.1602 159.706C97.1602 159.706 85.5845 175.02 89.3247 178.457C93.2135 182.027 100.017 179.053 104.649 174.407C109.281 169.761 112.79 159.027 112.79 159.027C112.79 159.027 104.294 165.28 100.256 163.524C96.2107 161.785 97.1602 159.706 97.1602 159.706Z" fill="#FBB81B"/>
<path d="M152.578 318.039L150.464 331.324C150.464 331.324 126.933 332.649 108.686 330.786L101.899 341.735C101.899 341.735 60.732 324.069 59.155 314.031C57.5697 304.001 73.4058 254.928 73.4058 254.928C75.6186 245.502 80.8863 213.607 80.8863 213.607L108.769 215.098L112.79 215.313C112.575 224.73 116.167 223.057 120.964 235.448C123.028 240.773 124.299 244.997 124.886 248.492C124.886 248.501 124.886 248.501 124.886 248.509C125.133 249.337 125.315 250.29 125.422 251.35C127.098 266.954 114.837 305.334 114.837 305.334L152.578 318.039Z" fill="#6887FF"/>
<path d="M109.858 178.639C109.858 179.542 109.124 180.279 108.224 180.279C107.324 180.279 106.589 179.542 106.589 178.639C106.589 177.736 107.324 176.999 108.224 176.999C109.132 176.999 109.858 177.736 109.858 178.639Z" fill="#F5D9D6"/>
<path d="M87.0372 176.08C87.0372 176.983 86.3023 177.72 85.4024 177.72C84.5024 177.72 83.7676 176.983 83.7676 176.08C83.7676 175.177 84.5024 174.44 85.4024 174.44C86.3023 174.44 87.0372 175.169 87.0372 176.08Z" fill="#F5D9D6"/>
<path d="M83.0249 181.497C83.0249 181.497 95.4263 183.103 107.638 183.7C107.638 183.7 104.442 200.206 91.2319 198.666C78.0131 197.142 83.0249 181.497 83.0249 181.497Z" stroke="#F5D9D6" stroke-width="0.2817" stroke-miterlimit="10" stroke-linecap="round" stroke-linejoin="round"/>
<path d="M80.8862 213.599C80.8862 213.599 100.694 217.732 112.781 215.305" stroke="#F5D9D6" stroke-width="0.2817" stroke-miterlimit="10" stroke-linecap="round" stroke-linejoin="round"/>
<path d="M79.4248 216.87C79.4248 216.87 100.702 221.094 112.781 218.668" stroke="#F5D9D6" stroke-width="0.2817" stroke-miterlimit="10" stroke-linecap="round" stroke-linejoin="round"/>
<path d="M119.378 191.319C119.378 191.319 108.48 213.723 109.867 219.421C111.254 225.12 124.241 241.577 123.135 257.172C122.029 272.768 110.412 301.839 112.897 306.916C115.382 312.001 152.239 320.251 152.239 320.251" stroke="#F5D9D6" stroke-width="0.2817" stroke-miterlimit="10" stroke-linecap="round" stroke-linejoin="round"/>
<path d="M100.958 219.537C100.661 225.94 101.965 232.565 105.598 237.833C109.231 243.101 115.399 246.803 121.773 246.529" stroke="#F5D9D6" stroke-width="0.2817" stroke-miterlimit="10" stroke-linecap="round" stroke-linejoin="round"/>
<path d="M80.8862 243.979L88.5731 252.857C88.5731 252.857 82.3642 314.403 88.5731 322.495C94.782 330.587 108.686 330.786 108.686 330.786" stroke="#42353B" stroke-width="0.2817" stroke-miterlimit="10" stroke-linecap="round" stroke-linejoin="round"/>
<path opacity="0.27" d="M85.8153 269.728C83.6439 280.52 81.4641 291.37 81.0513 302.369C80.8779 307.098 81.0348 311.894 82.3228 316.449C83.4787 320.532 86.2529 324.856 90.4803 325.112C86.2199 321.46 85.7493 315.124 85.6915 309.5C85.6089 300.911 85.7328 292.331 86.0713 283.75C86.4015 275.36 87.6978 266.399 88.0611 258.332C86.8969 260.858 86.3933 266.871 85.8153 269.728Z" fill="#6887FF"/>
<path d="M44.4336 113.706C44.4336 113.706 47.0427 138.693 54.8864 149.46C62.7302 160.227 79.9781 181.497 79.9781 181.497L90.5135 159.714C90.5135 159.714 73.1747 147.382 70.5656 142.131C67.9566 136.888 53.2268 108.769 53.2268 108.769L44.4336 113.706Z" fill="#FBB81B"/>
<path d="M46.1593 112.737L42.8896 99.4765L49.0656 96.6191L53.2186 108.769L46.1593 112.737Z" fill="#FB9D89"/>
<path d="M42.8896 99.4765C42.8896 99.4765 39.6035 96.3789 40.3135 91.6911C41.0236 87.0033 42.8896 83.9886 42.8896 83.9886C42.8896 83.9886 41.0731 83.9057 40.553 82.5557C39.6695 80.2615 39.8429 76.4516 41.1062 75.1761C42.3694 73.9089 48.9416 73.8261 50.6095 74.6212C52.269 75.4163 53.1442 77.0811 53.2185 79.8639C53.3011 82.6468 53.9286 83.9968 53.5323 85.9018C53.136 87.8067 49.0572 96.6191 49.0572 96.6191L42.8896 99.4765Z" fill="#FB9D89"/>
<path d="M52.5662 85.3055C52.5662 85.3055 51.3195 73.9918 49.7755 75.3004C48.2315 76.609 47.6371 82.564 48.0499 85.3055C48.0499 85.3055 44.4831 86.3739 43.5996 88.7592" stroke="#42353B" stroke-width="0.2817" stroke-miterlimit="10" stroke-linecap="round" stroke-linejoin="round"/>
<path d="M43.3189 74.3645C43.3189 74.3645 42.0557 77.1639 42.3694 79.864C42.6832 82.564 43.3189 83.9886 43.3189 83.9886" stroke="#42353B" stroke-width="0.2817" stroke-miterlimit="10" stroke-linecap="round" stroke-linejoin="round"/>
<path d="M45.9776 74.116C45.9776 74.116 45.0694 76.3853 45.185 79.1765C45.3006 81.9676 45.8207 83.9223 45.8207 83.9223" stroke="#42353B" stroke-width="0.2817" stroke-miterlimit="10" stroke-linecap="round" stroke-linejoin="round"/>
<path d="M49.1894 74.2651C49.1894 74.2651 48.3555 76.2115 48.0583 79.6238C47.761 83.0361 47.9344 83.7153 47.9344 83.7153C46.762 83.9886 42.8896 83.9969 42.8896 83.9969" stroke="#42353B" stroke-width="0.2817" stroke-miterlimit="10" stroke-linecap="round" stroke-linejoin="round"/>
<path d="M118.973 159.043C118.973 159.043 118.841 159.3 118.618 159.772C116.447 164.352 105.623 188.934 122.152 192.164C122.152 192.164 128.27 181.364 133.059 175.6C137.848 169.843 163.815 130.154 163.815 130.154L153.684 118.542C153.684 118.542 131.515 151.597 129.773 153.419L118.973 159.043Z" fill="#FBB81B"/>
<path d="M154.51 119.487L167.621 100.595L173.64 103.924L161.586 127.587L154.51 119.487Z" fill="#FB9D89"/>
<path d="M186.933 87.641C186.298 90.192 181.228 95.7412 180.122 97.6544C179.015 99.5593 177.43 100.909 175.696 101.936C173.946 102.972 173.492 104.206 173.492 104.206L167.621 100.595C167.621 100.595 166.589 99.402 167.621 94.3994C168.645 89.3969 170.47 80.9738 171.89 80.8164C173.269 80.6673 173.599 86.7134 173.632 88.0055V88.1297C173.632 88.2042 173.673 88.196 173.756 88.1214C174.656 87.2352 180.493 76.9071 181.88 77.4123C182.301 77.5697 182.937 78.2489 183.623 79.2013C183.672 79.2676 183.713 79.3338 183.763 79.4084C184.258 80.1207 184.77 80.9572 185.233 81.8351C185.282 81.9097 185.315 81.9842 185.356 82.067C185.811 82.9449 186.223 83.856 186.521 84.7091C186.545 84.8002 186.578 84.883 186.603 84.9741C186.942 86.026 187.107 86.9867 186.933 87.641Z" fill="#FB9D89"/>
<path d="M174.524 95.1862C174.449 95.1862 174.4 95.1283 174.408 95.062C174.581 92.1963 173.533 88.1877 173.525 88.1545C173.508 88.0883 173.549 88.0303 173.607 88.0137C173.665 87.9972 173.731 88.0303 173.748 88.0966C173.756 88.138 174.821 92.1798 174.639 95.0869C174.639 95.1366 174.59 95.1862 174.524 95.1862Z" fill="#42353B"/>
<path d="M183.755 79.3918L177.174 88.4692C177.15 88.4941 177.117 88.5189 177.084 88.5189C177.059 88.5189 177.034 88.5106 177.009 88.4941C176.96 88.4526 176.951 88.3947 176.993 88.3367L183.615 79.193C183.664 79.251 183.705 79.3172 183.755 79.3918Z" fill="#42353B"/>
<path d="M185.348 82.0504L179.445 89.7695C179.428 89.7944 179.387 89.8192 179.354 89.8192C179.337 89.8192 179.304 89.811 179.288 89.8027C179.23 89.753 179.222 89.6867 179.263 89.637L185.233 81.8268C185.274 81.893 185.307 81.9676 185.348 82.0504Z" fill="#42353B"/>
<path d="M186.595 84.9576L181.41 91.7491C181.385 91.7739 181.344 91.7988 181.319 91.7988C181.294 91.7988 181.261 91.7905 181.245 91.7739C181.195 91.7325 181.179 91.658 181.228 91.6166L186.512 84.7008C186.537 84.7919 186.562 84.8747 186.595 84.9576Z" fill="#42353B"/>
<path d="M126.611 173.935L120.963 191.883" stroke="#42353B" stroke-width="0.2817" stroke-miterlimit="10" stroke-linecap="round" stroke-linejoin="round"/>
<path d="M77.7236 168.576L79.9777 181.496L80.8859 165.719" stroke="#42353B" stroke-width="0.2817" stroke-miterlimit="10" stroke-linecap="round" stroke-linejoin="round"/>
<path d="M151.348 122.021L161.718 133.36" stroke="#42353B" stroke-width="0.2817" stroke-miterlimit="10" stroke-linecap="round" stroke-linejoin="round"/>
<path d="M45.2012 119.346L55.8026 113.706" stroke="#42353B" stroke-width="0.2817" stroke-miterlimit="10" stroke-linecap="round" stroke-linejoin="round"/>
<path d="M117.587 136.971C117.578 137.054 117.554 137.145 117.521 137.261C117.471 137.526 117.397 137.799 117.322 138.039C116.637 140.665 115.489 143.108 114.301 145.526C113.219 147.721 112.393 150.098 112.104 152.566C111.956 153.825 111.956 155.092 112.113 156.351C112.212 157.097 112.583 157.792 112.748 158.513C113.178 160.418 110.527 162.174 109.157 163.101C107.258 164.41 105.061 165.288 102.774 165.603C101.618 165.76 100.438 165.768 99.2818 165.603C97.292 165.329 95.3847 164.7 96.0948 162.273C96.4085 161.213 97.0608 160.285 97.3003 159.192C97.5067 158.231 97.614 157.262 97.7544 156.293C97.7709 156.169 97.7956 156.061 97.8122 155.937C97.8287 155.854 97.8369 155.78 97.8369 155.705C97.8452 155.689 97.8452 155.656 97.8452 155.639C97.87 155.515 97.8947 155.391 97.9112 155.258C97.936 155.126 97.9525 155.01 97.969 154.877C97.9856 154.753 97.9938 154.637 98.0103 154.513C98.0186 154.455 98.0268 154.397 98.0268 154.355C98.0929 153.958 98.2333 153.204 98.0681 152.939V152.881C98.0764 152.864 98.0599 152.84 98.0516 152.831C98.0433 152.815 98.0351 152.807 98.0351 152.807C97.1021 152.616 96.1113 152.657 95.2609 152.21C93.2958 151.208 92.3463 149.237 91.8674 147.133C91.8509 147.042 91.8179 146.934 91.8096 146.843C91.5619 145.725 91.4381 144.574 91.3555 143.539C91.1821 141.269 91.1821 138.884 91.4133 136.499C91.4216 136.308 91.4463 136.118 91.4711 135.927C91.5702 135.041 91.7023 134.146 91.8592 133.277C91.8674 133.227 91.8757 133.186 91.8839 133.136C91.9335 132.83 91.9995 132.523 92.0821 132.2L92.206 131.711L92.2307 131.612L92.6023 130.163L92.6848 129.848C92.6848 129.806 92.7096 129.765 92.7261 129.724C92.7757 129.533 92.8252 129.376 92.8747 129.21C92.9408 129.02 92.9903 128.854 93.0729 128.672C93.8738 126.411 94.9884 124.266 96.6232 122.601C99.0176 120.116 102.378 118.559 105.854 118.542C106.779 118.542 107.712 118.658 108.628 118.882C108.835 118.923 109.016 118.981 109.231 119.039C109.33 119.064 109.421 119.097 109.528 119.131C109.735 119.205 109.916 119.263 110.139 119.346C113.021 120.447 115.324 122.609 116.802 125.4C117.752 127.181 117.966 129.55 118.049 131.571C118.107 133.384 117.966 135.198 117.587 136.971Z" fill="#FB9D89"/>
<path d="M106.597 150.537C106.597 150.537 102.139 156.061 97.7378 156.285C97.969 155.175 98.1176 154.082 98.0763 152.922C98.0681 152.906 98.0681 152.898 98.0681 152.873C98.0681 152.848 98.0598 152.823 98.0515 152.815C98.0433 152.798 98.035 152.79 98.0268 152.79C98.0268 152.798 104.549 151.962 106.597 150.537Z" fill="#FF7777"/>
<path d="M115.382 139.513C115.869 139.091 117.958 135.554 120.625 136.664C123.3 137.774 122.359 144.607 118.611 145.717C114.862 146.827 113.624 144.905 113.624 144.905L115.382 139.513Z" fill="#FB9D89"/>
<path d="M117.339 139.165C117.719 138.486 118.239 137.724 119.015 137.708C119.577 137.699 120.072 138.114 120.386 138.586C121.294 139.961 121.071 141.866 120.196 143.257C119.824 143.853 119.329 144.4 118.677 144.665C118.025 144.93 117.207 144.839 116.728 144.334C116.398 143.986 116.266 143.497 116.216 143.025" stroke="#42353B" stroke-width="0.2817" stroke-miterlimit="10" stroke-linecap="round" stroke-linejoin="round"/>
<path d="M119.891 138.047C119.891 138.047 117.612 139.522 116.439 143.903" stroke="#42353B" stroke-width="0.2817" stroke-miterlimit="10" stroke-linecap="round" stroke-linejoin="round"/>
<path d="M117.521 137.261C117.521 137.261 116.555 136.482 114.416 135.778C114.408 135.778 114.4 135.77 114.392 135.77L113.632 128.067C113.632 128.067 113.731 133.575 113.673 135.496C112.724 135.115 111.675 134.619 110.495 134.113C110.354 131.488 110.206 126.402 110.866 123.868C110.618 124.589 108.876 129.699 108.249 133.252C107.597 133.037 106.92 132.838 106.193 132.672C104.608 132.308 101.371 131.803 98.3244 131.364C98.4978 129.144 98.9602 124.721 99.9344 122.394C99.6207 122.957 97.1272 127.413 96.1695 131.032C93.4283 130.643 91.2485 130.361 91.2485 130.361C91.2485 130.361 91.9503 124.249 97.1768 119.247C102.403 114.236 111.353 117.648 111.353 117.648C111.353 117.648 115.077 118.369 117.537 122.808C119.998 127.272 117.521 137.261 117.521 137.261Z" fill="#42353B"/>
<path d="M114.862 141.153C114.862 141.22 114.87 141.302 114.912 141.352C115.035 141.501 115.267 141.344 115.382 141.178C116.307 139.886 116.86 138.346 117.859 137.112C118.181 136.714 118.544 136.35 118.776 135.902C119.007 135.447 119.065 134.867 118.776 134.453C118.544 134.122 118.132 133.964 117.735 133.915C116.414 133.732 115.258 134.412 115.093 135.72C114.879 137.517 114.796 139.34 114.862 141.153Z" fill="#42353B"/>
<path d="M96.4085 142.975C96.4415 142.984 96.4828 142.975 96.4993 142.942C96.5323 142.901 96.5241 142.851 96.4828 142.818C96.1113 142.553 95.7893 142.205 95.5498 141.824C95.4838 141.716 95.426 141.609 95.4177 141.493C95.4012 141.236 95.6324 141.029 95.8636 140.83C95.9131 140.781 95.9709 140.739 96.0204 140.689C96.8213 139.936 96.8544 138.71 96.7966 137.724C96.7388 136.697 96.6067 135.662 96.425 134.643C96.4168 134.594 96.3672 134.56 96.3177 134.569C96.2681 134.577 96.2351 134.618 96.2434 134.668C96.425 135.679 96.5489 136.706 96.6149 137.724C96.6727 138.735 96.6397 139.861 95.8883 140.557C95.8388 140.598 95.7893 140.648 95.7397 140.689C95.492 140.905 95.2196 141.145 95.2361 141.485C95.2443 141.642 95.3186 141.783 95.3929 141.899C95.6406 142.304 95.9792 142.669 96.3755 142.951C96.3837 142.967 96.392 142.975 96.4085 142.975Z" fill="#42353B"/>
<path d="M93.5515 135.207C93.4525 135.654 93.7167 136.101 94.1543 136.2C94.5919 136.3 95.0212 136.018 95.1285 135.571C95.2276 135.124 94.9634 134.676 94.5258 134.577C94.0882 134.478 93.6506 134.759 93.5515 135.207Z" fill="#42353B"/>
<path d="M102.436 136.59C102.237 137.07 102.452 137.625 102.914 137.824C103.377 138.023 103.922 137.799 104.12 137.31C104.318 136.83 104.103 136.275 103.641 136.076C103.179 135.877 102.642 136.109 102.436 136.59Z" fill="#42353B"/>
<path d="M98.8607 146.222C98.8607 146.222 97.1516 146.62 95.9214 146.073" stroke="#42353B" stroke-width="0.2293" stroke-miterlimit="10" stroke-linecap="round" stroke-linejoin="round"/>
<path d="M100.809 144.226C100.809 144.226 97.9113 146.147 94.105 144.309" stroke="#42353B" stroke-width="0.272" stroke-miterlimit="10" stroke-linecap="round" stroke-linejoin="round"/>
<path d="M101.949 143.207C101.544 146.355 103.765 149.237 106.903 149.643C110.04 150.049 112.914 147.821 113.318 144.673C113.723 141.526 111.502 138.644 108.364 138.238C105.227 137.832 102.354 140.06 101.949 143.207Z" fill="url(#paint0_linear_106_8)"/>
<path d="M95.137 142.329C95.038 143.141 94.7655 143.895 94.3774 144.549C93.7747 145.56 92.8665 146.363 91.8096 146.835C91.5619 145.717 91.4381 144.566 91.3555 143.53C91.1821 141.261 91.1821 138.876 91.4133 136.49C91.4216 136.399 91.4298 136.3 91.4463 136.209C93.8903 137.12 95.4838 139.621 95.137 142.329Z" fill="url(#paint1_linear_106_8)"/>
<path d="M101.519 133.012C102.056 132.647 102.642 132.49 103.261 132.424C103.872 132.357 104.508 132.432 105.111 132.606C105.722 132.805 106.242 133.07 106.746 133.451C107.233 133.848 107.704 134.295 107.869 135.066C107.902 135.223 107.803 135.389 107.646 135.422C107.563 135.438 107.489 135.422 107.423 135.38L107.282 135.289C106.936 135.074 106.465 134.825 106.019 134.643C105.573 134.461 105.078 134.254 104.632 134.113C103.724 133.807 102.75 133.649 101.66 133.484L101.627 133.475C101.486 133.451 101.387 133.318 101.412 133.177C101.42 133.111 101.462 133.053 101.519 133.012Z" fill="#42353B"/>
<path d="M96.1609 132.291C96.0866 132.324 96.0123 132.324 95.938 132.308L95.7811 132.25C95.3848 132.117 94.8729 132.001 94.4023 131.927C93.9151 131.852 93.395 131.769 92.9326 131.736C92.6931 131.72 92.4455 131.711 92.1978 131.711L92.2225 131.612L92.5941 130.163C92.7427 130.154 92.8831 130.146 93.0317 130.154C93.6757 130.212 94.2371 130.328 94.8151 130.593C95.3848 130.867 95.938 131.181 96.2848 131.902C96.3673 132.043 96.3095 132.217 96.1609 132.291Z" fill="#42353B"/>
</g>
<g clip-path="url(#clip1_106_8)">
<path d="M28.7802 351.26L37.8502 361.85L34.7302 364.18L24.4502 357.55L28.7802 351.26Z" fill="#EB2D40"/>
<path d="M189.08 295.14L180.1 305.8L177.29 303.1L182.18 291.89L189.08 295.14Z" fill="#1A76E8"/>
<path d="M136.02 62.92C136.02 64.67 137.44 66.08 139.18 66.08C140.93 66.08 142.34 64.66 142.34 62.92C142.34 61.17 140.92 59.76 139.18 59.76C137.44 59.76 136.02 61.17 136.02 62.92Z" fill="#1A76E8"/>
<path d="M19.6299 263.36C19.6299 265.11 21.0499 266.52 22.7899 266.52C24.5399 266.52 25.9499 265.1 25.9499 263.36C25.9499 261.62 24.5299 260.2 22.7899 260.2C21.0399 260.2 19.6299 261.61 19.6299 263.36Z" fill="#EB2D40"/>
<path d="M0 85.36C0 87.11 1.42 88.52 3.16 88.52C4.91 88.52 6.32 87.1 6.32 85.36C6.32 83.61 4.9 82.2 3.16 82.2C1.42 82.2 0 83.62 0 85.36Z" fill="#26D474"/>
<path d="M212.32 110.53L202.37 120.3L199.83 117.35L205.76 106.64L212.32 110.53Z" fill="#1A76E8"/>
<path d="M191.38 170.89L181.43 180.66L178.89 177.7L184.81 167L191.38 170.89Z" fill="#1A76E8"/>
<path d="M50.2699 214.46L57.3199 226.49L53.8399 228.23L44.8999 219.88L50.2699 214.46Z" fill="#FFD417"/>
<path d="M161.71 239.85L168.76 251.88L165.28 253.62L156.33 245.27L161.71 239.85Z" fill="#FFD417"/>
<path d="M102.86 47.96L112.29 58.23L109.26 60.67L98.75 54.4L102.86 47.96Z" fill="#1A76E8"/>
<path d="M20.83 170L30.33 180.2L27.31 182.66L16.77 176.46L20.83 170Z" fill="#FF6F1C"/>
<path d="M162.55 0L163.73 11.13L166.81 10.59L168.6 0.94L162.55 0Z" fill="#FFD417"/>
<path d="M70.5899 60.72L76.9499 73.13L73.3799 74.68L64.9199 65.84L70.5899 60.72Z" fill="#EB2D40"/>
</g>
<defs>
<linearGradient id="paint0_linear_106_8" x1="117.54" y1="150.938" x2="102.261" y2="140.204" gradientUnits="userSpaceOnUse">
<stop stop-color="#FB9D89" stop-opacity="0"/>
<stop offset="1" stop-color="#FF7777" stop-opacity="0.5"/>
</linearGradient>
<linearGradient id="paint1_linear_106_8" x1="96.5039" y1="146.141" x2="88.2927" y2="137.75" gradientUnits="userSpaceOnUse">
<stop stop-color="#FB9D89" stop-opacity="0"/>
<stop offset="1" stop-color="#FF7777" stop-opacity="0.5"/>
</linearGradient>
<clipPath id="clip0_106_8">
<rect width="147" height="291" fill="white" transform="translate(40 74)"/>
</clipPath>
<clipPath id="clip1_106_8">
<rect width="212.32" height="364.18" fill="white"/>
</clipPath>
</defs>
</svg>
