<svg width="115" height="325" viewBox="0 0 115 325" fill="none" xmlns="http://www.w3.org/2000/svg">
<g clip-path="url(#clip0_101_4)">
<path d="M33.7183 300.916C33.7183 300.916 31.5934 307.25 32.7369 315.29C32.7369 315.29 25.8851 318.881 19.1685 314.316C19.1685 314.316 24.7507 310.099 22.995 298.808" fill="#FF9670"/>
<path d="M3.54736 322.106C3.74544 321.695 4.06057 321.328 4.47473 321.096C6.75265 319.81 12.2989 316.763 20.6902 312.672C20.6902 312.672 25.3901 314.235 32.521 313.342C32.521 313.342 33.2773 317.978 33.1962 321.82C28.8205 322.016 11.9747 322.686 3.54736 322.106Z" fill="#602B29"/>
<path d="M33.1962 321.82C33.1781 322.775 33.1331 323.696 33.0701 324.482H3.3042V323.088C3.3042 322.74 3.40324 322.4 3.5473 322.097C11.9747 322.686 28.8204 322.016 33.1962 321.82Z" fill="#400E09"/>
<path d="M13.3881 317.505C13.3881 317.791 13.154 318.032 12.8569 318.032C12.5688 318.032 12.3257 317.8 12.3257 317.505C12.3257 317.219 12.5598 316.978 12.8569 316.978C13.154 316.978 13.3881 317.21 13.3881 317.505Z" fill="#400E09"/>
<path d="M17.332 315.826C17.332 316.111 17.0979 316.353 16.8007 316.353C16.5126 316.353 16.2695 316.12 16.2695 315.826C16.2695 315.54 16.5036 315.298 16.8007 315.298C17.0979 315.307 17.332 315.54 17.332 315.826Z" fill="#400E09"/>
<path d="M21.2304 313.78C21.2304 314.066 20.9963 314.307 20.6992 314.307C20.4111 314.307 20.168 314.075 20.168 313.78C20.168 313.494 20.4021 313.253 20.6992 313.253C20.9873 313.262 21.2304 313.494 21.2304 313.78Z" fill="#400E09"/>
<path d="M52.437 297.745C52.437 297.745 55.8494 310.662 54.2827 315.808C54.2827 315.808 61.1345 319.399 67.8512 314.834C67.8512 314.834 61.3056 312.645 63.5294 294.288" fill="#FF9670"/>
<path d="M83.4723 322.624C83.2742 322.213 82.9591 321.846 82.5449 321.614C80.267 320.328 74.7208 317.282 66.3295 313.19C66.3295 313.19 61.6296 314.753 54.4987 313.86C54.4987 313.86 53.7424 318.496 53.8235 322.338C58.1992 322.534 75.054 323.204 83.4723 322.624Z" fill="#602B29"/>
<path d="M53.8325 322.338C53.8505 323.293 53.8955 324.214 53.9586 325H83.7245V323.606C83.7245 323.258 83.6254 322.918 83.4814 322.615C75.054 323.204 58.1993 322.534 53.8325 322.338Z" fill="#400E09"/>
<path d="M67.4638 314.637C67.4638 314.923 67.2297 315.164 66.9326 315.164C66.6445 315.164 66.4014 314.932 66.4014 314.637C66.4014 314.351 66.6355 314.11 66.9326 314.11C67.2297 314.119 67.4638 314.351 67.4638 314.637Z" fill="#400E09"/>
<path d="M76.4677 318.952C76.4677 319.238 76.2336 319.479 75.9365 319.479C75.6484 319.479 75.4053 319.247 75.4053 318.952C75.4053 318.666 75.6394 318.425 75.9365 318.425C76.2336 318.425 76.4677 318.657 76.4677 318.952Z" fill="#400E09"/>
<path d="M71.5156 316.906C71.5156 317.192 71.2815 317.433 70.9843 317.433C70.6962 317.433 70.4531 317.201 70.4531 316.906C70.4531 316.62 70.6872 316.379 70.9843 316.379C71.2815 316.379 71.5156 316.62 71.5156 316.906Z" fill="#400E09"/>
<path d="M30.0539 92.7472C32.2238 96.3115 32.5929 100.59 31.7286 104.575C30.8642 108.55 28.8204 112.266 26.3984 115.687C30.8102 118.635 36.1944 120.404 41.6956 120.717C43.8474 120.842 46.0983 120.726 48.0071 119.815C46.0533 118.108 45.0449 115.741 44.3336 113.383C42.9471 108.764 42.5329 103.914 43.1271 99.1612" fill="#FF9670"/>
<path d="M36.0231 100.582C37.7248 101.502 40.5429 102.797 42.8658 103.253C42.8748 101.886 42.9469 100.519 43.1179 99.1612L30.0537 92.7472C30.5669 93.5869 30.9721 94.4713 31.2872 95.3825C32.4487 97.4282 33.8712 99.4113 36.0231 100.582Z" fill="#FC7F51"/>
<path d="M54.2401 82.3347L50.3462 83.1045L50.4623 83.6827L54.3563 82.9129L54.2401 82.3347Z" fill="#D03711"/>
<path d="M37.3378 72.4334C40.9752 71.4508 44.9908 72.8354 47.7099 75.435C50.42 78.0256 52.4008 82.0455 53.004 85.7349C53.6073 89.4243 53.4182 91.7379 53.0671 95.4631C52.977 96.4457 52.3288 98.5539 51.7165 99.3311C51.0953 100.108 50.312 100.832 49.3666 101.145C47.872 101.636 45.0269 101.761 42.6859 101.341C38.9764 100.68 35.7351 99.5812 33.0971 96.9192C30.459 94.2571 30.351 91.7647 30.8552 88.0575" fill="#FF9670"/>
<path d="M31.5846 91.1216C31.0444 90.7018 30.4592 90.3176 29.8019 90.13C29.1446 89.9424 28.3883 89.9782 27.8211 90.3534C27.2719 90.7107 26.9388 91.3449 26.8667 91.9971C26.7947 92.6492 26.9568 93.3013 27.2269 93.8998C27.7131 94.9629 28.6314 95.883 29.7839 96.1063C30.9364 96.3296 32.2779 95.6686 32.566 94.543C32.7551 93.7926 32.485 93.0154 32.1788 92.3008" fill="#FF9670"/>
<path d="M30.6933 91.8542C30.5042 91.7023 30.2972 91.5683 30.0631 91.4969C29.829 91.4343 29.5589 91.4433 29.3608 91.5773C29.1627 91.7023 29.0457 91.9257 29.0186 92.1579C28.9916 92.3902 29.0457 92.6224 29.1447 92.8368C29.3158 93.212 29.6399 93.5425 30.0541 93.6229C30.4592 93.7033 30.9364 93.4711 31.0445 93.0691C31.1165 92.8011 31.0174 92.5242 30.9094 92.274" fill="#FC7F51"/>
<path d="M26.9837 78.7493C25.7052 78.928 24.3997 78.9369 23.1211 78.7761C22.0137 78.6332 20.9063 78.3473 19.9429 77.7935C18.2232 76.8019 17.0707 74.9795 16.7106 73.0321C16.3504 71.0936 16.7466 69.0569 17.6019 67.2702C18.3312 65.7516 19.4477 64.3402 20.9783 63.6076C22.6079 62.8305 24.5167 62.8841 26.2994 63.2235C28.4243 63.6255 30.6211 64.5188 31.7736 66.3412C33.1241 68.4851 32.665 71.2633 31.9177 73.6842" fill="#2D0E0B"/>
<path d="M52.6891 79.4727C51.9598 75.0508 48.4754 71.281 44.2077 69.807C39.94 68.342 35.0421 69.0656 31.1705 71.3703C29.919 72.1207 28.7665 73.014 27.6141 73.9163C26.6147 74.6935 25.6153 75.4796 24.823 76.4622C23.3914 78.2399 22.7702 80.5715 22.8062 82.8405C22.8422 85.1095 23.5084 87.3428 24.4358 89.4153C24.7419 90.0942 25.1111 90.7999 25.7593 91.1662C27.1369 91.9433 28.7846 90.8088 30.3602 90.657C30.5403 90.6391 30.7383 90.6391 30.8914 90.7374C31.1255 90.8892 31.1705 91.2019 31.1885 91.4788C31.5577 95.6595 32.7281 99.7777 34.6189 103.53C34.997 104.289 35.4292 105.057 36.1045 105.575C34.6279 100.734 33.9346 96.3742 34.0427 91.318C34.0607 91.3091 34.0967 90.5944 34.1057 90.5766C34.1687 89.8083 34.3578 88.4862 34.4118 88.2182C34.916 85.8063 35.4382 85.0112 35.9424 82.6082C36.4016 83.5909 36.8608 84.5646 37.32 85.5472C37.464 85.842 37.6351 86.1725 37.9502 86.2708C38.2563 86.3691 38.5895 86.1993 38.8686 86.0385C40.6333 85.038 42.398 84.0286 44.1537 83.0281C44.3608 82.9119 44.5769 82.7779 44.6669 82.5725C44.7479 82.3938 44.7299 82.1884 44.7119 81.9918C44.6039 80.9556 44.4958 79.9193 44.3878 78.8831C45.3062 79.7407 46.2155 80.5983 47.1249 81.4648C47.296 81.6256 47.485 81.7953 47.7191 81.84C47.9442 81.8846 48.1693 81.7953 48.3854 81.7149C49.6729 81.2236 50.9604 80.7412 52.2479 80.2499C52.392 80.1963 52.5451 80.1337 52.6351 80.0087C52.7431 79.8479 52.7251 79.6513 52.6891 79.4727Z" fill="#2D0E0B"/>
<path d="M23.5895 79.4638C25.5793 76.6766 28.6225 73.2195 32.8362 70.5664C34.0787 69.7802 33.3944 67.8596 31.9358 68.0561C27.8122 68.6011 22.6711 70.8522 21.1135 78.3918C20.8164 79.83 22.7341 80.6697 23.5895 79.4638Z" fill="#D03711"/>
<path d="M43.5323 84.1001C41.7406 84.118 39.4717 84.3234 38.6073 85.3865C38.1751 85.9135 37.6079 85.8331 38.0041 85.2703C39.2196 83.5105 40.9753 83.2425 43.5683 83.0102C43.8474 82.9834 44.0995 83.2782 44.0905 83.5998C44.0725 83.8589 43.8204 84.1626 43.5323 84.1001Z" fill="#2D0E0B"/>
<path d="M38.0403 92.9171C38.4455 94.2124 40.3183 94.7841 42.236 94.1946C44.1448 93.605 45.3693 92.0863 44.9731 90.791C44.568 89.4957 42.6952 88.924 40.7774 89.5136C38.8597 90.1032 37.6352 91.6218 38.0403 92.9171Z" fill="#FC7F51"/>
<path d="M50.0243 83.5463C50.1774 84.0376 50.5285 84.3592 50.8167 84.2699C51.1048 84.1805 51.2038 83.716 51.0508 83.2247C50.8977 82.7334 50.5466 82.4118 50.2584 82.5011C49.9793 82.5904 49.8713 83.055 50.0243 83.5463Z" fill="#2D0E0B"/>
<path d="M41.8127 86.8069C41.9838 87.3608 42.4339 87.7092 42.8211 87.593C43.2173 87.4769 43.3883 86.932 43.2173 86.3781C43.0462 85.8243 42.596 85.4759 42.2089 85.592C41.8127 85.7171 41.6416 86.262 41.8127 86.8069Z" fill="#2D0E0B"/>
<path d="M48.9438 89.1295C49.2409 88.9509 49.475 88.7097 49.6821 88.4417C48.4666 87.8253 47.5393 86.655 47.2602 85.324C47.2241 85.1453 47.2872 84.9577 47.4762 84.8952C47.6383 84.8416 47.8724 84.9309 47.9084 85.1096C48.1875 86.4138 49.0969 87.5037 50.3484 88.0039C50.5195 88.0754 50.5825 88.3077 50.5014 88.4595C50.2223 88.9687 49.8262 89.3975 49.322 89.6923C48.9438 89.9246 48.5657 89.3528 48.9438 89.1295Z" fill="#F46E45"/>
<path d="M51.2757 91.8541C51.2757 91.8541 49.8082 93.3281 47.4492 93.1316C47.4492 93.1316 51.1767 94.8735 51.2757 91.8541Z" fill="#E53E3E"/>
<path d="M41.9028 91.184C41.2275 91.184 40.5612 91.0143 39.949 90.6748C38.9856 90.1388 38.2653 89.2634 37.9322 88.1914C37.2389 85.976 38.4274 83.6445 40.5702 82.9834C41.6146 82.6618 42.7131 82.7779 43.6945 83.3139C44.6579 83.8499 45.3781 84.7254 45.7113 85.7973C46.4046 88.0128 45.2161 90.3443 43.0732 91.0054C42.6861 91.1304 42.2989 91.184 41.9028 91.184ZM41.7317 83.4033C41.3986 83.4033 41.0654 83.4569 40.7413 83.5551C38.9136 84.1179 37.9052 86.1279 38.4994 88.0217C38.7875 88.9418 39.4088 89.7101 40.2371 90.1656C41.0654 90.6212 42.0108 90.7284 42.8932 90.4515C44.7209 89.8887 45.7293 87.8877 45.1351 85.9849C44.8469 85.0648 44.2257 84.2966 43.3974 83.841C42.8751 83.5462 42.3079 83.4033 41.7317 83.4033Z" fill="#D03711"/>
<path d="M51.3292 87.5929C49.6545 87.5929 48.0609 86.2619 47.5567 84.3144C46.9805 82.0722 48.0789 79.8479 49.9967 79.3655C50.933 79.1243 51.9324 79.3298 52.7878 79.9461C53.6341 80.5447 54.2464 81.4737 54.5255 82.5546C54.8046 83.6355 54.7056 84.7343 54.2554 85.6634C53.7962 86.6103 53.0219 87.2624 52.0855 87.5036C51.8424 87.5661 51.5903 87.5929 51.3292 87.5929ZM50.771 79.8568C50.5639 79.8568 50.3478 79.8836 50.1497 79.9372C48.5471 80.3392 47.6377 82.242 48.1329 84.1715C48.6281 86.1011 50.3388 87.3428 51.9505 86.9319C52.7158 86.7353 53.355 86.1993 53.7332 85.4043C54.1203 84.6003 54.2014 83.6355 53.9583 82.6886C53.7152 81.7417 53.1839 80.9377 52.4457 80.4196C51.9234 80.0444 51.3472 79.8568 50.771 79.8568Z" fill="#D03711"/>
<path d="M38.1596 87.8193L34.2656 88.5891L34.3817 89.1673L38.2757 88.3975L38.1596 87.8193Z" fill="#D03711"/>
<path d="M45.495 85.6544L45.0269 85.2971C45.0899 85.2257 46.4674 83.5016 48.0341 84.2073L47.791 84.7433C46.6475 84.2251 45.5131 85.6366 45.495 85.6544Z" fill="#D03711"/>
<path d="M17.7461 160.827C17.7461 160.827 13.5684 171.278 11.6507 190.672C9.72389 210.066 0 304.427 0 304.427C0 304.427 32.557 308.375 43.3343 306.035C43.3343 306.035 39.3908 208.145 41.3355 190.422L48.9256 305.615C48.9256 305.615 75.009 307.08 90 302.729C90 302.729 67.7161 183.508 57.551 161.425" fill="#EF7926"/>
<path d="M40.8132 204.447C40.6872 203.741 40.5701 203.027 40.4621 202.321C38.7154 226.485 36.8336 250.73 34.1776 274.769C33.2502 283.166 34.0785 295.101 25.4351 299.799C21.5725 301.899 17.0977 302.551 12.821 303.265C9.40865 303.828 5.99629 304.329 2.56592 304.722C10.4441 305.588 34.3846 307.982 43.3342 306.035C43.3342 306.035 40.5611 237.089 40.8132 204.447Z" fill="#E26A1A"/>
<path d="M25.6241 167.946C36.1313 166.222 47.9711 166.508 57.5509 161.443C57.5509 161.443 57.5509 160.433 57.5419 160.425L17.737 160.827C17.737 160.827 15.5041 166.428 13.5503 177.013C16.1883 172.502 19.7988 168.902 25.6241 167.946Z" fill="#E26A1A"/>
<path d="M77.9083 302.444C72.5691 301.738 66.1946 301.461 61.2426 299.228C57.6772 297.62 55.5883 294.815 54.4359 291.152C52.6982 285.631 52.0139 279.557 51.0955 273.858C48.9167 260.395 48.2594 246.754 46.2426 233.274C45.3693 227.477 44.1898 221.733 43.0283 215.98L48.9347 305.606C48.9347 305.606 71.8759 306.892 87.0919 303.462C83.9227 303.364 80.6814 302.801 77.9083 302.444Z" fill="#E26A1A"/>
<path d="M9.08439 304.373C8.96734 294.904 9.06638 285.435 9.39051 275.975C9.71464 266.515 10.2639 257.063 11.0382 247.63C11.8035 238.241 12.7939 228.879 14.0004 219.544C15.2248 210.102 16.6654 200.686 18.3401 191.315C19.9968 182.007 21.8785 172.743 23.9763 163.524C24.2375 162.381 24.4986 161.246 24.7687 160.103C24.8677 159.674 24.2014 159.496 24.1024 159.924C21.9415 169.179 19.9968 178.478 18.2861 187.822C16.5844 197.095 15.0988 206.403 13.8293 215.747C12.5598 225.136 11.4974 234.561 10.669 244.003C9.84069 253.436 9.23745 262.879 8.8503 272.339C8.46314 281.844 8.31008 291.358 8.37311 300.871C8.38211 302.042 8.39111 303.212 8.40912 304.382C8.40912 304.811 9.09339 304.811 9.08439 304.373Z" fill="#F3D1A4"/>
<path d="M30.4502 158.254C30.4952 167.794 30.2521 177.326 29.8829 186.858C29.5048 196.577 28.9916 206.287 28.4964 215.998C28.0012 225.726 27.506 235.463 27.1819 245.2C26.8577 254.839 26.7857 264.469 26.7767 274.117C26.7677 283.47 26.7407 292.823 26.5516 302.176C26.5336 303.274 26.5066 304.373 26.4796 305.472C26.4706 305.91 27.1549 305.91 27.1729 305.472C27.407 296.253 27.443 287.025 27.47 277.806C27.488 268.14 27.488 258.475 27.7671 248.809C28.0552 239.09 28.5234 229.379 29.0096 219.669C29.5048 209.95 30.027 200.231 30.4322 190.502C30.8373 180.935 31.1254 171.368 31.1524 161.8C31.1524 160.621 31.1524 159.442 31.1524 158.263C31.1344 157.816 30.4502 157.816 30.4502 158.254Z" fill="#F3D1A4"/>
<path d="M39.0753 160.21C39.9576 168.161 40.5879 176.147 40.957 184.142C41.0651 186.402 41.1461 188.671 41.2091 190.931C41.2181 191.369 41.9114 191.369 41.9024 190.931C41.6773 182.936 41.2001 174.959 40.4618 166.999C40.2547 164.739 40.0206 162.47 39.7685 160.21C39.7145 159.772 39.0212 159.772 39.0753 160.21Z" fill="#F3D1A4"/>
<path d="M46.4675 161.291C48.5834 170.519 50.168 179.863 51.3925 189.252C52.608 198.632 53.4723 208.047 54.1566 217.472C54.8409 226.878 55.3631 236.294 55.9033 245.709C56.4435 255.178 57.0017 264.639 57.758 274.09C58.5143 283.416 59.4687 292.733 60.7923 302.006C60.9633 303.194 61.1434 304.382 61.3235 305.57C61.3865 306.008 62.0528 305.82 61.9897 305.391C60.5402 296.021 59.5047 286.587 58.6944 277.136C57.8841 267.694 57.3079 258.225 56.7586 248.764C56.2184 239.349 55.7142 229.924 55.057 220.518C54.3997 211.084 53.5984 201.66 52.4549 192.271C51.3295 182.999 49.8709 173.762 47.9081 164.632C47.656 163.462 47.3949 162.283 47.1248 161.112C47.0348 160.675 46.3685 160.862 46.4675 161.291Z" fill="#F3D1A4"/>
<path d="M54.2735 160.684C56.6415 169.903 58.8834 179.148 60.9992 188.421C63.1151 197.694 65.1139 206.984 66.9866 216.31C68.8594 225.627 70.6061 234.972 72.2177 244.333C73.8384 253.695 75.333 263.075 76.7015 272.473C78.0791 281.933 79.3305 291.402 80.447 300.898C80.5821 302.059 80.7171 303.221 80.8522 304.382C80.9062 304.811 81.5905 304.82 81.5454 304.382C80.465 294.966 79.2585 285.569 77.926 276.18C76.5935 266.774 75.1349 257.394 73.5502 248.023C71.9566 238.607 70.2369 229.219 68.3912 219.848C66.5454 210.477 64.5736 201.124 62.4758 191.807C60.378 182.48 58.1541 173.181 55.8041 163.917C55.516 162.783 55.2279 161.648 54.9308 160.514C54.8318 160.076 54.1655 160.255 54.2735 160.684Z" fill="#F3D1A4"/>
<path d="M57.317 113.606C59.892 114.41 61.8728 116.509 63.1963 118.85C64.5108 121.181 65.2671 123.781 66.1495 126.309C68.4364 132.794 71.7407 139.191 71.6327 146.06C71.6057 148.195 71.1825 150.446 69.787 152.072C68.2383 153.868 65.8074 154.591 63.5114 155.226C62.278 155.565 61.0084 155.913 59.7389 155.779C57.7581 155.574 56.0385 154.207 54.994 152.519C53.9586 150.83 53.5084 148.856 53.2383 146.891C52.509 141.701 52.8872 136.43 53.2563 131.204C53.6255 126.032 54.0307 120.708 56.3536 116.063" fill="#8969E2"/>
<path d="M30.7566 108.907C26.0117 110.22 19.5111 112.552 15.3514 115.187C14.7031 115.598 15.0903 116.474 14.7301 117.144C13.9468 118.618 15.8286 119.609 16.4678 121.155C18.2145 125.38 17.3682 130.186 18.0165 134.715C18.9798 141.495 23.2926 147.74 22.8424 154.573C22.8064 155.109 22.7433 155.69 22.9955 156.172C23.4276 157.021 24.5531 157.2 25.5165 157.271C34.0879 157.897 42.6773 158.307 51.2668 158.522C51.762 158.531 52.3022 158.531 52.7073 158.245C53.2115 157.888 53.3466 157.218 53.4546 156.61C54.0399 153.305 54.9942 150.062 56.2818 146.953C57.5873 143.809 59.262 140.745 59.7031 137.368C59.9012 135.876 59.8562 134.358 59.8022 132.848C59.6491 128.033 59.487 123.218 59.334 118.403C59.307 117.572 59.271 116.706 58.8478 116C58.4156 115.268 57.6413 114.812 56.885 114.401C53.4006 112.516 49.7181 110.998 45.9096 109.89C45.1443 109.667 44.343 109.461 43.5597 109.595C42.4162 109.801 41.5429 110.676 40.5435 111.275C38.0495 112.766 32.6563 111.096 30.7566 108.907Z" fill="#8969E2"/>
<path d="M56.6149 116.036C56.7499 114.705 55.8046 113.481 54.7061 112.704C53.6077 111.927 52.3112 111.453 51.2217 110.658C50.1323 109.863 49.2319 108.595 49.439 107.272C49.5291 106.719 49.8082 106.209 50.0783 105.718C50.6275 104.718 51.1857 103.717 51.7349 102.725C51.996 102.252 52.2571 101.779 52.3832 101.251C52.6713 100.063 52.2301 98.8217 51.789 97.6782C51.3118 96.4276 50.8256 95.177 50.3484 93.9174C50.2673 93.7119 50.1863 93.4797 50.2764 93.2742C50.4744 92.8008 51.2037 93.0062 51.6269 93.301C53.1485 94.3462 54.5801 95.5254 55.9036 96.8117C57.3802 98.25 58.7397 99.8669 59.514 101.77C60.0633 103.119 60.3064 104.557 60.7115 105.95C61.4318 108.443 62.6473 110.756 63.6917 113.124C65.5915 117.438 66.951 121.959 68.3016 126.47C69.0489 128.98 69.8052 131.508 70.1113 134.108C70.3274 136.01 70.3004 137.931 70.2644 139.843C70.2103 142.844 70.1203 145.881 69.445 148.812C69.0579 150.509 68.0405 152.483 66.2938 152.456C64.9702 152.438 64.0068 151.25 63.3136 150.134C60.4324 145.497 58.8568 140.155 58.0465 134.769C57.2271 129.391 56.6959 121.476 56.6149 116.036Z" fill="#FF9670"/>
<path d="M23.0493 149.973C33.9977 148.785 45.0631 152.019 56.0025 150.848C58.2624 150.607 60.8644 150.286 62.5031 151.849C63.9797 153.26 63.9167 155.779 62.7462 157.459C61.5757 159.129 59.5679 160.049 57.5511 160.443C55.5343 160.836 53.4635 160.764 51.4197 160.898C48.8176 161.059 46.2426 161.532 43.6406 161.765C37.1309 162.345 30.4863 161.363 24.4269 158.942" fill="#FF9670"/>
<path d="M30.4233 108.693C30.4233 108.693 38.8056 114.473 43.7306 109.39C43.7306 109.39 47.4131 110.31 50.9425 111.677C50.9425 111.677 47.0979 119.154 39.5259 112.704C39.5259 112.704 32.278 122.173 24.9761 110.962L30.4233 108.693Z" fill="#7359D1"/>
<path d="M30.6122 108.264C30.6122 108.264 38.9855 112.838 43.2352 108.452C43.2352 108.452 45.9183 109.702 48.9615 110.881C48.9615 110.881 45.6482 117.331 39.1116 111.766C39.1116 111.766 32.8631 119.94 26.5605 110.265L30.6122 108.264Z" fill="#A694EA"/>
<path d="M16.2336 115.205C16.2336 115.205 19.673 116.17 21.5458 130.329C23.4185 144.488 24.9761 144.917 24.9761 144.917C24.9761 144.917 41.5698 149.499 44.3159 150.795L45.3063 162.658C45.3063 162.658 21.4647 163.524 13.6136 160.835C5.76246 158.147 10.1562 124.04 10.1562 124.04C10.1562 124.04 11.7138 114.383 16.2336 115.205Z" fill="#8969E2"/>
<path d="M18.9617 122.352C19.4029 122.352 19.4029 121.664 18.9617 121.664C18.5206 121.664 18.5206 122.352 18.9617 122.352Z" fill="#F3D1A4"/>
<path d="M12.7405 135.269C13.1816 135.269 13.1816 134.581 12.7405 134.581C12.2903 134.581 12.2903 135.269 12.7405 135.269Z" fill="#F3D1A4"/>
<path d="M26.8943 139.575C27.3355 139.575 27.3355 138.887 26.8943 138.887C26.4441 138.887 26.4441 139.575 26.8943 139.575Z" fill="#F3D1A4"/>
<path d="M15.5677 150.428C16.0089 150.428 16.0089 149.741 15.5677 149.741C15.1265 149.75 15.1265 150.428 15.5677 150.428Z" fill="#F3D1A4"/>
<path d="M20.0965 160.353C20.5377 160.353 20.5377 159.665 20.0965 159.665C19.6553 159.674 19.6553 160.353 20.0965 160.353Z" fill="#F3D1A4"/>
<path d="M31.612 150.804C32.0532 150.804 32.0532 150.116 31.612 150.116C31.1619 150.125 31.1619 150.804 31.612 150.804Z" fill="#F3D1A4"/>
<path d="M41.9842 159.978C42.4254 159.978 42.4254 159.29 41.9842 159.29C41.543 159.299 41.543 159.978 41.9842 159.978Z" fill="#F3D1A4"/>
<path d="M41.9842 144.443C42.4254 144.443 42.4254 143.755 41.9842 143.755C41.543 143.755 41.543 144.443 41.9842 144.443Z" fill="#F3D1A4"/>
<path d="M31.7923 131.713C32.2335 131.713 32.2335 131.026 31.7923 131.026C31.3511 131.026 31.3511 131.713 31.7923 131.713Z" fill="#F3D1A4"/>
<path d="M24.6253 113.177C25.0665 113.177 25.0665 112.489 24.6253 112.489C24.1841 112.489 24.1841 113.177 24.6253 113.177Z" fill="#F3D1A4"/>
<path d="M31.9813 121.038C32.4224 121.038 32.4224 120.351 31.9813 120.351C31.5401 120.351 31.5401 121.038 31.9813 121.038Z" fill="#F3D1A4"/>
<path d="M43.8748 130.4C44.316 130.4 44.316 129.713 43.8748 129.713C43.4336 129.713 43.4246 130.4 43.8748 130.4Z" fill="#F3D1A4"/>
<path d="M46.324 119.538C46.7652 119.538 46.7652 118.85 46.324 118.85C45.8829 118.859 45.8829 119.538 46.324 119.538Z" fill="#F3D1A4"/>
<path d="M55.0032 115.419C55.4444 115.419 55.4444 114.732 55.0032 114.732C54.5621 114.741 54.5621 115.419 55.0032 115.419Z" fill="#F3D1A4"/>
<path d="M55.0032 127.595C55.4444 127.595 55.4444 126.907 55.0032 126.907C54.5621 126.907 54.5621 127.595 55.0032 127.595Z" fill="#F3D1A4"/>
<path d="M54.0671 140.888C54.5083 140.888 54.5083 140.2 54.0671 140.2C53.6169 140.2 53.6169 140.888 54.0671 140.888Z" fill="#F3D1A4"/>
<path d="M54.6253 148.937C55.0665 148.937 55.0665 148.249 54.6253 148.249C54.1841 148.249 54.1841 148.937 54.6253 148.937Z" fill="#F3D1A4"/>
<path d="M64.4393 153.618C64.8805 153.618 64.8805 152.93 64.4393 152.93C63.9981 152.93 63.9981 153.618 64.4393 153.618Z" fill="#F3D1A4"/>
<path d="M19.2952 127.694C19.5203 130.561 19.7454 133.438 19.9615 136.305C20.1416 138.628 20.1325 141.102 20.8889 143.327C21.204 144.247 21.6722 145.131 22.3654 145.828C23.1668 146.623 24.2112 147.079 25.3006 147.32C26.5431 147.597 27.8396 147.677 29.1091 147.775C30.5497 147.891 31.9813 147.972 33.4219 148.034C36.6722 148.168 39.9225 148.195 43.1728 148.213C43.6139 148.213 43.6139 147.534 43.1728 147.525C37.7346 147.489 32.2604 147.498 26.8492 146.882C25.6698 146.748 24.4363 146.516 23.4459 145.837C22.6175 145.274 22.0323 144.408 21.6722 143.487C20.8708 141.442 20.8618 139.137 20.6998 136.984C20.4567 133.893 20.2226 130.793 19.9795 127.703C19.9525 127.256 19.2682 127.256 19.2952 127.694Z" fill="#7359D1"/>
<path d="M17.3592 144.944C18.5207 144.944 19.6821 145.015 20.8346 145.149C21.0237 145.167 21.1767 144.979 21.1767 144.81C21.1767 144.604 21.0147 144.488 20.8346 144.47C19.6821 144.336 18.5207 144.265 17.3592 144.265C16.918 144.256 16.918 144.944 17.3592 144.944Z" fill="#7359D1"/>
<path d="M52.4644 128.024C53.6979 133.804 54.9404 139.646 54.8864 145.587C54.8684 147.293 54.7513 148.99 54.4902 150.67C54.4272 151.098 55.0844 151.286 55.1565 150.848C56.0748 144.854 55.3095 138.806 54.1751 132.893C53.851 131.204 53.4908 129.516 53.1307 127.837C53.0406 127.408 52.3744 127.595 52.4644 128.024Z" fill="#7359D1"/>
</g>
<g clip-path="url(#clip1_101_4)">
<path d="M106.31 53.09C106.36 50.07 104.22 48.12 100.93 48.06C98.2301 48.01 96.0301 49.18 94.4101 51.19C93.8601 51.88 92.8701 52.02 92.1701 51.5L88.6601 48.9C87.9701 48.39 87.7901 47.41 88.2801 46.7C91.1701 42.47 95.7101 39.9 101.93 40C109.52 40.13 114.72 44.35 114.59 51.62C114.43 60.78 107.07 62.26 105.93 67.66C105.77 68.42 105.1 68.96 104.32 68.95L99.8701 68.87C98.8901 68.85 98.1401 67.98 98.3001 67.01C99.4301 59.94 106.23 58.05 106.31 53.09ZM96.9601 78.69C97.0101 75.55 99.0701 73.97 101.9 74.02C104.74 74.07 106.73 75.72 106.68 78.86C106.63 81.94 104.57 83.76 101.73 83.71C98.8901 83.66 96.9001 81.78 96.9601 78.69Z" fill="#B3DAC9"/>
</g>
<g clip-path="url(#clip2_101_4)">
<path d="M43.3101 13.09C43.3601 10.07 41.2201 8.12001 37.9301 8.06001C35.2301 8.01001 33.0301 9.18001 31.4101 11.19C30.8601 11.88 29.8701 12.02 29.1701 11.5L25.6601 8.90001C24.9701 8.39001 24.7901 7.41001 25.2801 6.70001C28.1701 2.47001 32.7101 -0.099992 38.9301 8.04011e-06C46.5201 0.130008 51.7201 4.35001 51.5901 11.62C51.4301 20.78 44.0701 22.26 42.9301 27.66C42.7701 28.42 42.1001 28.96 41.3201 28.95L36.8701 28.87C35.8901 28.85 35.1401 27.98 35.3001 27.01C36.4301 19.94 43.2301 18.05 43.3101 13.09ZM33.9601 38.69C34.0101 35.55 36.0701 33.97 38.9001 34.02C41.7401 34.07 43.7301 35.72 43.6801 38.86C43.6301 41.94 41.5701 43.76 38.7301 43.71C35.8901 43.66 33.9001 41.78 33.9601 38.69Z" fill="#B3DAC9"/>
</g>
<defs>
<clipPath id="clip0_101_4">
<rect width="90" height="262" fill="white" transform="translate(0 63)"/>
</clipPath>
<clipPath id="clip1_101_4">
<rect width="26.59" height="43.71" fill="white" transform="translate(88 40)"/>
</clipPath>
<clipPath id="clip2_101_4">
<rect width="26.59" height="43.71" fill="white" transform="translate(25)"/>
</clipPath>
</defs>
</svg>
