<svg width="150" height="46" viewBox="0 0 150 46" fill="none" xmlns="http://www.w3.org/2000/svg">
<g clip-path="url(#clip0_157_14)">
<path d="M23.3419 0C19.7846 0 15.7099 1.37547 13.7568 2.12328C13.1306 2.36262 12.8552 3.0816 13.1668 3.66504C13.8087 4.86558 14.4506 6.06611 15.0915 7.26665C15.362 7.77224 15.9803 7.99524 16.5164 7.77512C17.3533 7.43101 18.3734 7.08306 19.5562 6.82161C19.5562 6.82161 21.4339 6.39677 23.2674 6.38908C29.9596 6.3612 35.7542 10.1406 38.5304 15.6464C38.7313 15.9751 38.7401 16.3826 38.5529 16.7123C38.3501 17.0689 37.9473 17.2794 37.525 17.2496C35.861 17.2496 34.197 17.2496 32.533 17.2496C32.1792 17.2496 31.849 17.0853 31.6353 16.8094C30.9454 15.9213 30.1095 15.1475 29.1639 14.5218C29.1521 14.5141 29.1403 14.5054 29.1276 14.4977C29.0178 14.4256 28.9061 14.3564 28.7934 14.2882C28.7366 14.2536 28.6798 14.2199 28.6229 14.1873C28.5818 14.1632 28.5396 14.1402 28.4975 14.1171C26.9775 13.2664 25.2175 12.7791 23.3419 12.7791C18.4949 12.7791 14.4212 16.0251 13.255 20.4206C13.0424 21.2338 12.9287 22.0864 12.9287 22.964C12.9287 23.7637 13.0257 24.5403 13.2031 25.2862C14.0145 28.7033 16.5752 31.459 19.911 32.5971C20.8714 32.9566 21.8817 33.1747 22.9117 33.2151C26.4964 33.3564 29.697 31.7205 31.6765 29.1329C31.7529 29.033 31.8049 28.9272 31.8382 28.8186C32.0371 28.1852 31.552 27.4729 30.8092 27.4729H27.6998H24.5825C23.9612 27.4729 23.4565 26.9789 23.4565 26.3685V22.1883C23.4565 21.5789 23.9602 21.0839 24.5825 21.0839H27.6606H33.5453H39.1507C39.772 21.0839 40.2767 21.5779 40.2767 22.1883V23.6397H40.263C40.212 24.9632 40.0023 26.2464 39.6535 27.4729C37.6622 34.4743 31.115 39.6119 23.3409 39.6119C20.8694 39.6119 18.5234 39.0909 16.4066 38.1576C15.8549 37.9144 15.2062 38.1355 14.9347 38.6661L13.0855 42.2811C12.8043 42.8309 13.0336 43.499 13.5971 43.7681C15.2679 44.5688 18.882 46.001 23.3409 46.001C36.2089 46.001 46.6553 35.8353 46.7886 23.2446C46.9248 10.5501 36.2843 0 23.3419 0Z" fill="white"/>
<path d="M9.10782 9.81575C9.69384 9.81575 10.1691 9.34957 10.1691 8.77477C10.1691 8.19998 9.69384 7.7338 9.10782 7.7338C8.52179 7.7338 8.04651 8.20094 8.04651 8.77573C8.04651 9.35053 8.52179 9.81575 9.10782 9.81575Z" fill="white"/>
<path d="M9.10782 36.4092C8.52179 36.4092 8.04651 36.8754 8.04651 37.4502C8.04651 38.025 8.52179 38.4911 9.10782 38.4911C9.69384 38.4911 10.1691 38.025 10.1691 37.4502C10.1691 36.8754 9.69384 36.4092 9.10782 36.4092Z" fill="white"/>
<path d="M6.17775 29.9942C5.42611 29.3521 4.28739 29.429 3.63277 30.1662C2.97815 30.9034 3.05655 32.0204 3.80819 32.6624C4.55982 33.3045 5.69855 33.2276 6.35317 32.4904C7.00779 31.7541 6.92939 30.6362 6.17775 29.9942Z" fill="white"/>
<path d="M6.17775 13.1482C5.42611 12.5061 4.28739 12.583 3.63277 13.3203C2.97815 14.0575 3.05655 15.1744 3.80819 15.8165C4.55982 16.4586 5.69855 16.3817 6.35317 15.6444C7.00779 14.9072 6.92939 13.7903 6.17775 13.1482Z" fill="white"/>
<path d="M5.37814 20.7955C4.13651 19.593 2.1364 19.6055 0.911435 20.8234C-0.314507 22.0412 -0.301767 24.003 0.939854 25.2045C2.18148 26.407 4.18159 26.3945 5.40655 25.1766C6.6325 23.9598 6.61976 21.998 5.37814 20.7955Z" fill="white"/>
<path d="M64.6525 27.5096C63.8509 28.1498 62.7749 28.4699 61.4245 28.4699C60.0457 28.4699 58.9354 28.1334 58.0936 27.4596C57.1832 26.7416 56.7285 25.7247 56.7285 24.4117V23.9993H60.0339C60.0339 24.4713 60.1398 24.8663 60.3515 25.1864C60.5915 25.5565 60.9385 25.742 61.3902 25.742C62.231 25.742 62.6524 25.3354 62.6524 24.5213C62.6524 24.1512 62.5064 23.8503 62.2144 23.6206C62.0997 23.5312 61.9508 23.4409 61.7675 23.3515L61.5186 23.2333L60.1025 22.6354C59.6331 22.4441 59.2294 22.2509 58.8923 22.0548C58.4915 21.8251 58.1544 21.5752 57.879 21.3051C57.244 20.6707 56.9265 19.896 56.9265 18.9809C56.9265 17.8525 57.4076 16.9297 58.369 16.2108C59.25 15.5543 60.2858 15.2255 61.4765 15.2255C62.1458 15.2255 62.7867 15.3438 63.3992 15.5792C64.0626 15.8378 64.5957 16.2021 64.9955 16.674C65.5335 17.3257 65.8197 18.1649 65.854 19.1914H62.5662C62.4398 18.3609 62.0429 17.9457 61.3726 17.9457C60.6112 17.9457 60.2309 18.2792 60.2309 18.9473C60.2309 19.1828 60.2711 19.3625 60.3515 19.4865C60.4828 19.7057 60.8806 19.9748 61.5451 20.2949L62.919 20.9014C63.4001 21.1148 63.8 21.3195 64.1204 21.5156C64.5095 21.7511 64.8299 22.001 65.0818 22.2653C65.6658 22.8718 65.9579 23.635 65.9579 24.5559C65.9579 25.8333 65.5227 26.8185 64.6525 27.5096Z" fill="white"/>
<path d="M78.6887 26.5742C77.355 27.8372 75.7302 28.4687 73.8124 28.4687C71.9465 28.4687 70.3472 27.8488 69.0135 26.6079C67.6513 25.3506 66.9702 23.8156 66.9702 22.0018C66.9702 21.0368 67.1388 20.1275 67.4769 19.2739C67.6542 18.8193 67.9374 18.3425 68.3265 17.8427C69.6769 16.0972 71.5114 15.2244 73.829 15.2244C75.74 15.2244 77.3599 15.8588 78.6877 17.1276C80.0273 18.4021 80.6967 19.9737 80.6967 21.8432C80.6976 23.7175 80.0283 25.2949 78.6887 26.5742ZM76.4142 19.2326C75.7331 18.4694 74.8776 18.0878 73.8476 18.0878C72.8059 18.0878 71.9475 18.4579 71.2723 19.1989C70.6196 19.9122 70.2933 20.782 70.2933 21.8096C70.2933 22.8592 70.6226 23.7464 71.2801 24.4701C71.9612 25.2276 72.8285 25.6072 73.881 25.6072C74.8943 25.6072 75.738 25.2256 76.4132 24.4625C77.0541 23.7387 77.3746 22.8707 77.3746 21.8605C77.3755 20.832 77.0551 19.9564 76.4142 19.2326Z" fill="white"/>
<path d="M85.6768 18.3223V20.4946H89.4536V23.3571H85.6768V28.2236H82.4919V15.4589H89.5918V18.3214H85.6768V18.3223Z" fill="white"/>
<path d="M96.5957 18.3223V28.2246H93.2736V18.3223H90.707V15.4599H99.1455V18.3223H96.5957Z" fill="white"/>
<path d="M112.795 28.2246H109.876L107.928 19.9641H107.894L105.937 28.2246H102.932L99.5757 15.4599H102.95L104.692 23.7617H104.726L106.64 15.4599H109.19L111.07 23.7954H111.104L112.881 15.4599H116.246L112.795 28.2246Z" fill="white"/>
<path d="M125.483 28.2246L124.848 26.381H120.332L119.645 28.2246H116.074L121.294 15.4599H123.912L129.088 28.2246H125.483ZM122.632 19.4344H122.58L121.241 23.7963H123.971L122.632 19.4344Z" fill="white"/>
<path d="M136.643 28.2246L133.639 24.1068H133.604V28.2246H130.419V15.4599H134.531C134.966 15.4599 135.315 15.4685 135.579 15.4849C135.968 15.5022 136.317 15.5387 136.626 15.5945C137.405 15.7233 138.042 15.9847 138.54 16.3778C139.61 17.2198 140.146 18.3819 140.146 19.8641C140.146 20.8801 139.862 21.7528 139.296 22.4824C138.706 23.2571 137.911 23.7233 136.91 23.88L140.438 28.2246H136.643ZM136.317 18.7183C135.944 18.455 135.444 18.3223 134.814 18.3223H133.604V21.8759H134.78C136.233 21.8759 136.961 21.2665 136.961 20.0486C136.961 19.4594 136.746 19.0163 136.317 18.7183Z" fill="white"/>
<path d="M141.897 28.2246V15.4599H149.125V18.3223H145.082V20.3091H148.997V23.1716H145.082V25.3612H149.125V28.2236H141.897V28.2246Z" fill="white"/>
</g>
<defs>
<clipPath id="clip0_157_14">
<rect width="150" height="46" fill="white"/>
</clipPath>
</defs>
</svg>
