<svg width="201" height="379" viewBox="0 0 201 379" fill="none" xmlns="http://www.w3.org/2000/svg">
<g clip-path="url(#clip0_106_7)">
<path d="M57.4626 282.047L50.2095 283.203L50.5693 289.944L57.9859 290.461L57.4626 282.047Z" fill="#FB9D89"/>
<path d="M38.9823 310.422C38.9169 310.471 38.8515 310.512 38.7861 310.545C38.5244 310.709 38.2954 310.767 38.1237 310.685C35.4007 309.487 34.1333 302.516 35.646 295.562C37.1506 288.608 35.9241 282.744 38.8106 280.341C39.3094 279.931 40.0944 279.808 41.0266 279.89C41.0266 279.89 41.0266 279.89 41.0348 279.882C41.1329 279.898 41.2392 279.898 41.3537 279.915C43.2181 280.136 45.5649 281.03 47.3802 281.825C47.4947 281.875 47.6092 281.924 47.7237 281.981C49.1546 282.629 50.1768 283.17 50.1768 283.17L50.5856 289.944C50.5856 289.944 49.8824 291.478 48.9666 293.553C48.9339 293.618 48.9012 293.692 48.8603 293.766C48.5904 294.389 48.2961 295.045 48.0017 295.734C47.969 295.8 47.9363 295.882 47.8954 295.947L47.2494 297.448C47.1267 297.727 46.9877 298.039 46.8323 298.383C46.7996 298.449 46.7669 298.523 46.726 298.596C45.802 300.515 44.2974 303.222 42.7847 305.6C42.7438 305.666 42.7029 305.723 42.6702 305.789C41.2801 307.913 39.9308 309.725 38.9823 310.422Z" fill="#FF7777"/>
<path d="M38.9823 310.422C38.9169 310.471 38.8515 310.512 38.7861 310.545C37.9847 309.545 37.5677 308.306 37.306 307.404C36.7581 305.493 36.4965 303.468 36.5374 301.45C36.5374 301.401 36.5374 301.352 36.5374 301.303C36.5455 300.729 36.5864 300.163 36.6437 299.605C36.7581 298.449 36.9953 297.276 37.2242 296.144C37.4695 294.889 37.723 293.594 37.8457 292.306C37.9275 291.347 37.9275 290.354 37.9356 289.395C37.952 287.459 37.9683 285.458 38.6143 283.597C39.0968 282.203 39.939 280.915 41.0266 279.89C41.0266 279.89 41.0266 279.89 41.0348 279.882C41.1329 279.898 41.2392 279.898 41.3537 279.915C40.536 280.636 39.8573 281.514 39.3585 282.481C39.3094 282.547 39.2767 282.621 39.244 282.695L39.2358 282.703C39.0804 283.023 38.9496 283.334 38.8351 283.662C38.2137 285.483 38.1973 287.468 38.181 289.387C38.1646 290.354 38.1646 291.355 38.0747 292.331C37.9602 293.627 37.7067 294.93 37.4614 296.193C37.2406 297.317 37.0116 298.473 36.889 299.63C36.8317 300.187 36.7908 300.753 36.7827 301.327C36.7745 301.417 36.7745 301.508 36.7663 301.581L36.7745 301.59C36.75 303.533 37.0116 305.485 37.5431 307.33C37.7885 308.232 38.1973 309.454 38.9823 310.422Z" fill="white"/>
<path d="M48.844 293.774C48.5987 293.536 48.3534 293.315 48.0835 293.102C47.045 292.265 45.9902 291.732 44.9517 291.519C44.9353 291.511 44.919 291.503 44.8945 291.486C44.8699 291.462 44.8536 291.421 44.8617 291.388C44.8699 291.322 44.9353 291.281 44.9926 291.298C46.0801 291.527 47.1677 292.077 48.2307 292.93C48.4842 293.126 48.7214 293.331 48.9503 293.561C48.9176 293.627 48.8849 293.692 48.844 293.774Z" fill="white"/>
<path d="M47.8872 295.964C47.7237 295.808 47.5438 295.669 47.3721 295.529C46.3336 294.693 45.2787 294.16 44.2402 293.946C44.2239 293.938 44.1911 293.93 44.183 293.914C44.1584 293.889 44.1421 293.848 44.1584 293.807C44.1666 293.741 44.2239 293.709 44.2893 293.717C45.3687 293.955 46.4562 294.504 47.5274 295.349C47.6828 295.472 47.8463 295.619 48.0017 295.751C47.9526 295.816 47.9199 295.89 47.8872 295.964Z" fill="white"/>
<path d="M46.7096 298.596C46.5133 298.4 46.3007 298.227 46.0881 298.047C45.0496 297.21 44.003 296.677 42.9563 296.464C42.9399 296.456 42.9236 296.448 42.9072 296.431C42.8827 296.407 42.8582 296.366 42.8664 296.325C42.8827 296.267 42.9481 296.218 43.0054 296.235C44.0847 296.456 45.1723 297.005 46.2353 297.867C46.4316 298.031 46.6442 298.203 46.8241 298.383C46.7832 298.457 46.7505 298.523 46.7096 298.596Z" fill="white"/>
<path d="M47.7155 281.981C44.9434 282.662 42.0896 282.916 39.2358 282.711L39.2276 282.719C39.2195 282.711 39.2113 282.711 39.1949 282.711C39.1704 282.711 39.1459 282.703 39.1295 282.686C39.105 282.662 39.0886 282.621 39.0886 282.588C39.0968 282.522 39.154 282.473 39.2113 282.473C39.2603 282.473 39.3012 282.481 39.3503 282.481C42.0569 282.662 44.7472 282.44 47.3721 281.817C47.4865 281.875 47.601 281.924 47.7155 281.981Z" fill="white"/>
<path d="M42.6538 305.797C40.8221 304.214 38.8432 302.812 36.758 301.598C36.6926 301.557 36.6436 301.524 36.5781 301.483C36.57 301.475 36.5618 301.475 36.5536 301.475C36.5454 301.467 36.5454 301.467 36.5454 301.458C36.5127 301.426 36.5127 301.368 36.5373 301.327C36.5454 301.319 36.5454 301.319 36.5454 301.311C36.5781 301.278 36.6436 301.262 36.6844 301.286C36.7172 301.303 36.7417 301.319 36.7744 301.335C38.8841 302.566 40.9038 304.001 42.7682 305.6C42.7273 305.666 42.6865 305.723 42.6538 305.797Z" fill="white"/>
<path d="M109.616 315.564L104.915 321.223L109.616 326.053L115.528 321.551L109.616 315.564Z" fill="#FB9D89"/>
<path d="M114.326 349.114C114.31 349.196 114.294 349.27 114.261 349.336C114.171 349.631 114.04 349.828 113.852 349.877C111.015 350.771 105.487 346.367 102.061 340.126C98.6346 333.902 93.8509 330.293 94.4479 326.578C94.546 325.938 95.0611 325.332 95.8216 324.774C95.8216 324.774 95.8216 324.774 95.8216 324.766C95.9034 324.708 95.9852 324.643 96.0833 324.577C97.6288 323.511 99.992 322.633 101.873 322.035C101.995 322.002 102.11 321.961 102.232 321.92C103.737 321.461 104.857 321.198 104.857 321.198L109.608 326.029C109.608 326.029 110.091 327.644 110.761 329.817C110.778 329.891 110.802 329.965 110.827 330.047C111.031 330.695 111.244 331.384 111.473 332.097C111.489 332.171 111.522 332.253 111.538 332.327L112.037 333.877C112.127 334.164 112.233 334.492 112.331 334.853C112.348 334.927 112.372 335 112.388 335.082C112.953 337.133 113.599 340.167 114.016 342.955C114.024 343.029 114.032 343.103 114.048 343.177C114.416 345.711 114.588 347.974 114.326 349.114Z" fill="#FF7777"/>
<path d="M114.326 349.114C114.31 349.196 114.294 349.27 114.261 349.336C113.002 349.114 111.873 348.458 111.08 347.95C109.412 346.867 107.883 345.522 106.591 343.981C106.566 343.94 106.526 343.907 106.501 343.866C106.133 343.431 105.79 342.98 105.471 342.513C104.8 341.561 104.211 340.528 103.639 339.527C103.001 338.42 102.339 337.28 101.587 336.231C101.014 335.451 100.368 334.705 99.7467 333.975C98.4874 332.507 97.1872 330.99 96.4513 329.161C95.8952 327.792 95.6826 326.266 95.838 324.782C95.838 324.782 95.838 324.782 95.838 324.774C95.9198 324.716 96.0015 324.651 96.0997 324.585C95.9607 325.668 96.0261 326.775 96.2877 327.841C96.2959 327.923 96.3123 327.997 96.345 328.079V328.087C96.4349 328.431 96.5494 328.751 96.6802 329.079C97.408 330.859 98.7 332.368 99.9429 333.82C100.573 334.558 101.227 335.304 101.791 336.099C102.56 337.149 103.222 338.297 103.868 339.413C104.44 340.405 105.029 341.43 105.691 342.381C106.01 342.841 106.354 343.3 106.722 343.726C106.779 343.8 106.836 343.866 106.877 343.931H106.885C108.136 345.407 109.625 346.703 111.236 347.745C111.996 348.261 113.108 348.909 114.326 349.114Z" fill="white"/>
<path d="M110.827 330.072C110.483 330.055 110.156 330.055 109.813 330.072C108.488 330.129 107.335 330.424 106.411 330.949C106.395 330.957 106.37 330.957 106.346 330.957C106.313 330.957 106.272 330.941 106.256 330.9C106.215 330.843 106.239 330.769 106.288 330.744C107.253 330.203 108.439 329.891 109.796 329.842C110.115 329.826 110.434 329.826 110.753 329.842C110.786 329.916 110.802 329.99 110.827 330.072Z" fill="white"/>
<path d="M111.538 332.36C111.317 332.352 111.088 332.36 110.867 332.368C109.543 332.425 108.39 332.721 107.466 333.245C107.449 333.254 107.417 333.262 107.4 333.262C107.359 333.262 107.327 333.237 107.31 333.196C107.278 333.139 107.294 333.073 107.351 333.04C108.316 332.507 109.502 332.196 110.859 332.138C111.064 332.13 111.276 332.13 111.473 332.13C111.489 332.204 111.522 332.286 111.538 332.36Z" fill="white"/>
<path d="M112.388 335.123C112.11 335.107 111.832 335.115 111.562 335.123C110.238 335.181 109.093 335.476 108.161 336.001C108.144 336.009 108.12 336.009 108.104 336.009C108.063 336.009 108.022 335.993 108.005 335.952C107.981 335.894 107.997 335.82 108.054 335.796C109.011 335.255 110.189 334.943 111.554 334.894C111.816 334.886 112.078 334.877 112.339 334.894C112.347 334.959 112.364 335.033 112.388 335.123Z" fill="white"/>
<path d="M102.232 321.944C100.589 324.29 98.61 326.365 96.3286 328.087V328.095C96.3204 328.095 96.3122 328.103 96.304 328.112C96.2877 328.128 96.255 328.136 96.2386 328.136C96.1977 328.136 96.165 328.12 96.1487 328.087C96.1078 328.03 96.1242 327.956 96.165 327.923C96.2059 327.898 96.2386 327.866 96.2795 327.841C98.4383 326.184 100.311 324.249 101.881 322.051C101.995 322.018 102.11 321.977 102.232 321.944Z" fill="white"/>
<path d="M114.057 343.218C111.644 343.234 109.232 343.488 106.861 343.948C106.787 343.956 106.722 343.964 106.648 343.989C106.64 343.989 106.632 343.997 106.624 343.997C106.615 343.997 106.615 343.997 106.607 343.989C106.558 343.989 106.526 343.94 106.517 343.899C106.517 343.89 106.517 343.89 106.517 343.882C106.517 343.833 106.558 343.784 106.607 343.767C106.648 343.759 106.673 343.759 106.705 343.751C109.101 343.283 111.563 343.029 114.024 343.005C114.024 343.07 114.032 343.144 114.057 343.218Z" fill="white"/>
<path d="M151.451 260.314C147.534 246.635 133.78 204.966 133.78 204.966L114.858 204.753L86.7122 201.259L83.2287 224.919C83.2287 224.919 89.0917 255.476 94.4151 276.905C70.1944 277.028 54.6987 280.284 54.6987 280.284V294.201C61.0115 296.038 95.1919 298.063 104.244 298.572C104.841 298.67 105.462 298.711 106.108 298.678C106.329 298.687 106.452 298.695 106.452 298.695L106.444 298.654C111.759 298.186 118.145 293.151 118.963 282.719C119.388 277.331 119.936 265.276 120.467 252.261C124.343 261.126 131.858 278.627 131.858 278.627C131.858 278.627 114.22 295.849 108.333 314.252L116.256 322.273C116.256 322.273 153.258 294.668 155.138 278.627C155.138 278.635 155.376 274.002 151.451 260.314Z" fill="#3B57D2"/>
<path d="M122.062 225.788L120.459 252.269" stroke="#42353B" stroke-width="0.2817" stroke-miterlimit="10" stroke-linecap="round" stroke-linejoin="round"/>
<path d="M123.027 205.13C123.027 205.13 124.67 223.574 124.082 224.919C123.493 226.264 121.26 225.641 121.26 225.641" stroke="#42353B" stroke-width="0.2817" stroke-miterlimit="10" stroke-linecap="round" stroke-linejoin="round"/>
<path d="M126.191 210.173C126.918 210.173 127.508 209.582 127.508 208.853C127.508 208.124 126.918 207.533 126.191 207.533C125.464 207.533 124.875 208.124 124.875 208.853C124.875 209.582 125.464 210.173 126.191 210.173Z" fill="white"/>
<path d="M88.8382 205.515C87.2682 228.585 94.3823 251.228 97.9394 274.075C98.2256 275.929 98.3727 278.135 96.9663 279.373C96.0504 280.177 94.7339 280.308 93.5155 280.39C80.5221 281.284 67.4877 281.596 54.4697 281.35" stroke="#42353B" stroke-width="0.2817" stroke-miterlimit="10"/>
<path d="M120.966 246.348C125.218 256.189 129.462 266.038 133.714 275.88C133.919 276.347 134.115 276.815 134.197 277.315C134.491 279.086 133.265 280.718 132.112 282.096C123.746 292.183 115.888 302.68 108.553 313.547" stroke="#42353B" stroke-width="0.2817" stroke-miterlimit="10"/>
<path d="M89.5332 227.026C92.2398 225.837 94.6112 222.819 95.8378 220.129C97.9229 215.553 99.0514 210.387 98.0538 205.466" stroke="#42353B" stroke-width="0.2817" stroke-miterlimit="10"/>
<path d="M145.653 207.549C145.653 207.549 145.187 212.051 136.674 213.774L133.902 205.318C133.894 205.318 141.728 205.031 145.653 207.549Z" fill="#6887FF"/>
<path opacity="0.43" d="M145.653 207.549C145.653 207.549 145.187 212.051 136.674 213.774L133.902 205.318C133.894 205.318 141.728 205.031 145.653 207.549Z" fill="#6887FF"/>
<path d="M155.727 143.811C155.727 143.811 152.432 175.073 155.727 180.494C159.023 185.923 164.984 183.57 165 170.653C165.017 157.737 162.547 144.877 162.547 144.877L155.727 143.811Z" fill="#FB9D89"/>
<path d="M155.727 143.811C155.727 143.811 153.258 140.982 151.729 140.268C150.2 139.555 147.91 139.268 147.199 135.077C146.495 130.887 145.555 126.524 146.724 125.991C147.902 125.457 149.725 126.876 150.191 128.467C150.666 130.058 150.666 130.058 150.666 130.058C150.666 130.058 150.428 127.696 151.426 127.344C152.424 126.991 161.361 126.515 163.128 127.229C164.894 127.934 164.599 135.938 164.125 138.218C163.651 140.498 162.539 144.861 162.539 144.861L155.727 143.811Z" fill="#FB9D89"/>
<path d="M163.316 131.19C163.316 131.19 163.847 134.315 162.195 135.02C160.552 135.725 151.516 135.356 150.96 134.372C150.502 133.544 150.666 130.066 150.666 130.066C150.666 130.066 150.502 128.549 151.426 127.352" stroke="#42353B" stroke-width="0.2817" stroke-miterlimit="10" stroke-linecap="round" stroke-linejoin="round"/>
<path d="M154.108 127.057C153.601 128.049 153.438 129.181 153.331 130.296C153.184 131.887 153.127 133.486 153.184 135.086" stroke="#42353B" stroke-width="0.2817" stroke-miterlimit="10" stroke-linecap="round" stroke-linejoin="round"/>
<path d="M157.976 126.753C157.224 129.517 156.938 132.404 157.142 135.266C157.142 135.315 157.158 135.381 157.216 135.389C157.265 135.397 157.248 135.282 157.216 135.323" stroke="#42353B" stroke-width="0.2817" stroke-miterlimit="10" stroke-linecap="round" stroke-linejoin="round"/>
<path d="M160.928 126.852C160.241 129.607 160.061 132.494 160.388 135.315" stroke="#42353B" stroke-width="0.2817" stroke-miterlimit="10" stroke-linecap="round" stroke-linejoin="round"/>
<path d="M155.253 135.323C156.169 135.725 156.97 136.389 157.543 137.218" stroke="#42353B" stroke-width="0.2817" stroke-miterlimit="10" stroke-linecap="round" stroke-linejoin="round"/>
<path d="M47.6746 166.913L42.752 185.382L50.8228 186.563L57.8388 171.039L47.6746 166.913Z" fill="#FB9D89"/>
<path d="M42.7519 185.382C42.7519 185.382 35.4415 198.618 36.2102 200.956C36.9788 203.293 48.1488 207.156 51.7958 203.867C55.4428 200.587 50.8227 186.563 50.8227 186.563L42.7519 185.382Z" fill="#FB9D89"/>
<path d="M36.7908 203.654C37.1179 203.834 37.5104 203.842 37.862 203.974C38.418 204.187 38.8269 204.671 39.3502 204.958C40.5359 205.606 41.9996 205.081 43.3488 205.13C44.2238 205.163 45.0742 205.433 45.941 205.573C47.5601 205.819 49.2609 205.556 50.7246 204.827C51.2561 204.564 51.7713 204.228 52.1229 203.744C52.5481 203.154 52.6871 202.407 52.8016 201.686C53.0878 199.947 53.2922 198.02 52.311 196.568C51.8449 195.879 51.1498 195.371 50.4139 194.969C47.9362 193.624 44.8698 193.419 42.2368 194.42C40.078 195.248 38.5489 196.765 37.2732 198.643C36.4801 199.808 34.8365 202.604 36.7908 203.654Z" fill="#FB9D89"/>
<path d="M50.8228 186.563C50.8228 186.563 54.4126 191.303 55.3121 193.813C56.2116 196.33 58.2804 199.57 57.569 200.66C56.8576 201.751 54.0283 198.553 53.0388 196.503C52.0494 194.452 50.6511 191.541 50.6511 191.541L50.8801 186.169" fill="#FB9D89"/>
<path d="M100.654 130.452C100.654 130.452 104.906 170.276 105.364 183.643C105.822 197.011 106.762 204.4 106.762 204.4L131.85 205.655C131.85 205.655 124.196 187.957 120.892 168.414C117.581 148.879 116.853 135.979 116.853 135.979L100.654 130.452Z" fill="#FF7777"/>
<path d="M123.444 105.898C123.46 106.259 123.477 106.653 123.289 106.964C122.863 106.284 122.626 105.513 122.397 104.742C121.874 102.962 121.408 101.166 120.991 99.362C120.844 98.7387 120.786 97.9186 121.342 97.6152C123.06 96.6557 123.395 104.922 123.444 105.898Z" fill="#42353B"/>
<path d="M92.3381 107.383C91.6185 106.259 90.6944 105.111 90.8007 103.782C90.8253 103.43 90.9234 103.085 90.9152 102.741C90.8989 102.134 90.5636 101.593 90.2938 101.06C89.4352 99.3374 89.2798 97.0084 90.6536 95.6634C91.0379 95.2862 91.5203 95.0073 91.8801 94.6055C92.6406 93.7362 92.7224 92.3912 93.5646 91.6039C94.4723 90.751 95.9769 90.8822 97.0481 91.5137C98.708 92.4896 99.5993 94.3595 100.352 96.1391C101.12 97.9269 101.856 99.9443 101.186 101.773C100.957 102.396 100.581 102.962 100.188 103.495C99.0351 105.07 97.735 106.53 96.3121 107.858C95.7806 108.359 94.9547 109.392 94.1534 109.334C93.2621 109.269 92.7551 108.03 92.3381 107.383Z" fill="#42353B"/>
<path d="M123.509 109.539C123.485 108.654 123.427 107.768 123.338 106.899C123.313 106.538 123.264 106.185 123.207 105.816L122.79 103.454C122.79 103.413 122.773 103.364 122.765 103.323C122.724 103.134 122.692 102.979 122.651 102.806C122.602 102.618 122.569 102.446 122.503 102.265C121.898 99.9771 120.958 97.7629 119.47 95.9833C117.303 93.3507 114.106 91.5383 110.679 91.2513C109.764 91.1775 108.839 91.2103 107.915 91.3661C107.711 91.3825 107.523 91.4317 107.31 91.4809C107.212 91.4973 107.114 91.5219 107.008 91.5465C106.803 91.6039 106.615 91.6449 106.386 91.7105C103.451 92.5716 101.006 94.5235 99.3295 97.156C98.2501 98.8454 97.8576 101.166 97.6123 103.151C97.3997 104.931 97.3997 106.735 97.6287 108.523C97.6368 108.605 97.6532 108.695 97.6777 108.81C97.7023 109.08 97.7513 109.351 97.8086 109.597C98.291 112.238 99.215 114.747 100.204 117.224C101.096 119.471 101.734 121.89 101.815 124.342C101.873 125.597 101.766 126.852 101.513 128.082C101.357 128.804 100.932 129.46 100.72 130.165C100.147 132.018 102.625 133.946 103.901 134.979C105.675 136.414 107.776 137.464 110.009 137.948C111.137 138.194 112.298 138.3 113.46 138.226C115.447 138.112 117.376 137.636 116.861 135.192C116.632 134.118 116.068 133.15 115.913 132.051C115.766 130.969 115.741 129.886 115.667 128.795C115.643 128.328 115.594 127.852 115.586 127.368C115.577 127.024 115.447 126.097 115.651 125.81C115.659 125.794 115.659 125.786 115.659 125.753C115.651 125.736 115.667 125.712 115.676 125.704C115.684 125.695 115.684 125.687 115.7 125.679C116.632 125.564 117.605 125.679 118.48 125.31C120.5 124.482 121.588 122.604 122.234 120.57C122.61 119.397 122.839 118.167 123.019 117.06C123.403 114.657 123.591 112.098 123.509 109.539Z" fill="#FB9D89"/>
<path d="M107.425 122.768C107.425 122.768 111.391 128.574 115.716 129.14C115.577 128.024 115.512 126.934 115.651 125.794C115.659 125.777 115.659 125.769 115.659 125.753C115.659 125.728 115.667 125.712 115.676 125.695C115.684 125.679 115.692 125.671 115.7 125.671C115.7 125.671 109.33 124.334 107.425 122.768Z" fill="#FF7777"/>
<path d="M99.6157 111.188C99.166 110.729 97.3915 107.079 94.6604 107.965C91.9374 108.85 92.3299 115.666 95.936 117.06C99.5503 118.454 100.924 116.65 100.924 116.65L99.6157 111.188Z" fill="#FB9D89"/>
<path d="M97.7187 110.688C97.3998 109.982 96.9419 109.195 96.1733 109.113C95.6172 109.056 95.1021 109.433 94.7586 109.867C93.7528 111.155 93.8264 113.049 94.5787 114.493C94.8976 115.108 95.3474 115.69 95.9688 116.002C96.5903 116.313 97.408 116.297 97.9232 115.83C98.2748 115.51 98.4465 115.042 98.5365 114.575" stroke="#42353B" stroke-width="0.2817" stroke-miterlimit="10" stroke-linecap="round" stroke-linejoin="round"/>
<path d="M95.2737 109.384C95.2737 109.384 97.4079 111.016 98.2174 115.436" stroke="#42353B" stroke-width="0.2817" stroke-miterlimit="10" stroke-linecap="round" stroke-linejoin="round"/>
<path d="M117.573 115.764C117.54 115.764 117.499 115.748 117.483 115.715C117.458 115.666 117.475 115.608 117.515 115.584C117.932 115.346 118.3 115.018 118.587 114.624C118.66 114.517 118.742 114.403 118.758 114.28C118.807 113.993 118.595 113.738 118.39 113.484C118.341 113.427 118.292 113.369 118.251 113.312C117.524 112.361 117.638 110.999 117.818 109.917C118.006 108.793 118.26 107.67 118.57 106.579C118.587 106.53 118.636 106.497 118.685 106.513C118.734 106.53 118.767 106.587 118.75 106.636C118.439 107.719 118.186 108.842 118.006 109.958C117.826 111.065 117.728 112.311 118.399 113.197C118.439 113.254 118.489 113.312 118.538 113.369C118.758 113.64 119.02 113.952 118.955 114.321C118.922 114.485 118.832 114.632 118.742 114.755C118.439 115.165 118.055 115.518 117.614 115.764C117.597 115.756 117.589 115.764 117.573 115.764Z" fill="#42353B"/>
<path d="M121.064 108.227C121.122 108.654 120.827 109.039 120.418 109.088C120.009 109.138 119.633 108.834 119.576 108.408C119.527 107.981 119.813 107.596 120.222 107.547C120.631 107.497 121.007 107.801 121.064 108.227Z" fill="#42353B"/>
<path d="M111.865 108.703C112.012 109.17 111.75 109.671 111.301 109.818C110.843 109.966 110.36 109.695 110.213 109.228C110.074 108.76 110.328 108.26 110.777 108.112C111.235 107.973 111.726 108.235 111.865 108.703Z" fill="#42353B"/>
<path d="M105.634 104.299C105.389 104.676 105.217 105.226 105.544 105.529C105.822 105.792 106.272 105.669 106.64 105.546C108.054 105.062 109.526 104.734 111.015 104.561C111.35 104.52 111.693 104.488 111.996 104.348C112.298 104.209 112.568 103.93 112.593 103.594C112.699 102.355 110.36 101.634 109.404 101.822C107.883 102.101 106.468 102.995 105.634 104.299Z" fill="#42353B"/>
<path d="M122.61 102.413C122.618 102.405 122.618 102.405 122.61 102.405C122.364 102.077 121.988 101.855 121.449 101.806C120.942 101.765 120.476 102.036 120.042 102.306C119.805 102.454 119.56 102.61 119.388 102.815C119.2 103.028 119.094 103.315 119.159 103.586C119.216 103.832 119.421 104.028 119.641 104.143C119.87 104.258 120.124 104.299 120.369 104.348C120.721 104.414 121.072 104.479 121.424 104.537C121.907 104.627 122.397 104.717 122.88 104.807C122.92 104.807 122.978 104.816 123.01 104.791C123.019 104.783 123.019 104.783 123.027 104.775L122.61 102.413Z" fill="#42353B"/>
<path d="M114.498 118.766C114.498 118.766 116.117 119.553 117.466 119.29" stroke="#42353B" stroke-width="0.2374" stroke-miterlimit="10" stroke-linecap="round" stroke-linejoin="round"/>
<path d="M111.906 115.764C111.906 115.764 115.455 118.971 119.568 117.593" stroke="#42353B" stroke-width="0.2817" stroke-miterlimit="10" stroke-linecap="round" stroke-linejoin="round"/>
<path d="M111.906 115.272C111.906 118.528 109.273 121.168 106.027 121.168C102.78 121.168 100.147 118.528 100.147 115.272C100.147 112.016 102.78 109.375 106.027 109.375C109.273 109.375 111.906 112.016 111.906 115.272Z" fill="url(#paint0_linear_106_7)"/>
<path d="M123.019 117.052C122.847 118.159 122.61 119.389 122.234 120.562C120.287 119.602 118.955 117.593 118.955 115.28C118.955 112.484 120.901 110.146 123.509 109.539C123.591 112.098 123.403 114.657 123.019 117.052Z" fill="url(#paint1_linear_106_7)"/>
<path d="M98.7979 107.194C99.3621 106.226 99.8773 105.226 100.319 104.184C101.047 102.503 101.611 100.65 101.406 98.788C101.202 96.9346 100.024 95.1139 98.389 94.8351C96.6064 94.5317 94.9056 96.1883 94.3577 98.1483C93.818 100.1 94.186 102.224 94.7502 104.168C95.1427 105.513 95.6251 106.882 96.3366 108.055C97.326 109.662 98.0783 108.416 98.7979 107.194Z" fill="#42353B"/>
<path d="M100.082 85.4614C101.341 85.1334 102.747 85.322 103.884 84.7069C104.506 84.3707 104.972 83.8376 105.47 83.3373C106.345 82.4598 107.368 81.6889 108.553 81.2789C109.739 80.8689 111.113 80.8771 112.2 81.4839C112.863 81.853 113.386 82.427 114.048 82.7879C115.855 83.7884 118.366 83.1159 119.993 84.3789C121.31 85.3958 121.612 87.3886 123.068 88.2005C123.902 88.668 125.03 88.6844 125.643 89.4061C126.363 90.259 125.93 91.5219 125.987 92.629C126.036 93.605 126.502 94.5481 126.428 95.524C126.322 96.8771 125.177 97.9597 123.918 98.5337C123.615 98.6732 123.288 98.7962 122.945 98.8044C122.356 98.8208 121.808 98.5091 121.22 98.4517C119.797 98.3123 118.546 99.6737 117.131 99.4769C116.166 99.3374 115.479 98.5255 114.662 98.0171C113.827 97.5004 112.789 97.2954 111.808 97.4594C111.154 97.566 110.532 97.8285 109.87 97.8941C108.758 98.0007 107.678 97.5578 106.689 97.0576C106.509 96.9674 106.321 96.8689 106.116 96.8607C105.789 96.8443 105.503 97.033 105.217 97.197C103.606 98.1155 101.472 98.0909 99.8855 97.1314C96.1485 94.8761 94.8892 86.8064 100.082 85.4614Z" fill="#42353B"/>
<path d="M99.403 111.582C99.5256 111.836 99.6974 112.098 99.9672 112.164C100.425 112.27 100.76 111.737 100.891 111.286C101.496 109.138 100.908 106.809 99.8527 104.84C99.5338 104.25 99.0105 103.602 98.3563 103.733C97.7021 103.864 97.465 104.652 97.3423 105.308C97.2524 105.792 97.1706 106.284 97.2115 106.776C97.2851 107.612 97.7921 108.285 98.1928 108.99C98.6834 109.81 98.9778 110.72 99.403 111.582Z" fill="#42353B"/>
<path d="M111.563 215.258C111.563 215.258 103.467 212.732 93.1068 215.102C82.7627 217.456 82.7627 229.093 82.2884 227.994C81.8223 226.895 80.882 218.875 81.6588 211.797C82.1167 207.648 82.0349 197.388 81.8959 189.622C81.7978 184.135 81.6588 179.871 81.6588 179.871C81.6588 179.871 80.1133 170.563 79.1157 160.402C78.069 149.831 77.6111 138.325 80.0888 135.364C84.946 129.542 101.129 129.099 101.129 129.099L111.563 215.258Z" fill="#6887FF"/>
<path d="M145.645 207.533C138.588 204.4 130.681 205.499 130.681 205.499C130.681 205.499 126.698 193.632 123.55 180.904C123.059 178.944 122.602 176.96 122.168 175C118.946 160.213 115.708 130.452 115.708 130.452C115.708 130.452 120.754 133.355 125.079 136.053C127.532 137.587 129.74 139.055 130.681 139.916C133.281 142.278 134.826 169.956 135.292 180.97C135.759 191.803 145.35 207.057 145.645 207.533Z" fill="#6887FF"/>
<path d="M81.8304 133.798C81.8304 133.798 52.9651 151.553 46.8486 158.319C46.8486 158.319 59.8666 165.208 61.9027 168.996C61.9027 168.996 86.2133 156.433 86.6794 156.269C87.1537 156.121 81.8304 133.798 81.8304 133.798Z" fill="#6887FF"/>
<path d="M158.352 183.955C158.352 183.955 147.738 181.962 136.92 173.892C136.241 173.392 135.562 172.867 134.884 172.31C134.875 172.301 134.875 172.301 134.867 172.293L134.843 172.055C134.835 172.039 134.835 172.014 134.835 171.998L134.368 168.365L130.689 139.916L154.443 161.78L158.352 183.955Z" fill="#6887FF"/>
<path d="M153.364 160.361C152.742 160.541 152.587 161.337 152.546 161.985C152.293 166.454 152.538 170.956 153.266 175.377C153.658 177.788 154.239 180.248 155.678 182.216C156.365 183.151 157.322 183.988 158.475 184.127C160.323 184.349 161.86 182.766 162.89 181.208C164.256 179.141 165.343 176.681 164.894 174.245C164.607 172.687 163.716 171.309 162.841 169.989C160.609 166.61 158.352 163.256 156.062 159.926C155.899 159.68 155.702 159.426 155.424 159.352C154.46 159.098 154.345 160.484 154.631 161.058C154.378 160.631 153.879 160.213 153.364 160.361Z" fill="#6887FF"/>
<path opacity="0.36" d="M153.364 160.361C152.742 160.541 152.587 161.337 152.546 161.985C152.293 166.454 152.538 170.956 153.266 175.377C153.658 177.788 154.239 180.248 155.678 182.216C156.365 183.151 157.322 183.988 158.475 184.127C160.323 184.349 161.86 182.766 162.89 181.208C164.256 179.141 165.343 176.681 164.894 174.245C164.607 172.687 163.716 171.309 162.841 169.989C160.609 166.61 158.352 163.256 156.062 159.926C155.899 159.68 155.702 159.426 155.424 159.352C154.46 159.098 154.345 160.484 154.631 161.058C154.378 160.631 153.879 160.213 153.364 160.361Z" fill="#6887FF"/>
<path opacity="0.36" d="M137.451 170.268C137.451 171.49 137.296 172.736 136.92 173.892C136.241 173.392 135.562 172.867 134.883 172.31C134.867 172.219 134.859 172.137 134.834 172.047C134.826 172.031 134.826 172.006 134.826 171.99C134.679 171.211 134.556 170.563 134.532 170.309C134.466 169.661 134.409 169.005 134.36 168.357C134.229 166.741 134.131 165.126 134.049 163.502C133.959 161.599 133.33 158.63 133.886 156.81C134.524 154.735 136.2 158.114 136.445 159.155C136.764 160.525 136.731 161.944 136.821 163.354C136.96 165.675 137.443 167.963 137.451 170.268Z" fill="#6887FF"/>
<path d="M133.493 154.432C133.493 154.432 134.638 168.086 134.859 172.293" stroke="#42353B" stroke-width="0.2817" stroke-miterlimit="10" stroke-linecap="round" stroke-linejoin="round"/>
<path d="M135.848 160.189L134.867 170.907" stroke="#42353B" stroke-width="0.2817" stroke-miterlimit="10" stroke-linecap="round" stroke-linejoin="round"/>
<path d="M47.3311 158.458C46.8077 158.319 46.2517 158.188 45.7447 158.376C45.2377 158.565 44.8452 159.196 45.0824 159.705C45.2377 160.025 45.6057 160.23 45.6466 160.591C45.6793 160.902 45.4503 161.165 45.2541 161.394C44.371 162.395 43.7168 163.608 43.3488 164.912C43.267 165.208 43.2016 165.519 43.2997 165.806C43.4142 166.134 43.725 166.331 44.0193 166.512C45.6793 167.512 47.3474 168.513 49.0074 169.513C52.1556 171.408 55.3038 173.302 58.4438 175.196C58.9099 175.483 59.5722 175.738 59.9402 175.319C60.6271 174.524 59.9157 173.778 60.9133 173.023C61.9927 172.211 62.2543 172.31 62.6795 170.735C63.3174 168.349 61.9518 167.324 60.2918 165.765C56.5958 162.313 52.131 159.77 47.3311 158.458Z" fill="#6887FF"/>
<path opacity="0.36" d="M47.3311 158.458C46.8077 158.319 46.2517 158.188 45.7447 158.376C45.2377 158.565 44.8452 159.196 45.0824 159.705C45.2377 160.025 45.6057 160.23 45.6466 160.591C45.6793 160.902 45.4503 161.165 45.2541 161.394C44.371 162.395 43.7168 163.608 43.3488 164.912C43.267 165.208 43.2016 165.519 43.2997 165.806C43.4142 166.134 43.725 166.331 44.0193 166.512C45.6793 167.512 47.3474 168.513 49.0074 169.513C52.1556 171.408 55.3038 173.302 58.4438 175.196C58.9099 175.483 59.5722 175.738 59.9402 175.319C60.6271 174.524 59.9157 173.778 60.9133 173.023C61.9927 172.211 62.2543 172.31 62.6795 170.735C63.3174 168.349 61.9518 167.324 60.2918 165.765C56.5958 162.313 52.131 159.77 47.3311 158.458Z" fill="#6887FF"/>
<path opacity="0.36" d="M89.3943 130.698L99.0351 141.22L93.5074 153.136L107.637 182.766L101.145 129.099C101.145 129.099 95.7724 128.336 89.3943 130.698Z" fill="#6887FF"/>
<path opacity="0.36" d="M123.526 180.683C123.534 180.765 123.542 180.839 123.55 180.904C123.059 178.944 122.602 176.96 122.168 175C118.946 160.213 115.708 130.452 115.708 130.452C115.708 130.452 120.754 133.355 125.079 136.053L122.086 142.753L128.432 155.875C128.432 155.875 122.732 174.852 123.526 180.683Z" fill="#6887FF"/>
<path opacity="0.36" d="M106.386 186.169C106.942 186.169 107.392 185.718 107.392 185.161C107.392 184.603 106.942 184.152 106.386 184.152C105.831 184.152 105.381 184.603 105.381 185.161C105.381 185.718 105.831 186.169 106.386 186.169Z" fill="#6887FF"/>
<path opacity="0.36" d="M106.632 191.475C107.187 191.475 107.638 191.024 107.638 190.467C107.638 189.91 107.187 189.458 106.632 189.458C106.076 189.458 105.626 189.91 105.626 190.467C105.626 191.024 106.076 191.475 106.632 191.475Z" fill="#6887FF"/>
<path opacity="0.36" d="M108.03 195.773C108.251 196.289 108.014 196.88 107.499 197.101C106.983 197.323 106.395 197.085 106.174 196.568C105.953 196.051 106.19 195.461 106.705 195.24C107.221 195.018 107.809 195.256 108.03 195.773Z" fill="#6887FF"/>
<path opacity="0.36" d="M108.562 202.432C108.782 202.948 108.545 203.539 108.03 203.76C107.515 203.982 106.926 203.744 106.705 203.227C106.485 202.711 106.722 202.12 107.237 201.899C107.752 201.685 108.349 201.923 108.562 202.432Z" fill="#6887FF"/>
<path d="M47.6418 159.311C47.6418 159.311 60.8316 148.609 71.4782 141.802C82.1248 134.995 89.3943 130.698 89.3943 130.698" stroke="#42353B" stroke-width="0.2817" stroke-miterlimit="10" stroke-linecap="round" stroke-linejoin="round"/>
<path d="M89.3943 154.432L79.0012 160.189" stroke="#42353B" stroke-width="0.2817" stroke-miterlimit="10" stroke-linecap="round" stroke-linejoin="round"/>
<path d="M82.4355 158.286C82.4355 158.286 85.0359 172.006 85.0359 188.17C85.0359 204.326 84.0546 219.408 84.4226 221.958" stroke="#42353B" stroke-width="0.2817" stroke-miterlimit="10" stroke-linecap="round" stroke-linejoin="round"/>
<path opacity="0.36" d="M85.3793 177.296C85.2812 181.249 85.0849 185.456 82.8198 188.687C82.5745 189.048 82.2802 189.409 81.904 189.622C81.8059 184.136 81.6669 179.871 81.6669 179.871C81.6669 179.871 80.1214 170.563 79.1238 160.402C79.2873 160.279 79.4672 160.172 79.6308 160.058C80.98 159.188 82.3129 158.311 83.6539 157.441C85.6573 163.814 85.5592 170.62 85.3793 177.296Z" fill="#6887FF"/>
</g>
<g clip-path="url(#clip1_106_7)">
<path d="M123.948 361.323C123.948 363.274 122.364 364.845 120.424 364.845C118.472 364.845 116.9 363.263 116.9 361.323C116.9 359.373 118.483 357.802 120.424 357.802C122.375 357.802 123.948 359.373 123.948 361.323Z" fill="#1A76E8"/>
<path d="M137.532 27.9415C137.532 29.1341 136.561 30.1149 135.357 30.1149C134.164 30.1149 133.182 29.1452 133.182 27.9415C133.182 26.7378 134.152 25.7682 135.357 25.7682C136.561 25.7682 137.532 26.7378 137.532 27.9415Z" fill="#EB2D40"/>
<path d="M39.3346 4.34671C40.5357 4.34671 41.5094 3.37367 41.5094 2.17336C41.5094 0.973045 40.5357 0 39.3346 0C38.1336 0 37.1599 0.973045 37.1599 2.17336C37.1599 3.37367 38.1336 4.34671 39.3346 4.34671Z" fill="#26D474"/>
<path d="M168.937 73.7604C168.937 75.7108 167.353 77.2823 165.413 77.2823C163.472 77.2823 161.888 75.6997 161.888 73.7604C161.888 71.8099 163.472 70.2384 165.413 70.2384C167.353 70.2384 168.937 71.8211 168.937 73.7604Z" fill="#26D474"/>
<path d="M3.52416 221.27C5.47051 221.27 7.04833 219.693 7.04833 217.748C7.04833 215.803 5.47051 214.226 3.52416 214.226C1.57782 214.226 0 215.803 0 217.748C0 219.693 1.57782 221.27 3.52416 221.27Z" fill="#26D474"/>
<path d="M3.8811 38.3737L14.9778 49.2627L17.8105 45.9748L11.2082 34.0381L3.8811 38.3737Z" fill="#1A76E8"/>
<path d="M38.6988 169.143L31.6282 182.974L35.6096 184.691L45.0334 174.827L38.6988 169.143Z" fill="#26D474"/>
<path d="M156.468 363.519L149.063 377.194L153.011 379L162.658 369.359L156.468 363.519Z" fill="#1A76E8"/>
<path d="M194.799 221.549L187.405 235.213L191.353 237.03L201 227.389L194.799 221.549Z" fill="#1A76E8"/>
<path d="M31.9518 49.0065L27.9592 64.0193L32.2195 64.8664L39.3347 53.2306L31.9518 49.0065Z" fill="#EB2D40"/>
<path d="M20.8884 270.176L31.8959 281.143L34.762 277.878L28.249 265.896L20.8884 270.176Z" fill="#EB2D40"/>
<path d="M189.625 101.256L185.019 116.091L189.245 117.105L196.84 105.77L189.625 101.256Z" fill="#FFD417"/>
<path d="M53.041 343.691L64.9741 353.644L67.528 350.144L59.989 338.776L53.041 343.691Z" fill="#FFD417"/>
<path d="M184.996 40.6028L193.361 53.6987L196.863 51.1352L193.104 38.0282L184.996 40.6028Z" fill="#EB2D40"/>
</g>
<defs>
<linearGradient id="paint0_linear_106_7" x1="95.0459" y1="121.101" x2="111.977" y2="112.173" gradientUnits="userSpaceOnUse">
<stop stop-color="#FB9D89" stop-opacity="0"/>
<stop offset="1" stop-color="#FF7777" stop-opacity="0.5"/>
</linearGradient>
<linearGradient id="paint1_linear_106_7" x1="126.816" y1="119.347" x2="118.953" y2="111.311" gradientUnits="userSpaceOnUse">
<stop stop-color="#FB9D89" stop-opacity="0"/>
<stop offset="1" stop-color="#FF7777" stop-opacity="0.5"/>
</linearGradient>
<clipPath id="clip0_106_7">
<rect width="130" height="269" fill="white" transform="translate(35 81)"/>
</clipPath>
<clipPath id="clip1_106_7">
<rect width="201" height="379" fill="white"/>
</clipPath>
</defs>
</svg>
