<!DOCTYPE svg PUBLIC "-//W3C//DTD SVG 1.1//EN" "http://www.w3.org/Graphics/SVG/1.1/DTD/svg11.dtd">
<svg width="124" height="341" viewBox="0 0 124 341" fill="none" xmlns="http://www.w3.org/2000/svg">
<g clip-path="url(#clip0_101_3)">
<path d="M57.0887 316.748C57.0887 316.748 54.9866 323.086 56.1178 331.131C56.1178 331.131 49.3394 334.725 42.6946 330.157C42.6946 330.157 48.2171 325.938 46.4802 314.639" fill="#FF9670"/>
<path d="M27.2405 337.952C27.4364 337.541 27.7482 337.174 28.1579 336.942C30.4115 335.654 35.8983 332.606 44.1999 328.512C44.1999 328.512 48.8495 330.077 55.904 329.183C55.904 329.183 56.6522 333.822 56.5721 337.666C52.2431 337.862 35.5688 338.533 27.2405 337.952Z" fill="#D03711"/>
<path d="M56.5721 337.675C56.5543 338.631 56.5097 339.552 56.4474 340.339H27V338.944C27 338.595 27.098 338.256 27.2405 337.952C35.5688 338.533 52.2432 337.862 56.5721 337.675Z" fill="#400E09"/>
<path d="M36.4596 333.876C36.7499 333.876 36.9851 333.639 36.9851 333.348C36.9851 333.057 36.7499 332.821 36.4596 332.821C36.1694 332.821 35.9341 333.057 35.9341 333.348C35.9341 333.639 36.1694 333.876 36.4596 333.876Z" fill="#400E09"/>
<path d="M40.8775 331.677C40.8775 331.963 40.6459 332.204 40.3519 332.204C40.0669 332.204 39.8264 331.972 39.8264 331.677C39.8264 331.391 40.058 331.149 40.3519 331.149C40.6459 331.149 40.8775 331.382 40.8775 331.677Z" fill="#400E09"/>
<path d="M44.7344 329.63C44.7344 329.916 44.5028 330.157 44.2089 330.157C43.9238 330.157 43.6833 329.925 43.6833 329.63C43.6833 329.344 43.9149 329.102 44.2089 329.102C44.4939 329.102 44.7344 329.344 44.7344 329.63Z" fill="#400E09"/>
<path d="M85.957 315.247C85.957 315.247 86.5538 326.662 85.0039 331.802C85.0039 331.802 91.7823 335.395 98.4271 330.827C98.4271 330.827 93.6796 329.183 95.8797 310.813" fill="#FF9670"/>
<path d="M113.881 338.622C113.685 338.211 113.374 337.845 112.964 337.612C110.71 336.325 105.223 333.277 96.9219 329.183C96.9219 329.183 92.2723 330.747 85.2178 329.853C85.2178 329.853 84.4695 334.493 84.5497 338.336C88.8786 338.533 105.553 339.203 113.881 338.622Z" fill="#D03711"/>
<path d="M84.5586 338.336C84.5764 339.293 84.6209 340.213 84.6833 341H114.131V339.605C114.131 339.257 114.033 338.917 113.89 338.613C105.553 339.203 88.8786 338.533 84.5586 338.336Z" fill="#400E09"/>
<path d="M98.0442 330.631C98.0442 330.917 97.8126 331.158 97.5187 331.158C97.2337 331.158 96.9932 330.926 96.9932 330.631C96.9932 330.345 97.2247 330.103 97.5187 330.103C97.8126 330.112 98.0442 330.345 98.0442 330.631Z" fill="#400E09"/>
<path d="M106.951 334.948C106.951 335.234 106.72 335.476 106.426 335.476C106.141 335.476 105.9 335.243 105.9 334.948C105.9 334.662 106.132 334.421 106.426 334.421C106.72 334.421 106.951 334.653 106.951 334.948Z" fill="#400E09"/>
<path d="M102.053 332.901C102.053 333.187 101.821 333.429 101.527 333.429C101.242 333.429 101.001 333.196 101.001 332.901C101.001 332.615 101.233 332.374 101.527 332.374C101.821 332.374 102.053 332.615 102.053 332.901Z" fill="#400E09"/>
<path d="M77.5488 88.2774C78.9472 93.7928 77.7982 99.7283 75.3398 104.859C75.0369 105.494 74.7074 106.218 74.9657 106.87C75.1527 107.353 75.6248 107.666 76.0791 107.916C80.408 110.33 86.0196 110.24 90.2683 107.684C90.402 107.603 90.5445 107.514 90.6068 107.362C90.7315 107.076 90.4732 106.772 90.2683 106.54C89.1015 105.244 89.7161 103.706 89.2084 102.035C87.035 94.8655 88.3711 88.3489 90.9008 81.4659" fill="#FF9670"/>
<path d="M78.0922 94.8029C80.2655 94.2934 82.7685 92.9168 84.5499 91.5223C86.5184 89.9758 87.7743 88.4115 88.478 86.7846C88.7274 86.2036 89.1193 85.7388 89.5914 85.3633C89.9744 84.0761 90.4109 82.78 90.883 81.4659L77.531 88.2685C77.9764 89.9669 78.11 93.0687 78.0922 94.8029C78.1011 94.8029 78.0922 94.8118 78.0922 94.8029Z" fill="#FC7F51"/>
<path d="M81.0848 60.8527C79.6151 60.6292 78.1276 61.2013 76.836 61.9432C73.4958 63.8741 70.9038 67.0742 69.7102 70.7481C69.2292 72.2141 68.9709 73.7427 68.766 75.2712C68.285 78.8737 67.7773 80.2592 67.9377 83.8974C67.9822 85.0326 68.8996 89.5468 69.3806 90.5837C70.0309 91.9782 70.4762 92.2732 71.9459 92.738C73.4067 93.2118 75.4019 92.8095 76.9251 92.5771C81.4678 91.8799 85.6631 89.1892 88.1928 85.3365C90.7224 81.4928 91.5419 76.5495 90.3928 72.089" fill="#FF9670"/>
<path d="M101.954 63.8473C99.8968 63.9993 97.9016 64.482 95.9954 65.2418C96.2092 64.4373 99.3446 60.1644 97.189 61.0226C96.9841 62.1757 93.3678 66.4485 95.2472 66.5201C96.1023 65.358 104.048 65.0272 101.954 63.8473Z" fill="#2D0E0B"/>
<path d="M82.5098 84.7108C82.1981 85.9623 80.4612 86.6148 78.6263 86.1589C76.7914 85.703 75.5533 84.3175 75.8561 83.0661C76.1679 81.8146 77.9048 81.1621 79.7397 81.6179C81.5746 82.0738 82.8216 83.4594 82.5098 84.7108Z" fill="#FC7F51"/>
<path d="M76.8448 75.9774C78.7242 75.888 81.1203 75.9596 82.0912 77.0322C82.5811 77.5686 83.169 77.4434 82.7236 76.8713C81.343 75.0835 79.4814 74.9048 76.7379 74.8154C76.444 74.8064 76.1946 75.1282 76.2302 75.4679C76.2569 75.754 76.5509 76.0579 76.8448 75.9774Z" fill="#2D0E0B"/>
<path d="M72.1419 73.4656C71.1086 72.8309 70.209 72.3214 69.3361 72.0175C69.2916 72.1784 69.2381 72.3303 69.1847 72.4912C69.1758 72.6342 69.158 72.7773 69.1401 72.9114C69.9418 73.2957 70.7523 73.8321 71.4471 74.3326C71.6431 74.5561 72.035 74.4667 72.1953 74.2522C72.4091 74.0019 72.3913 73.6175 72.1419 73.4656Z" fill="#2D0E0B"/>
<path d="M70.6901 76.4511C70.5743 76.9249 70.2536 77.2556 69.9864 77.1841C69.7103 77.1126 69.5856 76.6746 69.7014 76.2009C69.8171 75.7271 70.1378 75.3963 70.405 75.4679C70.6812 75.5304 70.8059 75.9774 70.6901 76.4511Z" fill="#2D0E0B"/>
<path d="M78.6086 79.0972C78.475 79.6335 78.0741 79.9911 77.7 79.9017C77.3259 79.8123 77.1389 79.3028 77.2636 78.7664C77.3972 78.2301 77.798 77.8725 78.1721 77.9619C78.5462 78.0603 78.7333 78.5608 78.6086 79.0972Z" fill="#2D0E0B"/>
<path d="M72.0171 81.7072C71.7232 81.5553 71.4916 81.3408 71.2867 81.0905C72.4001 80.429 73.2018 79.2669 73.3977 77.9886C73.4244 77.8188 73.3532 77.64 73.1661 77.5953C73.0147 77.5506 72.792 77.649 72.7653 77.8277C72.5783 79.0881 71.7766 80.1787 70.6276 80.724C70.4672 80.7955 70.4227 81.0279 70.5118 81.1709C70.7968 81.6447 71.2065 82.0291 71.6875 82.2793C72.0616 82.4671 72.3912 81.9039 72.0171 81.7072Z" fill="#F46E45"/>
<path d="M69.9775 84.4337C69.9775 84.4337 71.4383 85.7567 73.6562 85.4349C73.6562 85.4438 70.2358 87.3121 69.9775 84.4337Z" fill="#E53E3E"/>
<path d="M99.8612 73.9125C99.6207 70.5068 99.2912 67.5212 96.3161 65.8585L95.8797 65.3758C95.5768 63.302 94.3387 61.4516 92.7354 60.1108C91.6398 59.1901 90.3661 58.5018 89.0478 57.9475C82.7148 55.677 73.8431 57.9654 68.7927 59.6638C69.2025 60.2806 69.6033 60.8974 70.013 61.5142C68.285 61.5589 66.557 61.4337 64.8557 61.1477C65.6306 64.1691 66.753 67.1726 68.7126 69.595C71.0463 72.4823 74.4043 73.6712 77.9405 74.7975C81.4677 75.9328 83.6767 77.1216 87.3554 77.6222C87.7652 77.6758 87.1595 82.8515 87.5158 83.066C88.1126 83.4415 90.0811 80.1519 90.2414 80.8402C91.1766 84.9164 87.204 87.8663 88.2729 91.9067C91.3548 90.9323 95.7906 86.8204 97.4919 83.8616C99.1843 80.9296 100.102 77.3183 99.8612 73.9125Z" fill="#2D0E0B"/>
<path d="M86.7855 83.7991C87.2397 82.4493 89.226 79.5441 90.4018 78.7575C90.7492 78.5251 91.1322 78.3284 91.5419 78.2748C91.9517 78.2212 92.4059 78.3463 92.6732 78.6771C92.878 78.9273 92.9404 79.2581 92.976 79.5799C93.1096 80.8939 92.78 82.2616 92.0585 83.37C91.3371 84.4784 90.2237 85.3276 88.9677 85.7299C88.2552 85.9623 87.3466 85.9802 86.9191 85.3723C86.6162 84.9254 86.6964 84.3354 86.7855 83.7991Z" fill="#FF9670"/>
<path d="M88.1126 82.3688C88.0414 82.646 88.0057 82.932 88.0592 83.1734C88.1126 83.4147 88.2819 83.6024 88.558 83.6382C88.8252 83.6739 89.1548 83.5577 89.4487 83.37C89.7337 83.1823 89.9831 82.9231 90.1791 82.6549C90.5265 82.1811 90.7224 81.6359 90.5799 81.2515C90.4374 80.8671 89.8852 80.7241 89.3507 81.0101C88.9944 81.1978 88.7272 81.5286 88.4867 81.8414" fill="#FC7F51"/>
<path d="M96.5568 163.186C96.5568 163.186 106.203 178.141 107.45 195.599C108.697 213.057 104.894 324.695 104.894 324.695L82.2072 325.509C82.2072 325.509 83.9263 228.235 81.7618 216.176L60.3221 324.704L37.4304 324.079C37.4304 324.079 56.6345 176.282 64.2234 164.339L96.5568 163.186Z" fill="#400E09"/>
<g opacity="0.5">
<path d="M77.0409 181.913C76.5599 185.033 76.3551 188.188 76.4441 191.344C76.5243 194.07 76.8093 196.993 78.475 199.264C79.2856 200.363 80.3366 201.23 81.6192 201.704C81.7885 201.767 81.9934 201.633 82.0379 201.463C83.6768 195.348 82.9375 188.93 84.042 182.736C84.1222 182.306 83.4631 182.119 83.3829 182.557C82.2873 188.751 83.0177 195.17 81.3788 201.284C81.5213 201.203 81.6549 201.123 81.7974 201.043C79.4815 200.202 78.1365 197.914 77.5843 195.617C77.2636 194.267 77.1656 192.881 77.1211 191.505C77.0766 190.039 77.0944 188.573 77.1745 187.116C77.2636 185.435 77.4417 183.764 77.6912 182.101C77.7624 181.663 77.1122 181.484 77.0409 181.913Z" fill="#F3D1A4"/>
</g>
<g opacity="0.5">
<path d="M91.4973 180.885C94.4635 185.533 97.7057 190.441 103.006 192.622C103.415 192.792 103.584 192.13 103.184 191.961C98.0798 189.86 94.9444 185.015 92.0852 180.537C91.8447 180.17 91.2568 180.519 91.4973 180.885Z" fill="#F3D1A4"/>
</g>
<g opacity="0.5">
<path d="M58.6297 189.556C60.9099 188.519 62.7359 186.749 64.3926 184.917C66.1919 182.932 67.8398 180.805 69.3184 178.561C69.5589 178.195 68.971 177.846 68.7305 178.212C67.2875 180.403 65.6753 182.485 63.9117 184.425C62.2816 186.222 60.518 187.947 58.2823 188.957C57.8814 189.145 58.2288 189.735 58.6297 189.556Z" fill="#F3D1A4"/>
</g>
<g opacity="0.5">
<path d="M83.2225 220.717C84.8347 233.831 86.0461 246.989 86.8478 260.183C87.6405 273.305 88.0324 286.454 88.0235 299.595C88.0146 307.005 87.881 314.407 87.6138 321.808C87.596 322.246 88.2818 322.246 88.2996 321.808C88.7717 308.605 88.8341 295.384 88.4956 282.182C88.1482 269.041 87.4 255.91 86.251 242.814C85.6007 235.44 84.8169 228.065 83.9173 220.717C83.846 220.288 83.1602 220.279 83.2225 220.717Z" fill="#F3D1A4"/>
</g>
<g opacity="0.5">
<path d="M53.9446 319.287C54.6928 312.27 55.8329 305.298 57.2046 298.379C58.5763 291.451 60.1796 284.577 61.8364 277.712C63.413 271.151 64.9985 264.59 66.6908 258.055C68.3565 251.646 70.1469 245.273 72.2757 239.006C74.4045 232.731 76.8629 226.563 79.829 220.637C80.2031 219.895 80.5862 219.153 80.9692 218.411C81.174 218.018 80.5862 217.678 80.3813 218.062C77.2994 223.926 74.7163 230.041 72.4984 236.28C70.2626 242.573 68.3832 248.991 66.673 255.436C64.9361 261.971 63.3595 268.559 61.7651 275.129C60.0995 281.994 58.4694 288.859 57.0443 295.778C55.6191 302.679 54.4077 309.633 53.5705 316.632C53.4636 317.508 53.3656 318.393 53.2765 319.278C53.2142 319.725 53.8911 319.725 53.9446 319.287Z" fill="#F3D1A4"/>
</g>
<path d="M64.8647 104.314C61.8362 105.396 59.5738 108.614 57.6498 111.823C54.274 117.463 51.3524 123.551 48.9474 129.96C48.7693 130.434 48.5912 130.961 48.698 131.471C48.8049 131.998 49.179 132.338 49.5353 132.642C54.0157 136.485 58.6029 140.132 63.2703 143.583C63.5197 143.762 63.8226 143.949 64.0631 143.771C64.259 143.628 64.3392 143.306 64.3837 143.02C66.5036 131.354 66.1117 119.206 65.7198 107.237" fill="#1E976F"/>
<path d="M102.035 103.652C105.936 104.734 108.831 107.952 111.307 111.161C115.645 116.802 119.404 122.889 122.495 129.298C122.726 129.772 122.958 130.3 122.824 130.809C122.682 131.336 122.201 131.676 121.755 131.98C115.992 135.824 110.105 139.471 104.101 142.921C103.789 143.1 103.397 143.288 103.077 143.109C102.818 142.966 102.729 142.644 102.658 142.358C99.9414 130.693 100.431 118.545 100.939 106.576" fill="#1E976F"/>
<path d="M77.2104 99.7372C79.5975 100.703 84.4609 101.132 86.8747 100.22C87.4537 100.005 88.0238 99.7283 88.6384 99.7193C89.0837 99.7104 89.5113 99.8355 89.9388 99.9696C93.671 101.087 97.3942 102.204 101.126 103.331C101.643 103.483 102.195 103.661 102.543 104.082C102.89 104.502 102.961 105.074 103.015 105.619C103.398 109.329 103.79 113.038 104.173 116.748C104.511 120.011 104.85 123.274 104.894 126.554C104.939 129.817 104.68 133.071 104.475 136.333C103.656 149.67 103.754 163.052 103.603 176.416C103.594 176.979 103.549 177.631 103.095 177.962C102.863 178.132 102.569 178.186 102.284 178.23C87.9792 180.51 73.3802 178.65 59.0217 176.791C59.2711 173.367 59.5295 169.935 59.3335 166.511C59.1553 163.32 59.8768 150.707 59.6363 147.516C59.1999 141.804 58.5051 145.532 59.0841 139.828C60.1886 129.066 61.2931 118.295 62.3976 107.532C62.4778 106.727 62.5757 105.878 63.0389 105.217C63.5288 104.52 64.3394 104.144 65.1143 103.813C69.0335 102.115 73.0774 100.756 77.2104 99.7372Z" fill="#1E976F"/>
<g opacity="0.5">
<path d="M103.727 156.571C102.935 160.388 101.99 164.437 99.7725 167.709C96.0493 173.189 88.2465 173.627 82.2341 173.966C76.1594 174.306 67.6975 174.914 62.8698 170.453C61.2754 168.978 60.1442 167.235 59.298 165.34C59.298 165.796 59.3069 166.189 59.3247 166.493C59.5117 169.917 59.2623 173.35 59.0129 176.773C73.3803 178.633 87.9704 180.492 102.275 178.212C102.561 178.168 102.854 178.114 103.086 177.944C103.54 177.613 103.585 176.961 103.594 176.398C103.665 169.711 103.683 163.025 103.781 156.339C103.763 156.419 103.745 156.5 103.727 156.571Z" fill="#06593B"/>
</g>
<g opacity="0.5">
<path d="M122.495 129.307C119.832 123.774 116.67 118.491 113.062 113.521C114.086 116.927 114.541 120.574 114.746 123.998C115.164 130.845 110.532 136.602 106.097 141.759C111.405 138.657 116.625 135.404 121.747 131.989C122.201 131.685 122.682 131.345 122.816 130.818C122.958 130.309 122.727 129.781 122.495 129.307Z" fill="#06593B"/>
</g>
<path d="M51.7177 130.818C52.2432 129.45 52.8667 128.11 53.5615 126.822C53.7664 126.438 53.1785 126.089 52.9736 126.474C52.2432 127.815 51.6108 129.209 51.0586 130.639C50.9962 130.809 51.1298 131.015 51.2991 131.059C51.4861 131.113 51.6464 130.988 51.7177 130.818Z" fill="#06593B"/>
<path d="M102.649 136.315C103.487 137.916 104.253 139.542 104.956 141.205C105.028 141.375 105.277 141.411 105.42 141.33C105.598 141.232 105.616 141.035 105.544 140.865C104.841 139.203 104.075 137.576 103.237 135.976C103.032 135.582 102.445 135.931 102.649 136.315Z" fill="#06593B"/>
<path d="M106.052 134.108C106.978 135.636 107.816 137.218 108.546 138.854C108.724 139.256 109.312 138.908 109.134 138.506C108.395 136.879 107.566 135.296 106.64 133.759C106.417 133.383 105.82 133.723 106.052 134.108Z" fill="#06593B"/>
<path d="M109.793 131.265C110.354 132.901 111.049 134.492 111.877 136.012C112.091 136.396 112.679 136.056 112.465 135.663C111.672 134.197 110.995 132.668 110.452 131.086C110.301 130.666 109.642 130.845 109.793 131.265Z" fill="#06593B"/>
<path d="M113.169 129.209C113.953 130.523 114.665 131.882 115.289 133.276C115.36 133.446 115.609 133.482 115.752 133.401C115.921 133.303 115.948 133.106 115.877 132.937C115.253 131.542 114.55 130.183 113.757 128.869C113.534 128.485 112.946 128.834 113.169 129.209Z" fill="#06593B"/>
<path d="M117.418 126.974C118.13 128.19 118.763 129.45 119.306 130.755C119.377 130.925 119.529 131.05 119.725 130.997C119.885 130.952 120.036 130.747 119.965 130.577C119.395 129.218 118.745 127.904 118.006 126.635C117.783 126.25 117.195 126.599 117.418 126.974Z" fill="#06593B"/>
<path d="M61.7383 170.096C61.5423 171.928 61.3464 173.761 61.1593 175.584C61.1148 176.022 61.7917 176.022 61.8452 175.584C62.0411 173.752 62.2282 171.919 62.4242 170.096C62.4687 169.658 61.7917 169.658 61.7383 170.096Z" fill="#06593B"/>
<path d="M66.3878 175.781C66.7174 173.904 66.8955 172.009 66.9312 170.105C66.9401 169.667 66.2542 169.667 66.2453 170.105C66.2186 171.946 66.0404 173.788 65.7287 175.602C65.6485 176.022 66.3076 176.21 66.3878 175.781Z" fill="#06593B"/>
<path d="M71.1979 176.201C71.3315 174.163 71.474 172.134 71.6076 170.096C71.6343 169.658 70.9574 169.658 70.9217 170.096C70.7881 172.134 70.6456 174.163 70.512 176.201C70.4853 176.639 71.1711 176.639 71.1979 176.201Z" fill="#06593B"/>
<path d="M77.0411 176.603C76.8629 174.521 77.0143 172.42 77.5042 170.382C77.6111 169.953 76.952 169.774 76.8451 170.203C76.3463 172.295 76.1771 174.458 76.3552 176.603C76.3908 177.041 77.0767 177.041 77.0411 176.603Z" fill="#06593B"/>
<path d="M82.1983 177.31C82.2784 175.111 82.2784 172.903 82.1894 170.704C82.1715 170.266 81.4946 170.266 81.5035 170.704C81.5837 172.903 81.5837 175.111 81.5124 177.31C81.4946 177.757 82.1805 177.757 82.1983 177.31Z" fill="#06593B"/>
<path d="M88.1929 177.015C88.4423 175.093 88.5224 173.153 88.4423 171.222C88.4245 170.784 87.7386 170.784 87.7564 171.222C87.8366 173.162 87.7475 175.093 87.507 177.015C87.4803 177.202 87.6851 177.354 87.8455 177.354C88.0593 177.354 88.175 177.193 88.1929 177.015Z" fill="#06593B"/>
<path d="M93.163 177.515C93.3055 175.379 93.448 173.242 93.5906 171.106C93.6173 170.668 92.9403 170.668 92.9047 171.106C92.7622 173.242 92.6197 175.379 92.4772 177.515C92.4593 177.962 93.1363 177.953 93.163 177.515Z" fill="#06593B"/>
<path d="M98.4363 171.169C98.4363 173.064 98.4363 174.959 98.4363 176.854C98.4363 177.229 99.1221 177.229 99.1221 176.854C99.1221 174.959 99.1221 173.064 99.1221 171.169C99.1132 170.793 98.4363 170.793 98.4363 171.169Z" fill="#06593B"/>
<path d="M74.8142 104.385C75.5891 103.492 76.3195 102.544 76.9876 101.561C77.0945 101.409 77.0143 101.185 76.8629 101.096C76.6936 100.998 76.4977 101.069 76.3997 101.221C75.7673 102.16 75.0814 103.054 74.3332 103.903C74.2085 104.046 74.1996 104.251 74.3332 104.385C74.4579 104.511 74.6984 104.529 74.8142 104.385Z" fill="#06593B"/>
<path d="M79.0898 103.018C78.9561 104.135 78.8225 105.253 78.6889 106.37C78.6711 106.558 78.8582 106.71 79.0274 106.71C79.2323 106.71 79.3481 106.549 79.3659 106.37C79.4995 105.253 79.6331 104.135 79.7667 103.018C79.7845 102.83 79.5975 102.678 79.4282 102.678C79.2323 102.678 79.1165 102.839 79.0898 103.018Z" fill="#06593B"/>
<path d="M82.6882 103.411C82.893 104.528 83.0088 105.655 83.0266 106.781C83.0355 107.219 83.7214 107.219 83.7125 106.781C83.6858 105.592 83.5611 104.403 83.3473 103.223C83.3117 103.045 83.0979 102.937 82.9286 102.982C82.7327 103.045 82.6525 103.232 82.6882 103.411Z" fill="#06593B"/>
<path d="M86.1264 102.58C86.7321 103.599 87.2665 104.654 87.7208 105.753C87.792 105.923 87.9435 106.048 88.1394 105.994C88.2997 105.95 88.4512 105.744 88.3799 105.574C87.9078 104.421 87.3556 103.313 86.7232 102.24C86.4916 101.856 85.9037 102.204 86.1264 102.58Z" fill="#06593B"/>
<path d="M89.1726 101.203C90.384 102.017 91.5063 102.964 92.5039 104.037C92.8068 104.359 93.2878 103.876 92.9849 103.554C91.9428 102.446 90.7848 101.453 89.52 100.613C89.1459 100.363 88.8074 100.962 89.1726 101.203Z" fill="#06593B"/>
<path d="M63.0833 106.888C64.7935 99.7551 66.3344 95.223 70.0666 88.9121C70.4496 88.2685 71.2067 87.5355 71.8124 87.9735C72.2667 88.2953 72.1687 88.9836 72.0262 89.52C71.563 91.2273 71.1087 92.9346 70.6456 94.6509C70.5298 95.0711 70.4229 95.5001 70.4763 95.9292C70.6277 97.1091 71.9015 97.7259 72.9614 98.2533C74.0214 98.7807 75.1883 99.773 74.8587 100.917C74.7251 101.391 74.351 101.757 74.0125 102.115C71.4027 104.877 70.0131 108.587 69.2649 112.314C68.5167 116.042 66.6729 124.99 66.1652 128.753C64.8826 138.237 62.9586 145.29 56.8215 150.028C56.0466 150.627 54.7906 150.904 53.8643 150.591C53.4724 150.457 53.1606 150.144 52.8934 149.822C50.6042 147.132 49.8649 143.377 50.1767 139.855C50.4795 136.333 51.7266 132.963 53.0092 129.674C55.432 123.443 59.9569 115.416 63.0833 106.888Z" fill="#FF9670"/>
<path d="M123.555 151.896C122.165 145.943 120.17 140.132 117.64 134.572L107.121 141.098C108.59 144.316 109.971 147.579 111.227 150.886C111.797 152.388 112.358 153.988 112.135 155.579C111.966 156.786 111.361 157.885 110.755 158.949C106.239 166.833 101.108 174.369 95.4344 181.466C95.1048 181.877 94.7574 182.342 94.7842 182.87C94.802 183.263 95.0336 183.612 95.2562 183.942C96.2093 185.346 97.1713 186.74 98.1244 188.144C98.2847 188.385 98.4985 188.653 98.7924 188.662C99.0686 188.671 99.2912 188.439 99.4694 188.233C104.048 182.879 108.635 177.524 113.213 172.179C116.58 168.245 119.965 164.286 122.459 159.745C123.198 158.395 123.875 156.956 123.991 155.418C124.071 154.238 123.822 153.049 123.555 151.896Z" fill="#FF9670"/>
</g>
<g clip-path="url(#clip1_101_3)" class="question">
<path d="M98.3101 13.09C98.3601 10.07 96.2201 8.12001 92.9301 8.06001C90.2301 8.01001 88.0301 9.18001 86.4101 11.19C85.8601 11.88 84.8701 12.02 84.1701 11.5L80.6601 8.90001C79.9701 8.39001 79.7901 7.41001 80.2801 6.70001C83.1701 2.47001 87.7101 -0.099992 93.9301 8.04011e-06C101.52 0.130008 106.72 4.35001 106.59 11.62C106.43 20.78 99.0701 22.26 97.9301 27.66C97.7701 28.42 97.1001 28.96 96.3201 28.95L91.8701 28.87C90.8901 28.85 90.1401 27.98 90.3001 27.01C91.4301 19.94 98.2301 18.05 98.3101 13.09ZM88.9601 38.69C89.0101 35.55 91.0701 33.97 93.9001 34.02C96.7401 34.07 98.7301 35.72 98.6801 38.86C98.6301 41.94 96.5701 43.76 93.7301 43.71C90.8901 43.66 88.9001 41.78 88.9601 38.69Z" fill="#B3DAC9"/>
</g>
<g clip-path="url(#clip2_101_3)" class="question">
<path d="M18.3101 48.09C18.3601 45.07 16.2201 43.12 12.9301 43.06C10.2301 43.01 8.03008 44.18 6.41008 46.19C5.86008 46.88 4.87008 47.02 4.17008 46.5L0.660084 43.9C-0.029916 43.39 -0.209916 42.41 0.280084 41.7C3.17008 37.47 7.71008 34.9 13.9301 35C21.5201 35.13 26.7201 39.35 26.5901 46.62C26.4301 55.78 19.0701 57.26 17.9301 62.66C17.7701 63.42 17.1001 63.96 16.3201 63.95L11.8701 63.87C10.8901 63.85 10.1401 62.98 10.3001 62.01C11.4301 54.94 18.2301 53.05 18.3101 48.09ZM8.96008 73.69C9.01008 70.55 11.0701 68.97 13.9001 69.02C16.7401 69.07 18.7301 70.72 18.6801 73.86C18.6301 76.94 16.5701 78.76 13.7301 78.71C10.8901 78.66 8.90008 76.78 8.96008 73.69Z" fill="#B3DAC9"/>
</g>
<defs>
<clipPath id="clip0_101_3">
<rect width="97" height="284" fill="white" transform="translate(27 57)"/>
</clipPath>
<clipPath id="clip1_101_3">
<rect width="26.59" height="43.71" fill="white" transform="translate(80)"/>
</clipPath>
<clipPath id="clip2_101_3">
<rect width="26.59" height="43.71" fill="white" transform="translate(0 35)"/>
</clipPath>
</defs>
</svg>
