<svg width="420" height="255" viewBox="0 0 420 255" fill="none" xmlns="http://www.w3.org/2000/svg">
<path d="M324.003 162.005H126.476C122.752 162.005 119.73 158.982 119.73 155.259V11.7935C119.73 8.06971 122.752 5.04755 126.476 5.04755H324.003C327.727 5.04755 330.749 8.06971 330.749 11.7935V155.259C330.749 158.982 327.733 162.005 324.003 162.005Z" fill="#B5E1FF"/>
<path d="M330.749 157.957H133.222C129.498 157.957 126.476 154.935 126.476 151.211V7.74594C126.476 4.0222 129.498 1.00003 133.222 1.00003H330.749C334.473 1.00003 337.495 4.0222 337.495 7.74594V151.211C337.495 154.935 334.479 157.957 330.749 157.957Z" fill="#FCFBFF"/>
<path d="M330.749 157.957H133.222C129.498 157.957 126.476 154.935 126.476 151.211V7.74594C126.476 4.0222 129.498 1.00003 133.222 1.00003H330.749C334.473 1.00003 337.495 4.0222 337.495 7.74594V151.211C337.495 154.935 334.479 157.957 330.749 157.957Z" stroke="#B5E1FF" stroke-width="1.5" stroke-miterlimit="10" stroke-linecap="round" stroke-linejoin="round"/>
<path d="M221.33 67.501H199.406V104.057H221.33V67.501Z" fill="#1574DD"/>
<path d="M303.502 49.8605H281.578V104.057H303.502V49.8605Z" fill="#1574DD"/>
<path d="M261.016 56.9911H239.092V104.057H261.016V56.9911Z" fill="#FFAC00"/>
<path d="M192.066 104.057H311.226" stroke="#1574DD" stroke-width="1.5" stroke-miterlimit="10"/>
<path d="M187.337 36.4295C183.62 28.5166 175.586 23.0389 166.263 23.0389V46.3123L187.337 36.4295Z" fill="#FFAC00"/>
<path d="M187.337 36.4295C183.62 28.5166 175.586 23.0389 166.263 23.0389V46.3123L187.337 36.4295Z" stroke="#B5E1FF" stroke-width="1.5" stroke-miterlimit="10" stroke-linecap="round" stroke-linejoin="round"/>
<path d="M166.264 69.5857C179.117 69.5857 189.537 59.1658 189.537 46.3123C189.537 33.4588 179.117 23.0389 166.264 23.0389C153.41 23.0389 142.99 33.4588 142.99 46.3123C142.99 59.1658 153.41 69.5857 166.264 69.5857Z" stroke="#B5E1FF" stroke-width="1.5" stroke-miterlimit="10" stroke-linecap="round" stroke-linejoin="round"/>
<path d="M221.33 17.305H198.307V20.8466H221.33V17.305Z" fill="#FFAC00"/>
<path d="M234.822 24.3881H198.307V27.9297H234.822V24.3881Z" fill="#B5E1FF"/>
<path d="M234.822 30.2908H198.307V33.8324H234.822V30.2908Z" fill="#B5E1FF"/>
<path d="M222.43 111.869H199.406V115.411H222.43V111.869Z" fill="#FFAC00"/>
<path d="M235.922 118.952H199.406V122.494H235.922V118.952Z" fill="#B5E1FF"/>
<path d="M222.43 124.855H199.406V128.396H222.43V124.855Z" fill="#B5E1FF"/>
<path d="M279.048 111.869H256.024V115.411H279.048V111.869Z" fill="#FFAC00"/>
<path d="M292.54 118.952H256.024V122.494H292.54V118.952Z" fill="#B5E1FF"/>
<path d="M279.048 124.855H256.024V128.396H279.048V124.855Z" fill="#B5E1FF"/>
<path d="M156.178 75.7784H142.99V79.32H156.178V75.7784Z" fill="#1574DD"/>
<path d="M163.903 82.8616H142.99V86.4032H163.903V82.8616Z" fill="#B5E1FF"/>
<path d="M156.178 93.4326H142.99V96.9742H156.178V93.4326Z" fill="#1574DD"/>
<path d="M163.903 100.516H142.99V104.057H163.903V100.516Z" fill="#B5E1FF"/>
<path d="M156.178 111.087H142.99V114.628H156.178V111.087Z" fill="#1574DD"/>
<path d="M163.903 118.17H142.99V121.711H163.903V118.17Z" fill="#B5E1FF"/>
<path d="M284.525 30.5065C284.093 30.5065 283.677 30.4265 283.277 30.2665C282.877 30.0985 282.525 29.8505 282.221 29.5225C281.925 29.1865 281.721 28.7745 281.609 28.2865L283.025 27.7345C283.121 28.1425 283.297 28.4665 283.553 28.7065C283.809 28.9385 284.129 29.0545 284.513 29.0545C284.897 29.0545 285.217 28.9265 285.473 28.6705C285.729 28.4145 285.857 28.0905 285.857 27.6985C285.857 27.3145 285.729 26.9945 285.473 26.7385C285.225 26.4745 284.905 26.3425 284.513 26.3425C284.273 26.3425 284.053 26.3945 283.853 26.4985C283.661 26.5945 283.497 26.7265 283.361 26.8945L281.837 26.2105L282.305 22.1065H286.937V23.4865H283.613L283.313 25.4065L283.409 25.4305C283.809 25.1025 284.285 24.9385 284.837 24.9385C285.293 24.9385 285.717 25.0545 286.109 25.2865C286.509 25.5185 286.829 25.8465 287.069 26.2705C287.309 26.6865 287.429 27.1625 287.429 27.6985C287.429 28.2425 287.305 28.7265 287.057 29.1505C286.809 29.5745 286.465 29.9065 286.025 30.1465C285.585 30.3865 285.085 30.5065 284.525 30.5065ZM293.944 29.9545C293.424 30.3225 292.82 30.5065 292.132 30.5065C291.444 30.5065 290.84 30.3225 290.32 29.9545C289.8 29.5785 289.396 29.0665 289.108 28.4185C288.828 27.7625 288.688 27.0265 288.688 26.2105C288.688 25.3945 288.828 24.6625 289.108 24.0145C289.396 23.3585 289.8 22.8465 290.32 22.4785C290.84 22.1025 291.444 21.9145 292.132 21.9145C292.82 21.9145 293.424 22.1025 293.944 22.4785C294.464 22.8465 294.864 23.3585 295.144 24.0145C295.432 24.6625 295.576 25.3945 295.576 26.2105C295.576 27.0265 295.432 27.7625 295.144 28.4185C294.864 29.0665 294.464 29.5785 293.944 29.9545ZM292.132 29.0305C292.516 29.0305 292.848 28.9105 293.128 28.6705C293.416 28.4225 293.632 28.0865 293.776 27.6625C293.928 27.2305 294.004 26.7465 294.004 26.2105C294.004 25.3785 293.836 24.7025 293.5 24.1825C293.164 23.6545 292.708 23.3905 292.132 23.3905C291.564 23.3905 291.112 23.6545 290.776 24.1825C290.44 24.7105 290.272 25.3865 290.272 26.2105C290.272 26.7465 290.344 27.2305 290.488 27.6625C290.64 28.0865 290.856 28.4225 291.136 28.6705C291.424 28.9105 291.756 29.0305 292.132 29.0305ZM301.602 21.7225H303.15L300.546 30.3145H298.998L301.602 21.7225ZM308.539 24.1585L307.303 25.0585L306.511 23.8465L308.923 22.1065H310.111V30.3145H308.539V24.1585ZM317.018 29.9545C316.498 30.3225 315.894 30.5065 315.206 30.5065C314.518 30.5065 313.914 30.3225 313.394 29.9545C312.874 29.5785 312.47 29.0665 312.182 28.4185C311.902 27.7625 311.762 27.0265 311.762 26.2105C311.762 25.3945 311.902 24.6625 312.182 24.0145C312.47 23.3585 312.874 22.8465 313.394 22.4785C313.914 22.1025 314.518 21.9145 315.206 21.9145C315.894 21.9145 316.498 22.1025 317.018 22.4785C317.538 22.8465 317.938 23.3585 318.218 24.0145C318.506 24.6625 318.65 25.3945 318.65 26.2105C318.65 27.0265 318.506 27.7625 318.218 28.4185C317.938 29.0665 317.538 29.5785 317.018 29.9545ZM315.206 29.0305C315.59 29.0305 315.922 28.9105 316.202 28.6705C316.49 28.4225 316.706 28.0865 316.85 27.6625C317.002 27.2305 317.078 26.7465 317.078 26.2105C317.078 25.3785 316.91 24.7025 316.574 24.1825C316.238 23.6545 315.782 23.3905 315.206 23.3905C314.638 23.3905 314.186 23.6545 313.85 24.1825C313.514 24.7105 313.346 25.3865 313.346 26.2105C313.346 26.7465 313.418 27.2305 313.562 27.6625C313.714 28.0865 313.93 28.4225 314.21 28.6705C314.498 28.9105 314.83 29.0305 315.206 29.0305ZM325.116 29.9545C324.596 30.3225 323.992 30.5065 323.304 30.5065C322.616 30.5065 322.012 30.3225 321.492 29.9545C320.972 29.5785 320.568 29.0665 320.28 28.4185C320 27.7625 319.86 27.0265 319.86 26.2105C319.86 25.3945 320 24.6625 320.28 24.0145C320.568 23.3585 320.972 22.8465 321.492 22.4785C322.012 22.1025 322.616 21.9145 323.304 21.9145C323.992 21.9145 324.596 22.1025 325.116 22.4785C325.636 22.8465 326.036 23.3585 326.316 24.0145C326.604 24.6625 326.748 25.3945 326.748 26.2105C326.748 27.0265 326.604 27.7625 326.316 28.4185C326.036 29.0665 325.636 29.5785 325.116 29.9545ZM323.304 29.0305C323.688 29.0305 324.02 28.9105 324.3 28.6705C324.588 28.4225 324.804 28.0865 324.948 27.6625C325.1 27.2305 325.176 26.7465 325.176 26.2105C325.176 25.3785 325.008 24.7025 324.672 24.1825C324.336 23.6545 323.88 23.3905 323.304 23.3905C322.736 23.3905 322.284 23.6545 321.948 24.1825C321.612 24.7105 321.444 25.3865 321.444 26.2105C321.444 26.7465 321.516 27.2305 321.66 27.6625C321.812 28.0865 322.028 28.4225 322.308 28.6705C322.596 28.9105 322.928 29.0305 323.304 29.0305Z" fill="#FFAC00"/>
<path d="M111.284 208.659C111.284 208.659 76.3202 242.611 23.7561 214.562L25.1593 206.075L110.225 200.895L111.284 208.659Z" fill="#D2552A"/>
<path d="M35.278 182.519L17.1787 252.845H101.334C101.334 252.845 109.119 206.973 104.97 182.519H35.278Z" fill="#7040BF"/>
<path d="M105.449 185.858C105.314 184.711 105.152 183.591 104.97 182.519H35.2782L31.9795 195.336L105.449 185.858Z" fill="#492994"/>
<path d="M65.3311 252.845L75.5309 206.298L82.0137 204.254" stroke="#492994" stroke-width="1.5" stroke-miterlimit="10" stroke-linecap="round" stroke-linejoin="round"/>
<path d="M41.6322 105.447C41.6322 105.447 33.7058 98.8696 35.5609 87.4016C37.416 75.9335 46.1857 74.0784 46.1857 74.0784C46.1857 74.0784 35.8982 63.4536 47.8722 49.6245C47.8722 49.6245 51.5824 46.0829 56.1359 45.5769C56.1359 45.5769 59.8462 28.3748 79.4093 30.23C98.9724 32.0851 92.9821 51.1423 87.4639 53.672C87.4639 53.672 90.7761 62.6103 85.7707 66.9952V72.8978C85.7707 72.8978 99.1411 76.2708 100.828 90.4372C102.514 104.604 87.4639 109.663 87.4639 109.663C87.4639 109.663 48.8841 112.813 41.6322 105.447Z" fill="#00184C"/>
<path d="M57.6407 91.8066L29.1797 99.4834C27.446 99.9489 26.0091 101.156 25.2536 102.789C21.3207 111.282 8.96219 138.67 6.5539 152.668C6.5539 152.668 1.59566 169.769 12.605 176.137C15.5529 177.844 19.0406 178.37 22.4135 177.884L29.9959 176.785L23.756 214.562C23.756 214.562 50.9083 218.103 56.305 199.046L59.6779 182.519H93.4075C93.4075 182.519 91.0464 201.576 111.284 208.659L105.55 166.666L108.512 150.442L119.319 159.859C122.563 162.686 126.381 164.818 130.544 165.897C137.242 167.631 146.255 167.131 151.591 155.205C160.867 134.461 166.095 107.14 166.095 107.14L153.783 94.4914L129.667 129.739L108.721 100.853C107.871 99.6858 106.636 98.8561 105.233 98.5188L77.5546 91.8133H57.6407V91.8066Z" fill="#FFAC00"/>
<path d="M96.6655 132.997C95.6064 120.875 82.951 99.4901 77.5543 91.8133H57.6404C57.6404 91.8133 67.8874 148.175 59.6776 182.526H93.4072C93.4072 182.519 97.4345 141.767 96.6655 132.997Z" fill="#FCFBFF"/>
<path d="M96.2542 148.27C85.6699 151.677 72.6368 153.37 62.808 154.213C62.5989 164.204 61.7017 174.032 59.6711 182.519H93.4007C93.4074 182.519 95.3165 163.172 96.2542 148.27Z" fill="#B5E1FF"/>
<path d="M77.5543 91.8065L77.0214 84.2646C78.2829 84.2781 79.5376 84.0959 80.7586 83.6912C89.8656 80.6555 87.4978 69.5517 86.1553 63.4534C85.5482 60.6944 84.7252 57.598 83.4435 54.7984C76.2793 57.5036 68.9533 53.6719 68.9533 53.6719C66.2549 59.4059 61.1955 60.2491 61.1955 60.2491C61.4181 64.5395 59.988 67.1974 59.0098 68.4926C59.3808 69.6597 57.6404 91.8132 57.6404 91.8132C57.6404 91.8132 59.7316 104.948 60.6963 113.65C63.4688 113.879 66.3224 114.007 69.2366 114.007C76.4075 114.007 83.2141 113.272 89.3529 111.963C85.2379 103.679 80.3943 95.8473 77.5543 91.8065Z" fill="#FFA189"/>
<path d="M71.3481 57.5508C71.3481 57.5508 79.6591 60.1749 83.8753 55.8036C83.7336 55.4663 83.592 55.129 83.4435 54.7984C76.2794 57.5036 68.9533 53.6719 68.9533 53.6719C66.255 59.4059 61.1955 60.2491 61.1955 60.2491C61.2293 60.9507 61.2225 61.6051 61.1753 62.2189C64.076 62.3134 69.1017 61.8007 71.3481 57.5508Z" fill="#F8756A"/>
<path d="M60.4539 66.1317C62.5047 68.3579 62.5519 71.6499 60.5618 73.478C58.5718 75.3061 55.3 74.9823 53.2493 72.7562C51.1985 70.53 51.1513 67.238 53.1413 65.4099C55.1314 63.5817 58.4031 63.9055 60.4539 66.1317Z" fill="#FFA189"/>
<path d="M15.8293 157.222C15.8293 157.222 18.1904 146.934 32.0195 145.248C45.8486 143.561 61.0269 144.742 66.9296 142.887L68.1169 160.089C68.1169 160.089 43.2177 175.773 29.9958 176.785L15.8293 157.222Z" fill="#FFAC00"/>
<path d="M32.4248 145.126C32.4248 145.126 34.0371 141.085 37.12 127.951L36.5735 144.856L32.4248 145.126Z" fill="#D2552A"/>
<path d="M77.0216 84.2715C77.0216 84.2715 69.5404 83.9477 65.3242 76.6958C65.3242 76.6958 65.9651 86.0389 77.3657 89.1555L77.0216 84.2715Z" fill="#F8756A"/>
<path d="M54.7874 67.2515L59.6786 70.6248" stroke="#F8756A" stroke-width="1.5" stroke-miterlimit="10" stroke-linecap="round" stroke-linejoin="round"/>
<path d="M108.512 150.442C108.512 150.442 111.244 140.532 111.284 132.936C111.311 127.944 106.393 121.806 104.97 115.903" stroke="#D2552A" stroke-width="1.5" stroke-miterlimit="10" stroke-linecap="round" stroke-linejoin="round"/>
<path d="M113.139 164.811H77.8921L84.3007 118.77H119.548L113.139 164.811Z" fill="#1574DD"/>
<path d="M67.031 144.317C67.031 144.317 72.5829 141.794 74.3503 139.52C76.1177 137.247 82.1756 134.022 82.1756 134.022L81.6022 139.008C81.6022 139.008 100.234 133.193 102.595 134.124C104.957 135.055 100.403 137.834 100.403 137.834C100.403 137.834 104.788 136.255 104.957 137.173C105.125 138.09 103.607 140.532 102.676 141.207C102.676 141.207 103.857 140.87 103.945 142.05C104.032 143.231 97.8733 148.202 92.8139 150.145C92.8139 150.145 98.4669 148.965 100.066 150.145C100.066 150.145 91.802 154.274 88.7663 155.205C85.7307 156.136 67.9822 158.153 67.9822 158.153L67.031 144.317Z" fill="#FFA189"/>
<path d="M100.41 137.827L85.1438 142.887" stroke="#F8756A" stroke-width="1.5" stroke-miterlimit="10" stroke-linecap="round" stroke-linejoin="round"/>
<path d="M102.683 141.2C102.683 141.2 92.3958 145.248 86.7495 146.765" stroke="#F8756A" stroke-width="1.5" stroke-miterlimit="10" stroke-linecap="round" stroke-linejoin="round"/>
<path d="M92.8143 150.138L87.7544 151.576" stroke="#F8756A" stroke-width="1.5" stroke-miterlimit="10" stroke-linecap="round" stroke-linejoin="round"/>
<path d="M66.6942 160.966C66.6942 160.966 57.169 166.99 45.937 171.928" stroke="#D2552A" stroke-width="1.5" stroke-miterlimit="10" stroke-linecap="round" stroke-linejoin="round"/>
<path d="M15.8293 157.222C15.8293 157.222 18.1904 146.934 32.0195 145.248C45.8486 143.561 61.0269 144.742 66.9296 142.887" stroke="#D2552A" stroke-width="1.5" stroke-miterlimit="10" stroke-linecap="round" stroke-linejoin="round"/>
<path d="M129.666 129.732C129.666 129.732 125.113 133.948 123.258 141.2" stroke="#D2552A" stroke-width="1.5" stroke-miterlimit="10" stroke-linecap="round" stroke-linejoin="round"/>
<path d="M67.031 144.317L67.9889 158.146L71.173 157.775L67.031 144.317Z" fill="#F8756A"/>
<path d="M154.613 95.3415L164.091 82.7469C164.091 82.7469 167.781 78.6049 172.942 76.1696C179.256 73.1947 187.527 67.5686 187.527 67.5686C187.527 67.5686 190.306 69.336 187.527 71.9534L180.025 79.2053L184.693 82.6727C186.548 83.9207 186.663 86.7135 184.801 87.9615C184.707 88.0289 184.599 88.0897 184.491 88.1504C184.491 88.1504 185.503 91.186 182.467 92.6162C182.467 92.6162 182.548 94.8086 180.362 95.7328C178.177 96.657 174.426 95.2268 174.426 95.2268C174.426 95.2268 173.617 99.7398 167.039 101.001L164.139 105.123L154.613 95.3415Z" fill="#FFA189"/>
<path d="M170.918 81.31L184.41 80.0417C184.41 80.0417 185.678 83.752 182.217 84.5952C178.757 85.4385 175.215 86.7877 175.215 86.7877C175.215 86.7877 175.775 92.1034 170.479 93.5336L170.918 81.31Z" fill="#FFA189"/>
<path d="M173.306 81.0873L184.41 80.0485C184.41 80.0485 185.678 83.7587 182.217 84.602C178.757 85.4452 175.215 86.7944 175.215 86.7944C175.215 86.7944 175.775 92.1101 170.479 93.5403" stroke="#F8756A" stroke-width="1.5" stroke-miterlimit="10" stroke-linecap="round" stroke-linejoin="round"/>
<path d="M175.222 86.7944C175.222 86.7944 182.049 88.9868 184.497 88.1436" stroke="#F8756A" stroke-width="1.5" stroke-miterlimit="10" stroke-linecap="round" stroke-linejoin="round"/>
<path d="M174.426 90.5654C174.426 90.5654 178.426 93.0277 182.474 92.6094" stroke="#F8756A" stroke-width="1.5" stroke-miterlimit="10" stroke-linecap="round" stroke-linejoin="round"/>
<path d="M174.426 95.227C174.426 95.227 172.3 93.6348 172.496 92.6633" stroke="#F8756A" stroke-width="1.5" stroke-miterlimit="10" stroke-linecap="round" stroke-linejoin="round"/>
<path d="M154.613 95.3415L166.378 102.101L164.139 105.123L154.613 95.3415Z" fill="#F8756A"/>
<path d="M75.8212 65.2412C75.8752 65.9631 75.5041 66.577 74.9914 66.6108C74.4786 66.6513 74.0199 66.098 73.9659 65.3762C73.9119 64.6543 74.283 64.0403 74.7957 64.0066C75.3152 63.9661 75.7672 64.5193 75.8212 65.2412Z" fill="#00184C"/>
<path d="M85.2248 64.3171C85.2787 65.039 84.9077 65.6529 84.3949 65.6866C83.8822 65.7271 83.4234 65.1739 83.3695 64.452C83.3155 63.7301 83.6866 63.1162 84.1993 63.0825C84.712 63.042 85.1708 63.5952 85.2248 64.3171Z" fill="#00184C"/>
<path d="M70.8967 61.5445C70.8967 61.5445 72.752 59.1967 75.6733 60.3368" stroke="#00184C" stroke-width="3" stroke-miterlimit="10" stroke-linecap="round" stroke-linejoin="round"/>
<path d="M81.5076 59.7028C81.5076 59.7028 82.7287 58.1578 84.7527 58.1848" stroke="#00184C" stroke-width="3" stroke-miterlimit="10" stroke-linecap="round" stroke-linejoin="round"/>
<path d="M78.8898 65.3426C78.8898 68.0679 76.947 70.2806 74.5522 70.2806C72.1574 70.2806 70.2146 68.0679 70.2146 65.3426C70.2146 62.6172 72.1574 60.4046 74.5522 60.4046C76.947 60.4046 78.8898 62.6172 78.8898 65.3426Z" stroke="#FCFBFF" stroke-width="1.5" stroke-miterlimit="10" stroke-linecap="round" stroke-linejoin="round"/>
<path d="M89.3529 64.1011C89.3529 66.8265 87.7473 69.0391 85.7708 69.0391C83.7942 69.0391 82.1887 66.8265 82.1887 64.1011C82.1887 61.3758 83.7942 59.1631 85.7708 59.1631C87.7473 59.1631 89.3529 61.3758 89.3529 64.1011Z" stroke="#FCFBFF" stroke-width="1.5" stroke-miterlimit="10" stroke-linecap="round" stroke-linejoin="round"/>
<path d="M78.8494 64.668L82.1889 64.1013" stroke="#FCFBFF" stroke-width="1.5" stroke-miterlimit="10" stroke-linecap="round" stroke-linejoin="round"/>
<path d="M80.8875 65.2682C80.8875 65.2682 84.3484 69.1947 84.7195 71.05C85.0906 72.9053 81.6026 72.6557 81.6026 72.6557" stroke="#F8756A" stroke-width="1.5" stroke-miterlimit="10" stroke-linecap="round" stroke-linejoin="round"/>
<path d="M77.0083 74.3347L81.994 75.0094C81.994 75.0094 81.8321 77.256 79.0997 76.9186C76.3741 76.5813 77.0083 74.3347 77.0083 74.3347Z" fill="#FCFBFF"/>
<path d="M55.4618 88.1909C59.4669 88.1909 62.7137 84.9441 62.7137 80.939C62.7137 76.934 59.4669 73.6872 55.4618 73.6872C51.4567 73.6872 48.21 76.934 48.21 80.939C48.21 84.9441 51.4567 88.1909 55.4618 88.1909Z" stroke="#FCFBFF" stroke-width="1.5" stroke-miterlimit="10" stroke-linecap="round" stroke-linejoin="round"/>
<path d="M97.7453 118.77L97.1921 122.426H109.659L110.158 118.77" stroke="#00184C" stroke-width="1.5" stroke-miterlimit="10" stroke-linecap="round" stroke-linejoin="round"/>
<path d="M61.2633 3.47562H26.839C24.741 3.47562 23.041 5.17559 23.041 7.27356V19.9289C23.041 22.0269 24.741 23.7268 26.839 23.7268H49.0802L56.1364 31.6668V23.7268H61.2633C63.3613 23.7268 65.0613 22.0269 65.0613 19.9289V7.27356C65.0613 5.17559 63.3613 3.47562 61.2633 3.47562Z" fill="#FCFBFF"/>
<path d="M35.1025 15.1398C36.2129 15.1398 37.113 14.2397 37.113 13.1293C37.113 12.019 36.2129 11.1188 35.1025 11.1188C33.9922 11.1188 33.092 12.019 33.092 13.1293C33.092 14.2397 33.9922 15.1398 35.1025 15.1398Z" fill="#B5E1FF"/>
<path d="M46.7327 13.1293C46.7327 14.2357 45.8354 15.1398 44.7222 15.1398C43.6158 15.1398 42.7185 14.2425 42.7185 13.1293C42.7185 12.0229 43.6158 11.1188 44.7222 11.1188C45.8354 11.1188 46.7327 12.0161 46.7327 13.1293Z" fill="#B5E1FF"/>
<path d="M55.4621 13.1293C55.4621 14.2357 54.5648 15.1398 53.4516 15.1398C52.3452 15.1398 51.4412 14.2425 51.4412 13.1293C51.4412 12.0229 52.3385 11.1188 53.4516 11.1188C54.5648 11.1188 55.4621 12.0161 55.4621 13.1293Z" fill="#B5E1FF"/>
<path d="M179.633 166.734L156.143 175.834C156.143 175.834 139.164 182.02 136.803 196.631C134.442 211.25 130.28 234.294 130.28 234.294L99.0259 240.25V252.845H240.13L238.963 221.672L256.185 220.498C252.441 196.524 248.225 177.52 222.813 171.449L199.783 165.607L179.633 166.734Z" fill="#7040BF"/>
<path d="M174.573 168.811C174.573 168.811 173.514 185.555 189.704 184.711C205.895 183.868 204.964 166.848 204.964 166.848" stroke="#492994" stroke-width="1.5" stroke-miterlimit="10" stroke-linecap="round" stroke-linejoin="round"/>
<path d="M156.899 224.006L132.317 222.853C131.15 229.477 130.28 234.294 130.28 234.294L99.0259 240.251V252.845H156.751L156.899 224.006Z" fill="#FFA189"/>
<path d="M132.324 222.853L156.899 224.007V229.997L132.324 222.853Z" fill="#F8756A"/>
<path d="M209.019 127.034C207.926 121.3 202.354 120.963 202.354 120.963C203.028 116.578 198.724 113.286 192.066 113.96C185.408 114.635 183.715 111.006 176.132 110.081C168.55 109.157 165.17 116.49 166.944 122.818C168.719 129.145 176.132 129.732 176.132 129.732L176.726 150.726L195.19 151.232C199.986 151.232 203.878 147.589 203.878 143.096C203.878 142.394 203.777 141.72 203.595 141.072C207.292 137.369 209.774 131.001 209.019 127.034Z" fill="#00184C"/>
<path d="M200.587 135.129C198.367 135.129 196.465 136.492 195.676 138.428C194.07 136.95 192.606 134.4 192.491 129.989C192.491 129.989 186.238 132.707 183.89 130.407C181.448 128.005 181.61 124.841 181.61 124.841C181.61 124.841 179.404 129.483 174.075 128.005L171.943 147.501C171.943 147.501 170.21 156.196 180.45 158.085L179.418 169.027C179.418 169.027 178.75 178.93 187.398 179.315C199.993 179.881 199.993 169.027 199.993 169.027L198.172 145.167C198.893 145.538 199.716 145.754 200.587 145.754C203.521 145.754 205.902 143.372 205.902 140.438C205.896 137.51 203.514 135.129 200.587 135.129Z" fill="#FFA189"/>
<path d="M192.491 129.989C192.491 129.989 186.238 132.707 183.89 130.407C181.448 128.005 181.61 124.841 181.61 124.841C181.61 124.841 179.404 129.483 174.075 128.005C174.075 128.005 177.394 130.515 181.219 129.503C181.219 129.503 183.809 134.785 188.869 134.11C188.869 134.11 191.803 139.129 195.675 138.421C194.063 136.95 192.599 134.4 192.491 129.989Z" fill="#F8756A"/>
<path d="M180.45 158.092C180.45 158.092 189.537 159.502 192.99 151.238C192.99 151.238 192.275 162.059 179.984 162.976L180.45 158.092Z" fill="#F8756A"/>
<path d="M197.631 141.369L203.11 138.502" stroke="#F8756A" stroke-width="1.5" stroke-miterlimit="10" stroke-linecap="round" stroke-linejoin="round"/>
<path d="M178.959 136.06L175.411 141.841C174.972 142.563 175.289 143.501 176.079 143.804L178.959 144.911" stroke="#F8756A" stroke-width="1.5" stroke-miterlimit="10" stroke-linecap="round" stroke-linejoin="round"/>
<path d="M177.083 147.528C177.083 147.528 181.185 148.796 183.466 146.347" stroke="#F8756A" stroke-width="1.5" stroke-miterlimit="10" stroke-linecap="round" stroke-linejoin="round"/>
<path d="M175.492 136.418C176.006 136.418 176.423 135.832 176.423 135.109C176.423 134.386 176.006 133.8 175.492 133.8C174.978 133.8 174.561 134.386 174.561 135.109C174.561 135.832 174.978 136.418 175.492 136.418Z" fill="#00184C"/>
<path d="M184.619 137.821C185.133 137.821 185.55 137.235 185.55 136.512C185.55 135.789 185.133 135.203 184.619 135.203C184.104 135.203 183.688 135.789 183.688 136.512C183.688 137.235 184.104 137.821 184.619 137.821Z" fill="#00184C"/>
<path d="M183.249 132.39C183.249 132.39 186.116 131.547 187.843 134.158" stroke="#00184C" stroke-width="3" stroke-miterlimit="10" stroke-linecap="round" stroke-linejoin="round"/>
<path d="M173.346 131.668C173.346 131.668 175.006 130.987 177.084 131.668" stroke="#00184C" stroke-width="3" stroke-miterlimit="10" stroke-linecap="round" stroke-linejoin="round"/>
<path d="M156.649 252.171L157.155 207.142" stroke="#492994" stroke-width="1.5" stroke-miterlimit="10" stroke-linecap="round" stroke-linejoin="round"/>
<path d="M133.221 217.739L157.028 218.947" stroke="#492994" stroke-width="1.5" stroke-miterlimit="10" stroke-linecap="round" stroke-linejoin="round"/>
<path d="M189.873 239.245L173.905 231.265C173.905 231.265 171.43 229.579 168.057 232.162C164.684 234.746 154.787 244.082 150.295 244.528C150.295 244.528 148.608 248.238 153.89 248.238C153.89 248.238 156.029 250.714 160.184 248.912C160.184 248.912 162.883 250.936 166.708 248.575C166.708 248.575 169.183 250.262 173.231 249.25L178.628 247.563C178.628 247.563 182.56 252.285 189.873 252.845H241.931C241.931 252.845 261.272 251.496 258.796 235.306C256.732 221.774 256.192 220.492 256.192 220.492L226.975 222.489L227.947 231.238L189.873 239.245Z" fill="#FFA189"/>
<path d="M226.969 222.489L256.186 220.499L257.123 225.025L226.969 222.489Z" fill="#F8756A"/>
<path d="M227.94 231.245C227.94 231.245 234.228 230.246 239.031 233.876" stroke="#F8756A" stroke-width="1.5" stroke-miterlimit="10" stroke-linecap="round" stroke-linejoin="round"/>
<path d="M189.873 239.245L194.09 241.209" stroke="#F8756A" stroke-width="1.5" stroke-miterlimit="10" stroke-linecap="round" stroke-linejoin="round"/>
<path d="M178.628 247.563L182.872 245.85C182.872 245.85 186.582 250.74 191.385 249.816" stroke="#F8756A" stroke-width="1.5" stroke-miterlimit="10" stroke-linecap="round" stroke-linejoin="round"/>
<path d="M166.715 248.575L176.976 242.308" stroke="#F8756A" stroke-width="1.5" stroke-miterlimit="10" stroke-linecap="round" stroke-linejoin="round"/>
<path d="M160.192 248.912L171.842 239.61" stroke="#F8756A" stroke-width="1.5" stroke-miterlimit="10" stroke-linecap="round" stroke-linejoin="round"/>
<path d="M153.897 248.238L167.275 237.923" stroke="#F8756A" stroke-width="1.5" stroke-miterlimit="10" stroke-linecap="round" stroke-linejoin="round"/>
<path d="M226.969 222.489L224.277 204.443" stroke="#492994" stroke-width="1.5" stroke-miterlimit="10" stroke-linecap="round" stroke-linejoin="round"/>
<path d="M226.261 217.739L255.268 214.825" stroke="#492994" stroke-width="1.5" stroke-miterlimit="10" stroke-linecap="round" stroke-linejoin="round"/>
<path d="M178.236 247.509H115.331V252.852H178.236V247.509Z" fill="#1574DD"/>
<path d="M145.56 252.845H78.4513L64.9595 200.004H132.068L145.56 252.845Z" fill="#B5E1FF"/>
<path d="M132.067 200.004H127.345L140.837 252.845H145.559L132.067 200.004Z" fill="#1574DD"/>
<path d="M100.92 230.652C103.089 230.11 104.28 227.4 103.58 224.599C102.88 221.797 100.555 219.966 98.3864 220.507C96.2176 221.049 95.0266 223.759 95.7262 226.56C96.4259 229.362 98.7511 231.193 100.92 230.652Z" fill="#FCFBFF"/>
<path d="M316.697 153.7C316.697 153.7 298.314 157.451 286.509 144.634C274.704 131.817 292.749 113.117 292.749 113.117C292.749 113.117 283.136 104.158 287.69 95.5574C287.69 95.5574 292.189 89.3174 300.48 93.365C300.48 93.365 310.174 80.2104 326.337 87.6309C342.5 95.0514 342.331 115.964 341.825 119.789C341.825 119.782 361.773 150.483 316.697 153.7Z" fill="#00184C"/>
<path d="M299.664 177.857L296.628 186.796L271.331 160.655C271.331 160.655 272.511 156.156 270.265 151.434C268.018 146.711 269.476 141.315 269.476 141.315C269.476 141.315 267.115 140.188 265.543 142.327L263.148 149.882L242.317 144.391C241.932 144.269 241.541 144.202 241.136 144.182C239.753 144.121 236.717 144.242 236.205 146.489C236.205 146.489 232.38 145.221 230.221 148.553L232.38 149.525C232.38 149.525 228.993 149.848 228.204 152.095L230.815 154.112C230.815 154.112 232.629 157.404 234.289 158.517C239.638 162.099 257.34 165.715 259.869 168.582L282.812 207.56C286.097 213.145 290.503 218.178 296.911 219.122C301.208 219.756 307.732 218.555 310.963 214.117C319.908 201.839 324.623 191.181 324.623 191.181L299.664 177.857Z" fill="#FFA189"/>
<path d="M296.628 186.796L304.332 194.945" stroke="#F8756A" stroke-width="1.5" stroke-miterlimit="10" stroke-linecap="round" stroke-linejoin="round"/>
<path d="M317.972 187.625L314.335 209.28C314.335 209.28 322.208 196.139 324.623 191.181L317.972 187.625Z" fill="#F8756A"/>
<path d="M236.198 146.489L250.135 150.982" stroke="#F8756A" stroke-width="1.5" stroke-miterlimit="10" stroke-linecap="round" stroke-linejoin="round"/>
<path d="M232.373 149.525L247.889 154.247" stroke="#F8756A" stroke-width="1.5" stroke-miterlimit="10" stroke-linecap="round" stroke-linejoin="round"/>
<path d="M230.214 153.7L245.75 157.957" stroke="#F8756A" stroke-width="1.5" stroke-miterlimit="10" stroke-linecap="round" stroke-linejoin="round"/>
<path d="M253.879 157.957C253.879 157.957 261.637 153.741 264.753 161.33" stroke="#F8756A" stroke-width="1.5" stroke-miterlimit="10" stroke-linecap="round" stroke-linejoin="round"/>
<path d="M394.052 171.786C394.052 171.786 409.453 173.587 415.079 191.181C420.698 208.774 402.262 252.852 402.262 252.852H328.279L355.715 203.269L394.052 171.786Z" fill="#00184C"/>
<path d="M368.08 209.28L372.208 212.316L363.5 252.845" stroke="#013F81" stroke-width="1.5" stroke-miterlimit="10" stroke-linecap="round" stroke-linejoin="round"/>
<path d="M386.166 178.262L390.794 182.829C395.792 187.767 402.781 190.128 409.75 189.231L409.905 189.211" stroke="#013F81" stroke-width="1.5" stroke-miterlimit="10" stroke-linecap="round" stroke-linejoin="round"/>
<path d="M395.509 252.845C395.509 252.845 412.151 201.535 406.08 189.413" stroke="#013F81" stroke-width="1.5" stroke-miterlimit="10" stroke-linecap="round" stroke-linejoin="round"/>
<path d="M372.236 131.351C369.072 127.364 364.599 125.206 360.741 124.032C357.131 122.932 353.327 122.602 349.569 122.912L337.946 123.883L322.565 133.247L316.892 136.282C312.568 138.596 309.229 142.428 307.664 147.076C307.205 148.432 306.78 149.97 306.409 151.717C304.385 161.33 299.663 177.857 299.663 177.857L324.623 191.181L330.485 179.153C332.927 179.645 334.91 179.436 334.91 179.436C341.204 183.146 355.708 203.269 355.708 203.269L394.045 171.786C394.052 171.786 378.981 139.851 372.236 131.351Z" fill="#1574DD"/>
<path d="M330.485 179.146C330.485 179.146 323.841 179.065 322.66 173.358C321.338 166.976 319.065 161.775 319.065 161.775C319.065 161.775 320.67 182.741 317.979 187.625L324.63 191.174L330.485 179.146Z" fill="#013F81"/>
<path d="M337.946 123.89L325.615 117.772C327.497 117.057 328.839 115.141 328.839 112.888C328.839 110.021 326.667 107.7 323.989 107.7C321.311 107.7 319.139 110.021 319.139 112.888C319.139 113.023 319.145 113.151 319.159 113.279C319.091 113.218 319.024 113.164 318.956 113.104C313.243 112.335 302.038 98.674 302.038 98.6673C300.979 99.9355 300.115 101.602 299.839 103.76L300.061 109.494L295.791 116.915H299.67C299.67 116.915 299.616 128.16 305.013 130.859C309.715 133.213 314.248 131.635 317.122 129.476L322.579 133.247C322.579 133.247 324.245 146.934 333.015 145.808C343.775 144.432 337.946 123.89 337.946 123.89Z" fill="#FFA189"/>
<path d="M317.263 112.591C311.286 109.953 302.031 98.674 302.031 98.6673C301.08 99.8074 300.29 101.264 299.939 103.113C304.486 106.142 311.583 110.54 317.263 112.591Z" fill="#F8756A"/>
<path d="M317.108 129.476C317.108 129.476 320.576 125.772 321.925 122.804C321.925 122.804 322.903 129.253 321.574 132.559L317.108 129.476Z" fill="#F8756A"/>
<path d="M322.269 115.033L325.467 110.142" stroke="#F8756A" stroke-width="1.5" stroke-miterlimit="10" stroke-linecap="round" stroke-linejoin="round"/>
<path d="M304.217 120.288L309.729 118.042C309.729 118.042 310.586 121.023 307.678 121.948C305.31 122.703 304.217 120.288 304.217 120.288Z" fill="#FCFBFF"/>
<path d="M303.583 111.37C304.097 111.37 304.514 110.784 304.514 110.061C304.514 109.338 304.097 108.752 303.583 108.752C303.069 108.752 302.652 109.338 302.652 110.061C302.652 110.784 303.069 111.37 303.583 111.37Z" fill="#00184C"/>
<path d="M302.024 105.231C302.024 105.231 304.891 104.388 306.618 106.999" stroke="#00184C" stroke-width="3" stroke-miterlimit="10" stroke-linecap="round" stroke-linejoin="round"/>
<path d="M350.427 174.484L350.764 183.929L321.925 220.188L302.14 228.121C300.642 228.721 299.387 229.794 298.564 231.177L289.039 247.172C289.039 247.172 292.156 248.858 295.11 246.328L293.93 248.77C293.93 248.77 298.396 249.863 300.595 247.502L299.583 249.445C299.583 249.445 301.775 250.457 305.155 249.695C305.155 249.695 309.277 249.695 310.882 248.096C313.5 245.485 317.46 239.663 317.46 239.663C317.46 239.663 323.949 240.257 326.735 236.209L329.515 232.162L365.882 208.281C371.447 204.625 374.975 198.574 375.414 191.936L376.567 174.484H350.427Z" fill="#FFA189"/>
<path d="M295.11 246.328L302.193 234.098" stroke="#F8756A" stroke-width="1.5" stroke-miterlimit="10" stroke-linecap="round" stroke-linejoin="round"/>
<path d="M300.587 247.509L306.915 235.616" stroke="#F8756A" stroke-width="1.5" stroke-miterlimit="10" stroke-linecap="round" stroke-linejoin="round"/>
<path d="M305.155 249.694L311.3 237.896" stroke="#F8756A" stroke-width="1.5" stroke-miterlimit="10" stroke-linecap="round" stroke-linejoin="round"/>
<path d="M350.426 174.484H376.567L376.25 179.314L350.426 174.484Z" fill="#F8756A"/>
<path d="M321.925 247.509H259.019V252.852H321.925V247.509Z" fill="#1574DD"/>
<path d="M289.248 252.845H222.139L208.647 200.004H275.756L289.248 252.845Z" fill="#B5E1FF"/>
<path d="M275.756 200.004H271.034L284.526 252.845H289.248L275.756 200.004Z" fill="#1574DD"/>
<path d="M244.606 230.647C246.775 230.106 247.966 227.396 247.267 224.594C246.567 221.793 244.242 219.961 242.073 220.503C239.904 221.044 238.713 223.754 239.413 226.556C240.112 229.357 242.438 231.189 244.606 230.647Z" fill="#FCFBFF"/>
<path d="M350.426 174.485L348.908 143.116" stroke="#013F81" stroke-width="1.5" stroke-miterlimit="10" stroke-linecap="round" stroke-linejoin="round"/>
<path d="M376.567 174.485V155.825" stroke="#013F81" stroke-width="1.5" stroke-miterlimit="10" stroke-linecap="round" stroke-linejoin="round"/>
<path d="M2 252.845H418" stroke="#B5E1FF" stroke-width="3" stroke-miterlimit="10" stroke-linecap="round" stroke-linejoin="round"/>
</svg>
