<svg width="166" height="128" viewBox="0 0 166 128" fill="none" xmlns="http://www.w3.org/2000/svg">
<path d="M132.216 62.1816H86.9624V107.435H132.216V62.1816Z" stroke="#FFAC00" stroke-width="4" stroke-miterlimit="10" stroke-linecap="round" stroke-linejoin="round"/>
<path d="M164.845 81.284H119.591V126.538H164.845V81.284Z" stroke="#FFAC00" stroke-miterlimit="10"/>
<path d="M14.1287 95.9194C14.1287 102.761 2 101.583 2 110.315" stroke="#F996A8" stroke-width="4" stroke-miterlimit="10" stroke-linecap="round" stroke-linejoin="round"/>
<path d="M14.1287 67.1373C14.1287 73.9789 2 72.8007 2 81.5333" stroke="#F996A8" stroke-width="4" stroke-miterlimit="10" stroke-linecap="round" stroke-linejoin="round"/>
<path d="M14.1287 95.9194C14.1287 89.0778 2 90.2561 2 81.5234" stroke="#F996A8" stroke-width="4" stroke-miterlimit="10" stroke-linecap="round" stroke-linejoin="round"/>
<path d="M14.1287 67.1373C14.1287 60.2958 2 61.474 2 52.7413" stroke="#F996A8" stroke-width="4" stroke-miterlimit="10" stroke-linecap="round" stroke-linejoin="round"/>
<path d="M36.7229 109.147C36.7229 115.989 24.5942 114.81 24.5942 123.543" stroke="#F996A8" stroke-miterlimit="10"/>
<path d="M36.7229 80.3551C36.7229 87.1967 24.5942 86.0185 24.5942 94.7511" stroke="#F996A8" stroke-miterlimit="10"/>
<path d="M36.7229 109.147C36.7229 102.306 24.5942 103.484 24.5942 94.7511" stroke="#F996A8" stroke-miterlimit="10"/>
<path d="M36.7229 80.3551C36.7229 73.5136 24.5942 74.6918 24.5942 65.9591" stroke="#F996A8" stroke-miterlimit="10"/>
<path d="M59.9382 32.03L35.041 8.66742" stroke="#76E2D1" stroke-width="4" stroke-miterlimit="10" stroke-linecap="round" stroke-linejoin="round"/>
<path d="M35.8086 32.7973L59.1711 7.90015" stroke="#76E2D1" stroke-width="4" stroke-miterlimit="10" stroke-linecap="round" stroke-linejoin="round"/>
<path d="M113.502 15.8495C109.995 18.0518 105.362 16.9985 103.159 13.4916C100.945 9.98474 101.998 5.36474 105.506 3.15048C109.013 0.9482 113.646 2.00147 115.849 5.50836C118.051 9.01526 116.998 13.6472 113.502 15.8495Z" stroke="#D9CFFF" stroke-width="4" stroke-miterlimit="10" stroke-linecap="round" stroke-linejoin="round"/>
</svg>
