<svg width="191" height="99" viewBox="0 0 191 99" fill="none" xmlns="http://www.w3.org/2000/svg">
<path d="M159.826 66.9115L150.381 50.5757L140.962 66.9205L131.535 83.2743L150.399 83.2564L169.271 83.2474L159.826 66.9115Z" stroke="#B5EABE" stroke-width="4" stroke-miterlimit="10" stroke-linecap="round" stroke-linejoin="round"/>
<path d="M180.354 78.9295L170.9 62.5936L161.481 78.9385L152.063 95.2923L170.927 95.2743L189.799 95.2653L180.354 78.9295Z" stroke="#B5EABE" stroke-miterlimit="10"/>
<path d="M2 16.3118C2 8.4048 8.41379 2 16.3118 2C24.2189 2 30.6237 8.4048 30.6237 16.3118" stroke="#FFDE68" stroke-width="4" stroke-miterlimit="10" stroke-linecap="round" stroke-linejoin="round"/>
<path d="M22.5278 28.3298C22.5278 20.4227 28.9416 14.0179 36.8397 14.0179C44.7467 14.0179 51.1515 20.4227 51.1515 28.3298" stroke="#FFDE68" stroke-miterlimit="10"/>
<path d="M126.435 33.0796C123.863 34.8414 120.466 33.9988 118.85 31.1933C117.226 28.3878 117.999 24.6918 120.571 22.9204C123.143 21.1586 126.54 22.0012 128.156 24.8067C129.771 27.6122 128.999 31.3178 126.435 33.0796Z" stroke="#D9CFFF" stroke-width="4" stroke-miterlimit="10" stroke-linecap="round" stroke-linejoin="round"/>
<path d="M41.5806 85.982L64.3932 63.1694" stroke="#FFB82E" stroke-width="4" stroke-miterlimit="10" stroke-linecap="round" stroke-linejoin="round"/>
<path d="M62.1084 98L84.921 75.1874" stroke="#FFB82E" stroke-miterlimit="10"/>
</svg>
